<svg width="80" height="66" viewBox="0 0 80 66" fill="none" xmlns="http://www.w3.org/2000/svg">
<path d="M68.35 15.4627C60.7719 3.56954 45.9601 -2.67011 31.4752 1.09236C16.9905 4.85455 7.21858 17.4794 6.56666 31.5101L0 33.2158L5.08336 52.2427L11.65 50.537C19.2278 62.4302 34.0399 68.6699 48.5245 64.9077C63.0095 61.1455 72.7811 48.5206 73.433 34.4896L79.9997 32.7839L74.9164 13.757L68.35 15.4627ZM31.9047 2.69988C45.4791 -0.825897 59.35 4.90363 66.6283 15.9097L64.6546 16.4224C57.7296 6.43009 44.9282 1.28839 32.397 4.54325C19.8658 7.79811 11.2951 18.491 10.2617 30.5502L8.28804 31.0628C9.12228 17.9497 18.3302 6.22593 31.9047 2.69988ZM64.2243 16.5343L49.4416 20.3739C45.6993 17.6569 40.7903 16.5696 35.9461 17.8277C31.102 19.0858 27.3737 22.4167 25.4745 26.599L10.6918 30.4386C11.7672 18.6093 20.2009 8.14082 32.5042 4.94513C44.8076 1.74944 57.378 6.7627 64.2243 16.5343ZM48.0953 63.2999C34.5209 66.8256 20.65 61.0961 13.3717 50.09L15.3454 49.5773C22.2704 59.5697 35.0718 64.7114 47.603 61.4565C60.1339 58.2016 68.7049 47.5088 69.7383 35.4496L71.712 34.9369C70.8777 48.0503 61.6698 59.7741 48.0953 63.2999ZM15.7757 49.4657L30.5582 45.6261C34.3004 48.3434 39.2094 49.4304 44.0536 48.1723C48.8977 46.9142 52.6263 43.5834 54.5252 39.4011L69.3079 35.5615C68.2325 47.3907 59.7988 57.8592 47.4955 61.0549C35.1921 64.2503 22.6222 59.2373 15.7757 49.4657ZM77.7789 31.6986L6.47366 50.2193L2.22112 34.3014L73.5263 15.7807L77.7789 31.6986Z" fill="black"/>
<path d="M21.2938 35.2888L20.6484 35.4565L21.1402 37.2974L21.4656 37.213C21.6468 37.1659 21.8075 37.1092 21.9477 37.0427C22.0877 36.9766 22.2148 36.8927 22.3286 36.792C22.4421 36.6913 22.5197 36.5679 22.5607 36.4224C22.6016 36.2768 22.5988 36.1164 22.5519 35.9409C22.4779 35.6641 22.3286 35.4655 22.1044 35.3455C21.8806 35.2257 21.6104 35.2067 21.2938 35.2888Z" fill="black"/>
<path d="M13.4885 38.2783C13.4279 38.1442 13.3522 38.0211 13.2615 37.9097C13.1707 37.7984 13.0746 37.705 12.9731 37.6304C12.8712 37.5555 12.7509 37.5073 12.6118 37.4852C12.4728 37.4633 12.3251 37.4725 12.1687 37.5132C12.0299 37.5491 11.9101 37.6029 11.8095 37.6739C11.7088 37.7451 11.6311 37.8281 11.5765 37.9229C11.5219 38.0177 11.4787 38.1226 11.4468 38.2379C11.4147 38.3531 11.3993 38.4734 11.4004 38.5985C11.4016 38.7239 11.4078 38.8534 11.4189 38.9875C11.43 39.1216 11.4508 39.2531 11.4815 39.3818C11.5122 39.5108 11.5412 39.6373 11.5685 39.7615C11.5959 39.8855 11.6277 40.0013 11.6638 40.1079C11.6863 40.192 11.7028 40.2534 11.713 40.2919C11.7224 40.3269 11.7364 40.3796 11.7551 40.4497C11.7867 40.5541 11.8163 40.6646 11.8436 40.781C11.8709 40.8976 11.9059 41.0171 11.948 41.1391C11.9901 41.2614 12.0327 41.3822 12.0763 41.5023C12.1198 41.6223 12.1707 41.7384 12.2293 41.8506C12.2879 41.963 12.3487 42.0671 12.4125 42.163C12.4762 42.2589 12.5484 42.3442 12.6292 42.419C12.71 42.4936 12.7956 42.5539 12.8857 42.5999C12.9759 42.6459 13.0775 42.6737 13.1907 42.6838C13.3036 42.6939 13.4202 42.6832 13.5414 42.6515C13.6802 42.6156 13.7985 42.5604 13.8966 42.4863C13.9945 42.4123 14.071 42.3248 14.1262 42.2241C14.181 42.1237 14.2226 42.0118 14.2504 41.8882C14.278 41.7648 14.2911 41.6349 14.2888 41.4986C14.2866 41.3623 14.2778 41.2232 14.2627 41.0808C14.2473 40.9386 14.224 40.7975 14.1924 40.6576C14.1606 40.5179 14.129 40.3808 14.0969 40.2467C14.0647 40.1127 14.0309 39.9865 13.9956 39.8678C13.9768 39.7977 13.9629 39.7453 13.9535 39.7099C13.9433 39.6715 13.9268 39.6101 13.9043 39.526C13.867 39.4006 13.8315 39.2674 13.7976 39.1263C13.7635 38.985 13.7186 38.8419 13.6631 38.6972C13.6071 38.552 13.549 38.4126 13.4885 38.2783Z" fill="black"/>
<path d="M59.0011 28.2903L60.2227 27.9728L58.8848 25.4634L59.0011 28.2903Z" fill="black"/>
<path d="M3.56641 35.041L7.27511 48.922L76.4334 30.9591L72.7247 17.0781L3.56641 35.041ZM17.2544 41.3382C17.0519 42.1105 16.6673 42.7749 16.101 43.3305C15.5347 43.8863 14.8441 44.2699 14.0298 44.4814C13.2155 44.6929 12.423 44.6945 11.6522 44.4859C10.8817 44.2775 10.2153 43.886 9.65295 43.3122C9.09091 42.7384 8.69982 42.0396 8.47967 41.2153C8.23791 40.3109 8.21771 39.4695 8.41852 38.6919C8.61961 37.9142 9.00132 37.2647 9.56364 36.7436C10.1262 36.2225 10.8302 35.8521 11.677 35.6322C12.5089 35.416 13.2999 35.398 14.0497 35.5783C14.7994 35.7584 15.4559 36.1381 16.0197 36.7172C16.5831 37.2964 16.9856 38.0384 17.2274 38.9429C17.4478 39.7674 17.4566 40.5655 17.2544 41.3382ZM27.4569 40.8308L26.0595 41.1937C25.9207 41.2296 25.8112 41.2574 25.7307 41.2765C25.6502 41.2955 25.5424 41.3188 25.407 41.3463C25.2716 41.3738 25.1613 41.3903 25.0751 41.3957C24.9892 41.4013 24.886 41.4027 24.7654 41.4004C24.645 41.3979 24.5444 41.3839 24.4633 41.3578C24.3822 41.332 24.2943 41.295 24.1996 41.2465C24.1049 41.1979 24.0244 41.1354 23.9584 41.0588C23.8924 40.9823 23.829 40.8872 23.7681 40.7736C23.7073 40.66 23.6578 40.5313 23.6194 40.3877L23.3455 39.3621C23.2903 39.1552 23.2326 38.9855 23.1725 38.8531C23.1122 38.7207 23.0329 38.601 22.9339 38.4936C22.8346 38.3862 22.7098 38.3203 22.5587 38.2956C22.4077 38.2712 22.2254 38.2866 22.0121 38.3419L21.4893 38.4776L21.96 40.2394L22.6057 40.0717L23.1102 41.9599C22.1713 42.2039 20.7318 42.5797 18.7909 43.0876L18.2852 41.194L19.1066 40.9806L17.8267 36.1894L17.0001 36.4043L16.504 34.548L21.9179 33.1418C22.3551 33.0282 22.7533 32.9699 23.1117 32.9668C23.4703 32.9637 23.8011 33.0212 24.1046 33.1393C24.4078 33.2574 24.6669 33.4542 24.8814 33.7305C25.0959 34.0067 25.2608 34.3604 25.376 34.7917C25.512 35.3001 25.4571 35.7606 25.2116 36.1729C24.9664 36.5854 24.5529 36.927 23.9712 37.1982C24.533 37.1797 24.9562 37.2478 25.2409 37.4029C25.5256 37.5577 25.7111 37.7961 25.7973 38.1189L25.9278 38.608C25.9551 38.7098 25.9847 38.7883 26.0166 38.8436C26.0484 38.8991 26.1002 38.9465 26.1716 38.9861C26.243 39.0256 26.3414 39.0413 26.4665 39.0329C26.5917 39.025 26.7538 38.9947 26.9529 38.9431L27.4569 40.8308ZM30.8084 32.8173L30.0242 33.021L31.3044 37.8121L32.0567 37.6166L32.5613 39.5049L27.9635 40.699L27.4589 38.8108L28.2431 38.6072L26.9629 33.816L26.2 34.014L25.704 32.1577L30.3126 30.9608L30.8084 32.8173ZM41.3884 37.2122L39.9162 37.5945L39.5501 37.1214C39.1564 37.7111 38.5148 38.1214 37.6259 38.3522C37.1102 38.4863 36.6068 38.5514 36.1153 38.5477C35.6238 38.5441 35.1573 38.4703 34.7159 38.3262C34.2742 38.182 33.8709 37.9748 33.5059 37.7039C33.1407 37.4332 32.8207 37.086 32.546 36.6626C32.2712 36.2391 32.0616 35.7573 31.9174 35.2174C31.7507 34.5934 31.6881 33.9854 31.7297 33.3934C31.7712 32.8014 31.9125 32.2531 32.1543 31.7477C32.3958 31.2426 32.7596 30.7995 33.2451 30.4184C33.7309 30.0373 34.3134 29.7585 34.9926 29.5821C35.7216 29.3928 36.3565 29.3984 36.8969 29.5992L37.0445 29.2122L38.7247 28.7758L39.6772 32.3417L38.1413 32.7408C38.0591 32.5333 37.9812 32.3585 37.9069 32.2166C37.8327 32.0747 37.7383 31.9306 37.6234 31.7842C37.5082 31.6378 37.3864 31.5279 37.2584 31.4544C37.1304 31.3809 36.9731 31.3335 36.7871 31.3122C36.6008 31.2914 36.3957 31.3097 36.1716 31.368C35.9227 31.4325 35.7128 31.5293 35.5419 31.6583C35.3709 31.787 35.2447 31.941 35.1633 32.1196C35.0817 32.2982 35.0237 32.4831 34.989 32.6738C34.9545 32.8647 34.9474 33.0765 34.9676 33.3093C34.9881 33.542 35.0157 33.7524 35.0507 33.9403C35.0857 34.1279 35.1326 34.3323 35.1917 34.5533C35.6047 36.0997 36.3716 36.7273 37.4917 36.4362C37.7619 36.3661 37.9783 36.2304 38.1413 36.0285C38.3043 35.8268 38.3515 35.598 38.2829 35.3422C38.2343 35.1599 38.1823 35.0217 38.1265 34.9271L37.2718 35.1437L36.8446 33.5448L40.1784 32.6788L41.3884 37.2122ZM45.0706 29.1129L44.2864 29.3165L45.5667 34.1077L46.319 33.9122L46.8236 35.8005L42.2257 36.9946L41.7212 35.1064L42.5053 34.9028L41.2251 30.1116L40.4623 30.3096L39.9662 28.4533L44.5749 27.2564L45.0706 29.1129ZM55.0499 26.521C54.7475 26.5996 54.5499 26.7241 54.4566 26.8946C54.363 27.0648 54.3513 27.2799 54.4207 27.5393L55.9916 33.4192L52.7591 34.2588L48.9602 30.1385L49.5237 32.2475C49.6005 32.5349 49.7191 32.72 49.8798 32.8019C50.0405 32.8841 50.272 32.8855 50.5744 32.807L51.0789 34.6952L47.6811 35.5778L47.1765 33.6895C47.3401 33.6469 47.4729 33.5922 47.5745 33.5244C47.6763 33.4565 47.7494 33.3889 47.7938 33.321C47.8384 33.2532 47.8623 33.1654 47.866 33.0577C47.8697 32.95 47.8646 32.8566 47.8512 32.7775C47.8376 32.6984 47.8131 32.5924 47.7776 32.4592L46.763 28.662L45.9256 28.8796L45.4324 27.0337L49.353 26.0154L53.37 30.4613L52.711 27.9945C52.6885 27.9107 52.6709 27.8476 52.6578 27.806C52.6447 27.7643 52.6214 27.7056 52.5881 27.6299C52.5546 27.5542 52.5142 27.4992 52.467 27.4645C52.4198 27.43 52.3606 27.3966 52.2892 27.3643C52.2178 27.3324 52.1285 27.3209 52.0207 27.3301C51.9126 27.3394 51.79 27.3638 51.6521 27.403L51.156 25.5468L54.5553 24.6693L55.0499 26.521ZM65.5392 30.9395L61.1333 32.0837L60.6236 30.1969L61.2639 30.0306C61.1103 29.4556 60.9143 29.199 60.6759 29.261L59.2091 29.6419C59.1631 29.6539 59.1323 29.6814 59.1173 29.7246C59.1022 29.7681 59.0979 29.8093 59.1047 29.8488C59.1116 29.8884 59.1229 29.9453 59.1389 30.0199C59.165 30.118 59.2145 30.2252 59.2876 30.3413C59.3604 30.4574 59.4341 30.5056 59.5086 30.4863L59.9566 30.3699L60.4612 32.2581L56.8447 33.1974L56.3401 31.3091C56.4965 31.2684 56.6316 31.2185 56.7448 31.1591C57.0045 31.0205 57.1572 30.8026 57.2036 30.5056C57.2201 30.4114 57.2275 30.1677 57.2249 29.7745L57.1885 25.9652L56.0576 26.2588L55.5616 24.4025L60.8637 23.0253L64.1537 28.7848C64.2111 28.886 64.2572 28.9623 64.2919 29.0134C64.3263 29.0644 64.369 29.1068 64.4199 29.1404C64.4705 29.1741 64.5226 29.1839 64.5761 29.1699L65.0349 29.0507L65.5392 30.9395ZM72.7074 29.0776L65.9172 30.8413L65.4075 28.9545L66.1703 28.7565L64.8904 23.9653L64.1062 24.1689L63.6116 22.3177L68.2415 21.1152L68.7362 22.9664L67.9147 23.1798L69.1947 27.971L70.2135 27.7065L70.1859 25.745L71.7113 25.3488L72.7074 29.0776Z" fill="black"/>
<path d="M17.3715 23.5405C17.3755 23.5834 17.3741 23.651 17.3669 23.7438C17.3601 23.8366 17.355 23.9076 17.3519 23.9564C17.3308 24.1479 17.3226 24.2696 17.3268 24.3215L16.659 24.031C16.663 23.8779 16.655 23.6863 16.6351 23.4563C16.6158 23.2267 16.5802 23.055 16.5293 22.942L16.8393 22.249L21.5421 24.2952L21.145 25.1825L17.3715 23.5405Z" fill="black"/>
<path d="M21.791 23.1112C21.4391 23.1696 21.0705 23.0815 20.6848 22.8471L18.7237 21.6552C18.324 21.412 18.0695 21.1251 17.9608 20.7945C17.8519 20.4638 17.9187 20.1048 18.1605 19.7178C18.4003 19.3345 18.6944 19.116 19.0431 19.0635C19.3921 19.0105 19.7658 19.1056 20.1657 19.349L22.1266 20.5407C22.5086 20.7726 22.7523 21.0581 22.8587 21.3971C22.9648 21.7359 22.9022 22.0904 22.6716 22.4595C22.4363 22.8358 22.1431 23.0532 21.791 23.1112ZM21.5882 21.3671L19.6597 20.1949C19.4976 20.0962 19.3497 20.0347 19.216 20.0098C19.0823 19.9851 18.9754 20.0364 18.8957 20.1643C18.8113 20.2992 18.8101 20.4184 18.8918 20.5221C18.9737 20.6256 19.0974 20.7277 19.2632 20.8284L21.1917 22.0007C21.5555 22.2217 21.8038 22.2256 21.9372 22.0127C22.068 21.8035 21.952 21.5881 21.5882 21.3671Z" fill="black"/>
<path d="M23.6141 20.3844C23.2572 20.387 22.9073 20.2425 22.5646 19.9512L20.819 18.4684C20.4635 18.1664 20.2581 17.8436 20.2038 17.4995C20.1497 17.1562 20.2726 16.8121 20.5738 16.4677C20.8722 16.1264 21.1976 15.9568 21.5503 15.959C21.903 15.9615 22.2571 16.1135 22.6129 16.4156L24.3582 17.8983C24.6978 18.1872 24.8932 18.5069 24.9438 18.8583C24.9942 19.2094 24.8758 19.5493 24.5886 19.8782C24.2953 20.2134 23.9705 20.3819 23.6141 20.3844ZM23.6932 18.6305L21.9766 17.1722C21.8324 17.0497 21.6965 16.9658 21.5682 16.9207C21.4405 16.8749 21.3267 16.9094 21.2274 17.0233C21.1225 17.1433 21.1023 17.2611 21.1663 17.3761C21.2306 17.4914 21.3364 17.6114 21.4837 17.7368L23.2 19.1948C23.5239 19.4696 23.7683 19.5125 23.9341 19.323C24.0974 19.1359 24.0172 18.9057 23.6932 18.6305Z" fill="black"/>
<path d="M24.2653 16.2087C23.99 16.1394 23.7195 15.9268 23.4536 15.571L23.2988 15.3646C23.0278 15.0019 22.9021 14.6878 22.922 14.4223C22.9413 14.1567 23.1196 13.9012 23.457 13.6561C23.7974 13.4087 24.0992 13.3128 24.3615 13.3683C24.6237 13.4241 24.8891 13.6314 25.1576 13.9906L25.3308 14.2226C25.5968 14.5787 25.7205 14.8951 25.7023 15.173C25.6841 15.4506 25.5077 15.7106 25.1741 15.9535C24.8436 16.193 24.5404 16.2782 24.2653 16.2087ZM24.9352 15.143C24.9044 15.028 24.8123 14.8682 24.6593 14.6634L24.5273 14.4873C24.4246 14.3493 24.3401 14.2489 24.2741 14.1853C24.2084 14.1216 24.1405 14.0854 24.0705 14.0765C24.0011 14.0678 23.9217 14.0955 23.8333 14.1598C23.748 14.2217 23.6993 14.2868 23.6874 14.3549C23.6754 14.4234 23.6902 14.498 23.7323 14.5785C23.7744 14.6598 23.8469 14.7689 23.9499 14.9063L24.0856 15.0875C24.2386 15.2925 24.3657 15.4254 24.467 15.4868C24.5677 15.5485 24.6778 15.5356 24.7972 15.4487C24.9198 15.3601 24.9659 15.258 24.9352 15.143ZM25.2065 12.4002L25.6716 12.062L27.4797 17.0444L27.0146 17.3826L25.2065 12.4002ZM28.3227 16.0472C28.0485 15.9796 27.7786 15.7678 27.5124 15.4117L27.3543 15.1999C27.0858 14.8407 26.9606 14.5274 26.9791 14.2599C26.9973 13.9926 27.1751 13.7366 27.5124 13.4914C27.8497 13.2463 28.1498 13.1527 28.4135 13.2099C28.6771 13.2674 28.9431 13.4755 29.2116 13.8347L29.3811 14.0616C29.6473 14.4175 29.7711 14.7344 29.7526 15.012C29.7344 15.2897 29.5597 15.5485 29.2295 15.7889C28.899 16.0286 28.5969 16.115 28.3227 16.0472ZM28.992 14.9857C28.9596 14.8721 28.8669 14.7125 28.7136 14.5075L28.5784 14.3263C28.4729 14.1853 28.3887 14.0829 28.3256 14.0201C28.2627 13.9567 28.1967 13.9208 28.1268 13.9118C28.0571 13.9031 27.978 13.9306 27.8896 13.9951C27.8005 14.0594 27.7516 14.1253 27.7414 14.1923C27.7311 14.2593 27.7471 14.3333 27.7889 14.4141C27.8307 14.4952 27.9032 14.6045 28.0065 14.742L28.1421 14.9231C28.2952 15.1279 28.4229 15.2619 28.5253 15.325C28.6274 15.3881 28.7383 15.3763 28.8575 15.2897C28.9792 15.2008 29.0244 15.0995 28.992 14.9857Z" fill="black"/>
<path d="M32.1018 13.9808C31.7887 13.7895 31.5421 13.435 31.3617 12.9182L30.738 11.1314C30.5574 10.6149 30.5318 10.1889 30.6609 9.85373C30.79 9.51888 31.1126 9.26367 31.6285 9.08839C32.1408 8.9148 32.5535 8.92125 32.8669 9.10802C33.1807 9.29508 33.427 9.6448 33.6062 10.1577L34.2319 11.9503C34.4111 12.4633 34.4361 12.8904 34.307 13.232C34.1779 13.5733 33.8573 13.8313 33.3451 14.0049C32.8291 14.1807 32.4147 14.1723 32.1018 13.9808ZM33.3818 13.0239C33.4005 12.8918 33.3755 12.7272 33.3064 12.5298L32.5154 10.2635C32.4465 10.0663 32.3641 9.92328 32.2682 9.83466C32.1724 9.74576 32.0404 9.73005 31.8723 9.78698C31.7042 9.84419 31.61 9.93674 31.5901 10.0646C31.5699 10.1931 31.5944 10.3554 31.6632 10.5529L32.4542 12.8189C32.5245 13.02 32.607 13.1664 32.7014 13.2575C32.7961 13.3492 32.9292 13.3655 33.1013 13.3071C33.2697 13.2502 33.363 13.1557 33.3818 13.0239Z" fill="black"/>
<path d="M34.4258 8.33131L35.741 8.11817C36.288 8.02955 36.7155 8.06152 37.0241 8.21436C37.3327 8.3672 37.5272 8.68663 37.6086 9.17237C37.6626 9.49768 37.6606 9.76747 37.6023 9.98201C37.5437 10.1966 37.4063 10.3741 37.1896 10.5149L38.2975 12.84L37.2394 13.0117L36.2854 10.8391L35.9097 10.8999L36.2877 13.1659L35.2609 13.3328L34.4258 8.33131ZM36.1153 10.2451C36.3571 10.2055 36.5175 10.1194 36.596 9.98622C36.6745 9.85301 36.6933 9.66118 36.6509 9.4099C36.6099 9.16311 36.536 8.98895 36.4287 8.88799C36.3221 8.78703 36.1537 8.75478 35.9242 8.79236L35.5675 8.85013L35.8084 10.2947L36.1153 10.2451Z" fill="black"/>
<path d="M38.6172 7.79538L39.6571 7.75977L39.8351 12.8252L38.795 12.8605L38.6172 7.79538Z" fill="black"/>
<path d="M40.7481 12.4329C40.5638 12.1121 40.4978 11.6715 40.551 11.1109L40.71 9.42233C40.7641 8.8491 40.9176 8.42451 41.1711 8.14799C41.4245 7.87203 41.825 7.75873 42.3728 7.80893C42.8993 7.85716 43.2622 8.01814 43.4616 8.29214C43.661 8.56585 43.7383 8.94165 43.6931 9.41953L43.6655 9.71232L42.6544 9.61977L42.6877 9.26444C42.7096 9.03167 42.6996 8.85808 42.6572 8.74337C42.6151 8.62839 42.5011 8.56221 42.3159 8.54538C42.1262 8.52799 41.9982 8.57931 41.9316 8.6985C41.8654 8.81825 41.8207 8.99634 41.7985 9.23331L41.5872 11.476C41.565 11.713 41.5815 11.8978 41.6367 12.0308C41.6922 12.1637 41.8128 12.2386 41.9979 12.2554C42.1791 12.272 42.3128 12.2161 42.3992 12.0877C42.4857 11.9598 42.5403 11.775 42.5628 11.5338L42.6134 10.9982L42.1142 10.9522L42.1728 10.329L43.6135 10.4614L43.3694 13.053L42.6871 12.9905L42.6598 12.5353C42.4709 12.8701 42.1745 13.0188 41.7701 12.9815C41.2729 12.9366 40.9322 12.7535 40.7481 12.4329Z" fill="black"/>
<path d="M45.0626 8.25684L46.0783 8.48091L44.9568 13.4274L43.9414 13.2036L45.0626 8.25684Z" fill="black"/>
<path d="M47.3162 8.78027L48.0031 9.02258L48.1783 11.8823L49.0788 9.4023L49.8971 9.69116L48.1649 14.4632L47.5016 14.2291L47.3844 11.2103L46.4265 13.8499L45.584 13.5523L47.3162 8.78027Z" fill="black"/>
<path d="M51.842 10.624L52.8589 11.1765L51.2456 16.0868L50.4005 15.6278L50.7788 14.5618L50.0674 14.1753L49.3498 15.0573L48.4883 14.5893L51.842 10.624ZM51.0021 13.9546L51.7285 12.0201L50.4631 13.6618L51.0021 13.9546Z" fill="black"/>
<path d="M54.6222 12.2686L55.4536 12.8861L52.7882 16.3746L53.7561 17.0936L53.3286 17.6534L51.5293 16.3168L54.6222 12.2686Z" fill="black"/>
<path d="M27.5066 49.1444C27.4634 49.138 27.3971 49.1206 27.3072 49.0917C27.2176 49.0631 27.1491 49.0412 27.1019 49.0266C26.9181 48.961 26.8001 48.924 26.7477 48.9159L27.1929 48.3457C27.3428 48.3864 27.5333 48.4242 27.7646 48.4598C27.9958 48.4957 28.173 48.5028 28.297 48.4809L28.9054 48.9428L25.7696 52.9588L24.9902 52.367L27.5066 49.1444Z" fill="black"/>
<path d="M27.33 53.6434C27.2595 53.2987 27.3363 52.9325 27.561 52.5449L28.7035 50.5722C28.9362 50.1701 29.2189 49.9098 29.5503 49.7914C29.8819 49.6734 30.248 49.7267 30.6485 49.9521C31.0455 50.1757 31.2762 50.4581 31.3416 50.7999C31.4068 51.1415 31.3229 51.5134 31.0899 51.9158L29.9473 53.8879C29.7249 54.2719 29.4436 54.522 29.1037 54.6381C28.7635 54.754 28.4026 54.7043 28.0203 54.4892C27.6309 54.2705 27.4008 53.9883 27.33 53.6434ZM29.0912 53.3851L30.2147 51.4452C30.3091 51.2823 30.3666 51.1348 30.3871 51.0019C30.4078 50.8695 30.3521 50.766 30.2198 50.6917C30.0802 50.6129 29.9593 50.6157 29.8572 50.6998C29.7548 50.7839 29.6555 50.9093 29.5588 51.0756L28.4353 53.0155C28.2234 53.3817 28.228 53.6266 28.4481 53.7505C28.6651 53.8728 28.8793 53.7508 29.0912 53.3851Z" fill="black"/>
<path d="M30.7546 55.4071C30.6295 55.0778 30.6462 54.7043 30.8052 54.2861L31.615 52.1595C31.7803 51.7262 32.0169 51.425 32.3252 51.2562C32.6333 51.0874 33.0033 51.0826 33.4351 51.2425C33.8629 51.4012 34.1365 51.6438 34.256 51.9708C34.3754 52.2981 34.3527 52.6783 34.1877 53.1116L33.3782 55.2383C33.2204 55.6525 32.9829 55.943 32.6663 56.1107C32.3491 56.2787 31.9848 56.2863 31.5726 56.1337C31.1528 55.9789 30.8803 55.7366 30.7546 55.4071ZM32.4518 54.8754L33.2482 52.7838C33.3151 52.6082 33.3481 52.4531 33.3472 52.3191C33.3464 52.1853 33.2744 52.0917 33.1319 52.0389C32.9814 51.9831 32.8625 52.0047 32.7749 52.104C32.6873 52.203 32.6097 52.3424 32.5414 52.5219L31.745 54.6134C31.5948 55.0077 31.6386 55.2489 31.8761 55.337C32.1099 55.4239 32.3014 55.27 32.4518 54.8754Z" fill="black"/>
<path d="M34.7065 54.4995C34.5574 54.2608 34.5128 53.9223 34.5725 53.484L34.6072 53.2296C34.6678 52.7834 34.7989 52.4713 35.0006 52.2938C35.2017 52.1163 35.51 52.0554 35.9253 52.1104C36.3445 52.1659 36.6289 52.3033 36.778 52.5232C36.9273 52.7431 36.9723 53.074 36.912 53.5163L36.8727 53.8017C36.813 54.2398 36.6787 54.5525 36.4697 54.7393C36.2606 54.9263 35.9506 54.9925 35.5399 54.9378C35.1331 54.8843 34.8549 54.7382 34.7065 54.4995ZM35.9389 54.1924C35.9978 54.0889 36.0444 53.9108 36.0789 53.6587L36.1084 53.4417C36.1315 53.272 36.1417 53.1419 36.1392 53.051C36.1363 52.9601 36.113 52.8878 36.0695 52.8336C36.0257 52.7792 35.9492 52.745 35.8402 52.7307C35.7353 52.7167 35.6545 52.7304 35.5973 52.7714C35.5407 52.8121 35.4989 52.876 35.4722 52.9632C35.4451 53.0502 35.4204 53.1783 35.3971 53.3477L35.3669 53.5709C35.3325 53.8233 35.3299 54.0059 35.3595 54.1192C35.3891 54.2325 35.477 54.299 35.6238 54.3183C35.7751 54.338 35.88 54.2965 35.9389 54.1924ZM38.0682 52.4068L38.6407 52.4828L36.4276 57.3037L35.8553 57.228L38.0682 52.4068ZM37.7368 57.1646C37.5878 56.9279 37.5428 56.5905 37.6026 56.1525L37.6381 55.8919C37.6984 55.4494 37.8292 55.1384 38.0309 54.9589C38.2326 54.7794 38.5409 54.7171 38.9562 54.7721C39.3712 54.8271 39.6533 54.9653 39.8023 55.1872C39.9514 55.4093 39.996 55.7413 39.9357 56.1836L39.8976 56.4626C39.8379 56.901 39.7034 57.2134 39.4946 57.4004C39.2855 57.5872 38.9775 57.654 38.5708 57.6001C38.164 57.546 37.8858 57.401 37.7368 57.1646ZM38.9661 56.8603C39.023 56.7563 39.0682 56.5785 39.1026 56.3258L39.1331 56.1025C39.1567 55.9289 39.1681 55.798 39.1675 55.7093C39.1666 55.6207 39.1445 55.5498 39.1007 55.4954C39.0569 55.4412 38.9803 55.4067 38.8711 55.3924C38.7622 55.3781 38.6803 55.3913 38.6257 55.4325C38.571 55.4738 38.5301 55.538 38.5033 55.6249C38.4766 55.7119 38.4516 55.84 38.4285 56.0097L38.3984 56.2327C38.3637 56.4848 38.3611 56.6688 38.3904 56.784C38.4194 56.8993 38.5073 56.9666 38.6541 56.9865C38.8054 57.0061 38.9092 56.9643 38.9661 56.8603Z" fill="black"/>
<path d="M43.0812 57.0744C42.803 56.8363 42.6165 56.4482 42.5217 55.9098L42.1935 54.0479C42.0985 53.5097 42.1417 53.0851 42.3229 52.7744C42.5047 52.4639 42.8639 52.2625 43.4018 52.1706C43.9354 52.0789 44.3421 52.1501 44.6214 52.3837C44.901 52.6176 45.0879 53.0015 45.1823 53.5358L45.5114 55.4035C45.6055 55.9378 45.5615 56.3638 45.3791 56.6807C45.1965 56.9976 44.8387 57.2021 44.3051 57.2935C43.7673 57.3855 43.3594 57.3123 43.0812 57.0744ZM44.4991 56.3296C44.5389 56.202 44.5406 56.0357 44.5045 55.8301L44.0881 53.469C44.052 53.2635 43.9937 53.1095 43.9135 53.0066C43.833 52.9039 43.7053 52.8677 43.5301 52.8975C43.3551 52.9275 43.247 53.0043 43.2067 53.1277C43.166 53.2511 43.164 53.4155 43.2004 53.621L43.6168 55.9824C43.6538 56.1916 43.7115 56.3492 43.79 56.4541C43.8685 56.5593 43.9977 56.5966 44.1766 56.5657C44.3521 56.5357 44.4593 56.4572 44.4991 56.3296Z" fill="black"/>
<path d="M45.2246 51.8896L46.4807 51.4501C47.0029 51.2672 47.4295 51.2238 47.7606 51.3208C48.0917 51.4176 48.3406 51.6977 48.5078 52.1616C48.6196 52.472 48.6659 52.7382 48.6466 52.9595C48.6275 53.181 48.524 53.3801 48.336 53.5563L49.8446 55.6512L48.8338 56.0051L47.5043 54.0333L47.1454 54.1589L47.9244 56.3231L46.9434 56.6664L45.2246 51.8896ZM47.231 53.478C47.4622 53.397 47.6044 53.2842 47.6576 53.1395C47.7111 52.9945 47.6946 52.8024 47.6081 52.5624C47.5234 52.3268 47.419 52.1683 47.2958 52.0876C47.1724 52.0071 47.0012 52.0045 46.7816 52.0817L46.4408 52.2009L46.9375 53.5807L47.231 53.478Z" fill="black"/>
<path d="M48.418 50.6747L49.3458 50.21L51.6739 54.7288L50.746 55.1935L48.418 50.6747Z" fill="black"/>
<path d="M52.6783 53.7526C52.3293 53.6214 51.9937 53.323 51.6723 52.8577L50.7035 51.4563C50.375 50.9804 50.2188 50.5564 50.2356 50.1845C50.2524 49.8121 50.4879 49.4733 50.9421 49.1679C51.3793 48.8742 51.7633 48.7708 52.0938 48.856C52.4246 48.9421 52.7269 49.183 53.0006 49.5793L53.1687 49.8224L52.3296 50.3861L52.1259 50.0917C51.9925 49.8987 51.8722 49.7711 51.7653 49.7091C51.6586 49.6472 51.5281 49.6676 51.3745 49.7711C51.2169 49.8768 51.1515 49.9966 51.1776 50.1306C51.2035 50.265 51.2846 50.4296 51.4205 50.6265L52.7067 52.4878C52.8427 52.6844 52.9747 52.8162 53.1038 52.8841C53.2321 52.9517 53.3734 52.9334 53.527 52.8305C53.6775 52.7295 53.7446 52.6022 53.7281 52.4494C53.7119 52.2963 53.6348 52.1196 53.4966 51.9193L53.1894 51.4748L52.7753 51.7533L52.4178 51.2364L53.6135 50.433L55.1002 52.5837L54.5339 52.9643L54.2188 52.6308C54.2893 53.0072 54.1571 53.3084 53.8217 53.5339C53.4084 53.8107 53.0279 53.8839 52.6783 53.7526Z" fill="black"/>
<path d="M52.5195 48.075L53.2975 47.3936L56.7118 51.1827L55.9339 51.8644L52.5195 48.075Z" fill="black"/>
<path d="M53.6895 47.0793L54.1704 46.5383L56.9322 47.4279L54.9233 45.6913L55.4967 45.0469L59.3619 48.3881L58.8974 48.9106L56.0064 47.9094L58.1445 49.7575L57.5546 50.4211L53.6895 47.0793Z" fill="black"/>
<path d="M56.1387 44.0896L56.7548 43.1187L61.6376 44.9797L61.1259 45.786L60.0672 45.3544L59.6363 46.0333L60.4896 46.7883L59.9677 47.6106L56.1387 44.0896ZM59.4645 45.1006L57.5458 44.2786L59.138 45.6149L59.4645 45.1006Z" fill="black"/>
<path d="M57.3379 42.0956L57.7588 41.1572L61.8094 42.9252L62.3001 41.8323L62.95 42.1158L62.0381 44.1471L57.3379 42.0956Z" fill="black"/>
</svg>
