<svg width="80" height="70" viewBox="0 0 80 70" fill="none" xmlns="http://www.w3.org/2000/svg">
<path d="M20.4299 25.3753C20.6715 25.155 20.9076 25.0288 21.1374 24.9961C21.3676 24.9637 21.6304 25.0107 21.9262 25.1372C22.2596 25.2797 22.4897 25.5196 22.6157 25.8568C22.7419 26.194 22.7307 26.5378 22.5824 26.8868L21.8655 28.5716L17.168 26.5655L17.7822 25.122C17.9555 24.7153 18.2096 24.4295 18.5442 24.2652C18.8795 24.1013 19.22 24.0929 19.5659 24.2406C19.8467 24.3606 20.0529 24.5093 20.1845 24.6875C20.3164 24.8652 20.3982 25.0945 20.4299 25.3753ZM19.5867 26.396L19.6754 26.1878C19.7481 26.0161 19.7522 25.8559 19.6866 25.7069C19.6209 25.5583 19.4965 25.4448 19.3133 25.3663C18.8922 25.1865 18.5909 25.3099 18.4095 25.7365L18.3529 25.869L19.5867 26.396ZM21.5352 27.2278L21.6531 26.9292C21.7246 26.7541 21.7284 26.5961 21.6637 26.4552C21.5993 26.3143 21.4705 26.2028 21.2774 26.1202C20.8637 25.9435 20.5667 26.0672 20.3863 26.491L20.2977 26.6992L21.5352 27.2278Z" fill="#E30D16"/>
<path d="M24.8058 23.0267L23.423 25.1698L19.1348 22.3915L20.4314 20.3823L21.2587 20.9184L20.557 22.0054L21.4291 22.5704L22.0309 21.638L22.8277 22.154L22.2259 23.0862L23.1736 23.7004L23.9614 22.4791L24.8058 23.0267Z" fill="#E30D16"/>
<path d="M23.9152 18.4749C23.4671 18.4668 23.1542 18.5625 22.9766 18.7626C22.8967 18.8523 22.855 18.9586 22.8519 19.0817C22.8485 19.2048 22.8836 19.2989 22.957 19.364C23.0895 19.4822 23.3448 19.5105 23.7237 19.4494C24.1155 19.3818 24.4082 19.3466 24.6023 19.3441C24.796 19.3413 24.9917 19.375 25.1885 19.4441C25.386 19.5139 25.5701 19.6249 25.7409 19.7773C26.0774 20.0768 26.2578 20.4302 26.2827 20.8378C26.3075 21.2455 26.1698 21.6188 25.8693 21.9576C25.623 22.2353 25.2834 22.4188 24.8505 22.5083L23.9491 21.7055C24.4524 21.6974 24.8175 21.5655 25.0439 21.31C25.1453 21.1956 25.1982 21.0722 25.2031 20.9391C25.2081 20.8064 25.1643 20.6991 25.0728 20.6175C24.9363 20.4959 24.6974 20.4589 24.3566 20.5059C23.8107 20.5788 23.4288 20.605 23.2114 20.5851C22.994 20.5654 22.7971 20.5199 22.6214 20.4489C22.4457 20.3778 22.2893 20.2818 22.1527 20.1603C21.8594 19.8991 21.7083 19.58 21.6996 19.2032C21.6912 18.8268 21.8277 18.479 22.1101 18.1602C22.3241 17.9196 22.6068 17.74 22.9589 17.6226L23.9152 18.4749Z" fill="#E30D16"/>
<path d="M26.7934 15.3885L26.0249 16.0193L28.633 19.2112L27.779 19.9121L25.1761 16.7261L24.3917 17.37L23.7598 16.5965L26.167 14.6216L26.7934 15.3885Z" fill="#E30D16"/>
<path d="M34.5319 16.1122L34.1768 16.7071L33.5224 16.3154C33.3345 16.5591 33.0985 16.7439 32.8142 16.8692C32.4276 17.0396 32.0665 17.0823 31.7313 16.9969C31.3963 16.9119 31.0971 16.7292 30.8337 16.4481C30.5703 16.1677 30.319 15.7535 30.0782 15.2059C29.6923 14.3258 29.5685 13.6268 29.7075 13.1091C29.8465 12.5912 30.1644 12.2231 30.6608 12.004C31.0427 11.8358 31.4 11.7924 31.7335 11.8738C32.0669 11.9551 32.3664 12.134 32.6326 12.4107C32.8982 12.6875 33.1542 13.1057 33.3999 13.6658C33.7753 14.5206 33.9056 15.1838 33.7908 15.655L34.5319 16.1122ZM32.8043 15.1776C32.6553 14.8107 32.5421 14.5396 32.4653 14.3648C32.2413 13.8546 32.0712 13.5096 31.9549 13.3298C31.8386 13.1497 31.7045 13.0259 31.5531 12.9586C31.4016 12.8913 31.2445 12.8932 31.0822 12.9649C30.9124 13.0397 30.8073 13.1899 30.7662 13.4152C30.7251 13.6408 30.8321 14.0435 31.0865 14.6234C31.2996 15.1084 31.4616 15.4309 31.5733 15.5905C31.6849 15.7497 31.8115 15.8582 31.9527 15.9155C32.0939 15.9729 32.2367 15.9691 32.3816 15.9056C32.4562 15.8725 32.5281 15.8217 32.5959 15.7529L31.6672 15.1729L32.0292 14.5836L32.7884 15.1844L32.8043 15.1776Z" fill="#E30D16"/>
<path d="M37.8802 13.7792C37.9831 14.2488 37.9237 14.6487 37.7016 14.9784C37.4796 15.3084 37.1197 15.5281 36.6218 15.6375C36.1052 15.7513 35.6779 15.7014 35.3395 15.4883C35.0008 15.2745 34.7756 14.9117 34.6634 14.3997L33.8945 10.8946L34.9806 10.6552L35.7115 13.9883C35.7631 14.223 35.8486 14.3934 35.9684 14.5003C36.0878 14.6069 36.2302 14.6418 36.3951 14.6054C36.5493 14.5714 36.6579 14.4832 36.7204 14.3408C36.7826 14.1983 36.791 14.0232 36.7453 13.815L36.0029 10.4299L37.093 10.1899L37.8802 13.7792Z" fill="#E30D16"/>
<path d="M42.3298 15.0477L41.2509 15.0726L41.0621 14.2779L39.7176 14.3091L39.5505 15.1122L38.4707 15.1371L39.8124 9.98778L40.9324 9.96191L42.3298 15.0477ZM40.887 13.4542L40.3856 11.2269H40.3685L39.9011 13.4767L40.887 13.4542Z" fill="#E30D16"/>
<path d="M45.1018 15.5119L42.7402 15.1598L43.492 10.0986L44.5755 10.2604L43.9722 14.3246L45.2498 14.5153L45.1018 15.5119Z" fill="#E30D16"/>
<path d="M47.0504 10.7651L48.1134 11.0634L46.7369 15.9908L45.6738 15.6926L47.0504 10.7651Z" fill="#E30D16"/>
<path d="M51.811 13.5829L50.8988 13.1883L49.2675 16.9764L48.2539 16.5382L49.8817 12.7576L48.9506 12.3553L49.3459 11.4375L52.2028 12.6726L51.811 13.5829Z" fill="#E30D16"/>
<path d="M56.0871 15.1098L53.5723 16.8669L52.3323 18.7611L51.416 18.1586L52.652 16.2713L53.1101 13.1523L54.105 13.8065L53.767 15.5174L55.1706 14.5068L56.0871 15.1098Z" fill="#E30D16"/>
<path d="M29.3138 53.4289C29.4752 53.7138 29.5464 53.9721 29.5274 54.204C29.5085 54.4362 29.4049 54.683 29.2174 54.9445C29.0052 55.2393 28.7213 55.4113 28.3655 55.4606C28.0091 55.5098 27.6772 55.4235 27.3699 55.2016L25.8867 54.1317L28.8706 49.979L30.1414 50.8959C30.4997 51.1542 30.722 51.4652 30.8085 51.8289C30.895 52.1926 30.8281 52.5273 30.6085 52.8331C30.4303 53.0814 30.2397 53.2504 30.0375 53.3401C29.835 53.4299 29.5937 53.4595 29.3138 53.4289ZM27.2673 54.103L27.5323 54.2838C27.6872 54.3922 27.8402 54.4303 27.9917 54.3982C28.1428 54.3657 28.28 54.2645 28.4025 54.0937C28.6653 53.7281 28.6099 53.4105 28.237 53.1413L28.0535 53.0091L27.2673 54.103ZM28.5048 52.3809L28.688 52.5133C28.8392 52.6224 28.9944 52.6613 29.1536 52.6299C29.3131 52.5984 29.4509 52.5018 29.5672 52.34C29.8347 51.9679 29.7806 51.646 29.4052 51.3752L29.2886 51.2907L28.5048 52.3809Z" fill="#E30D16"/>
<path d="M32.0145 57.764L29.7148 56.6661L31.9115 52.0469L34.0672 53.0759L33.6436 53.9672L32.477 53.4103L32.0306 54.3496L33.0309 54.8274L32.6228 55.6853L31.6223 55.2079L31.1368 56.2285L32.4471 56.854L32.0145 57.764Z" fill="#E30D16"/>
<path d="M36.4541 55.3184C36.2697 54.9089 36.0492 54.6664 35.7929 54.5913C35.6778 54.5577 35.564 54.5655 35.4514 54.6153C35.3391 54.6649 35.2692 54.7369 35.2415 54.8313C35.1917 55.0018 35.2754 55.2455 35.4928 55.5621C35.7214 55.8878 35.8784 56.138 35.964 56.3122C36.0495 56.4868 36.103 56.6781 36.1248 56.8866C36.1465 57.0951 36.1251 57.3092 36.061 57.5295C35.9351 57.9621 35.6931 58.2769 35.3364 58.4738C34.9793 58.6711 34.5834 58.706 34.1495 58.5788C33.7934 58.4748 33.4824 58.2457 33.2168 57.8917L33.5549 56.7317C33.7782 57.1839 34.0534 57.4582 34.38 57.5538C34.5268 57.5968 34.6605 57.5919 34.7827 57.5395C34.9044 57.4868 34.9827 57.4014 35.0169 57.2836C35.0679 57.1082 34.9995 56.8757 34.811 56.5874C34.5115 56.1243 34.3246 55.7899 34.2494 55.5842C34.1744 55.3789 34.1312 55.1813 34.1197 54.9915C34.1082 54.802 34.1281 54.6191 34.1794 54.4436C34.2895 54.0659 34.5122 53.7926 34.8484 53.6237C35.1846 53.4547 35.5565 53.4298 35.9649 53.5492C36.2734 53.6396 36.5561 53.8191 36.8134 54.0877L36.4541 55.3184Z" fill="#E30D16"/>
<path d="M40.2559 55.4017L39.2694 55.2839L38.7833 59.3805L37.6876 59.2499L38.1728 55.1614L37.166 55.0411L37.2839 54.0488L40.3735 54.4169L40.2559 55.4017Z" fill="#E30D16"/>
<path d="M46.8126 58.9174L46.323 59.4076L45.7841 58.8676C45.543 59.058 45.2687 59.1792 44.9624 59.2313C44.5456 59.302 44.1851 59.2552 43.881 59.0907C43.5765 58.9261 43.3311 58.6756 43.1445 58.339C42.9573 58.0021 42.8145 57.539 42.7147 56.9494C42.5542 56.0013 42.6046 55.2933 42.8655 54.8252C43.1264 54.3571 43.5242 54.0775 44.0592 53.9869C44.4703 53.917 44.8277 53.9622 45.1312 54.1227C45.4348 54.2832 45.6817 54.5301 45.8721 54.8632C46.0624 55.1964 46.2086 55.6648 46.3106 56.2678C46.4664 57.1887 46.4313 57.8641 46.2049 58.2929L46.8126 58.9174ZM45.3645 57.5882C45.3088 57.1962 45.2656 56.9057 45.2336 56.7172C45.1409 56.1678 45.0597 55.7916 44.991 55.5887C44.9222 55.3858 44.8224 55.2328 44.6918 55.1303C44.5612 55.0278 44.4084 54.9916 44.2337 55.0209C44.0508 55.0521 43.9124 55.1717 43.8175 55.3802C43.7227 55.5887 43.7286 56.0057 43.834 56.6302C43.9223 57.1526 44.001 57.5047 44.0707 57.687C44.1404 57.8687 44.2365 58.0049 44.3596 58.095C44.4825 58.1851 44.6221 58.2165 44.7779 58.19C44.8585 58.1763 44.9403 58.1448 45.023 58.0947L44.2635 57.305L44.7586 56.8222L45.3483 57.5904L45.3645 57.5882Z" fill="#E30D16"/>
<path d="M50.7677 55.8239C50.9438 56.2711 50.9488 56.675 50.7817 57.0362C50.615 57.3974 50.2947 57.672 49.8204 57.8593C49.3284 58.0537 48.8986 58.0728 48.5309 57.916C48.1627 57.7592 47.8828 57.4367 47.6906 56.949L46.375 53.6112L47.4091 53.2017L48.6597 56.3761C48.748 56.5996 48.8597 56.7545 48.9943 56.8405C49.1296 56.9265 49.2755 56.9384 49.4326 56.876C49.58 56.8178 49.6724 56.7137 49.7119 56.5631C49.7507 56.4129 49.7308 56.2384 49.6531 56.0402L48.3829 52.8165L49.4211 52.4058L50.7677 55.8239Z" fill="#E30D16"/>
<path d="M55.6529 54.4848L54.75 55.0766L54.1712 54.5013L53.046 55.239L53.3268 56.0094L52.423 56.6015L50.8496 51.5186L51.7873 50.9043L55.6529 54.4848ZM53.5884 53.8946L51.9888 52.2684L51.9745 52.2774L52.7627 54.4356L53.5884 53.8946Z" fill="#E30D16"/>
<path d="M58.3412 51.9648L56.6094 53.6122L53.0938 49.9011L53.8884 49.145L56.7118 52.125L57.6488 51.2337L58.3412 51.9648Z" fill="#E30D16"/>
<path d="M55.1582 47.8035L55.8521 46.9434L59.8231 50.1605L59.1289 51.0206L55.1582 47.8035Z" fill="#E30D16"/>
<path d="M58.6701 44.3493L58.1607 45.2038L61.6947 47.3199L61.1287 48.2691L57.6015 46.1574L57.0815 47.0294L56.2246 46.5168L57.8207 43.8403L58.6701 44.3493Z" fill="#E30D16"/>
<path d="M59.1073 40.4287L61.3749 42.4962L63.4935 43.2878L63.1107 44.3165L60.9998 43.5277L57.8633 43.7721L58.2791 42.6548L60.0192 42.6053L58.7245 41.4584L59.1073 40.4287Z" fill="#E30D16"/>
<path d="M10.8502 33.1698C11.5901 21.0632 19.6525 10.1123 31.8993 6.30924C44.1464 2.5062 56.976 6.96962 64.4182 16.5353L68.9596 15.1251C68.489 12.8068 66.6475 10.9469 64.2394 10.5305C62.2395 10.1846 60.5626 8.82267 59.8115 6.93347C58.7494 4.26265 55.9067 2.76207 53.1079 3.3944C51.1283 3.84193 49.0588 3.22642 47.6434 1.76916C45.642 -0.29114 42.4429 -0.587516 40.0985 1.07013C38.4405 2.24255 36.2936 2.46756 34.4294 1.66413C31.7935 0.528181 28.7248 1.4812 27.1918 3.91173C26.1076 5.63078 24.2101 6.66171 22.1808 6.63428C19.3117 6.59533 16.8404 8.65282 16.3524 11.486C16.0075 13.4899 14.648 15.1703 12.7627 15.9229C10.0973 16.9872 8.59975 19.8357 9.23079 22.6402C9.67741 24.6238 9.06316 26.6975 7.60886 28.1158C5.85755 29.824 5.38854 32.4013 6.30883 34.58L10.8502 33.1698ZM32.8871 9.50175C43.3203 6.26187 54.2593 9.79906 60.9731 17.6049L62.554 17.114C55.4983 8.50978 43.6889 4.54594 32.4352 8.04075C21.1812 11.5352 13.6783 21.4964 12.7151 32.5908L14.2956 32.0999C15.4277 21.8579 22.4538 12.7419 32.8871 9.50175ZM74.6343 34.3245C74.6194 34.3029 74.606 34.2805 74.5914 34.259L70.7467 35.4529C70.5585 48.0989 62.3565 59.7446 49.6463 63.6916C36.9361 67.6386 23.5996 62.6815 16.3076 52.3582L12.4628 53.5522C12.4628 53.5783 12.4647 53.6042 12.4644 53.6304C12.4255 56.5053 14.4788 58.9817 17.3062 59.4706C19.3061 59.8163 20.983 61.1785 21.7341 63.0677C22.7962 65.7385 25.6389 67.2391 28.4377 66.6064C30.4173 66.1589 32.4868 66.7744 33.9022 68.2317C35.9036 70.292 39.1027 70.5883 41.4471 68.9307C43.1051 67.7583 45.252 67.5333 47.1165 68.3367C49.7524 69.4726 52.8211 68.5196 54.3541 66.0891C55.4383 64.37 57.3358 63.3391 59.3652 63.3665C62.2342 63.4052 64.7056 61.348 65.1935 58.5148C65.5385 56.5109 66.8979 54.8305 68.7833 54.0779C71.4486 53.0136 72.9462 50.1652 72.3151 47.3607C71.8685 45.377 72.4827 43.3033 73.937 41.885C75.9928 39.8796 76.2886 36.6736 74.6343 34.3245ZM49.1107 61.9598C60.8322 58.3197 68.485 47.6654 68.9167 36.0211L67.3691 36.5016C66.7502 47.3046 59.5651 57.1118 48.6592 60.4985C37.7529 63.8851 26.2923 59.868 19.6855 51.3092L18.1379 51.7898C25.0645 61.1489 37.3893 65.5998 49.1107 61.9598Z" fill="#E30D16"/>
<path d="M10.0646 51.9852L9.15236 50.9403C8.87369 52.0301 8.14934 52.7572 6.97931 53.1206C4.70394 53.8271 3.11 52.7051 2.19749 49.7551L0.281959 43.5611C0.072647 42.8851 -0.0200349 42.2678 0.0036021 41.7096C0.0272391 41.1511 0.126763 40.6955 0.302486 40.3424C0.478208 39.9896 0.729195 39.6736 1.05545 39.3953C1.3817 39.1167 1.69178 38.9076 1.98538 38.767C2.27897 38.6265 2.60491 38.5009 2.96351 38.3896C3.40546 38.2525 3.81507 38.1593 4.19295 38.111C4.57083 38.0627 4.91014 38.0639 5.21027 38.1147C5.51071 38.1659 5.78502 38.2431 6.0329 38.3463C6.28109 38.4494 6.50657 38.6028 6.71029 38.805C6.91338 39.0073 7.09221 39.2145 7.24585 39.4255C7.39949 39.6371 7.54878 39.9023 7.69309 40.2215C7.83771 40.5406 7.9618 40.8417 8.06537 41.124C8.16925 41.4067 8.28121 41.7423 8.40157 42.1313L5.39159 43.0659L5.0417 41.9349C4.97141 41.7074 4.8893 41.5263 4.79507 41.3917C4.70083 41.2568 4.601 41.1717 4.49494 41.1355C4.38888 41.0997 4.29682 41.0826 4.21876 41.0835C4.1407 41.0847 4.05672 41.0994 3.96715 41.1271C3.78832 41.1829 3.65054 41.2518 3.55506 41.3341C3.45927 41.4163 3.39147 41.503 3.35103 41.5943C3.31029 41.6856 3.30438 41.8299 3.33268 42.0278C3.36099 42.2257 3.398 42.4096 3.44403 42.5788C3.49006 42.7483 3.56812 43.0126 3.67915 43.3716L5.38941 48.9012C5.4541 49.1106 5.516 49.2848 5.57571 49.4238C5.6348 49.5628 5.71753 49.7077 5.82328 49.8586C5.92871 50.0094 6.05622 50.1094 6.20551 50.158C6.35449 50.207 6.52492 50.2014 6.71619 50.1422C7.03281 50.044 7.2048 49.8545 7.23248 49.5737C7.26016 49.2929 7.188 48.8741 7.01601 48.3178L6.50502 46.666L5.66311 46.9275L4.89957 44.4589L8.71601 43.2741L11.2921 51.6041L10.0646 51.9852Z" fill="#E30D16"/>
<path d="M11.6648 47.3359L8.41406 36.8243L11.4779 35.8729L14.6427 46.1061C14.6465 46.1183 14.6527 46.1392 14.6623 46.1688C14.7102 46.3246 14.7497 46.4468 14.7805 46.5356C14.8113 46.6244 14.8642 46.7425 14.9391 46.8896C15.0144 47.037 15.0909 47.1476 15.1696 47.2215C15.248 47.2957 15.3487 47.3515 15.4716 47.3886C15.5944 47.4259 15.7303 47.4213 15.8799 47.3752C16.0053 47.3362 16.1076 47.2813 16.1875 47.2109C16.2668 47.1405 16.3203 47.0532 16.3474 46.9498C16.3744 46.8463 16.3915 46.7491 16.3996 46.6581C16.4071 46.5671 16.3962 46.4524 16.367 46.314C16.3371 46.1756 16.3125 46.07 16.2936 45.997C16.2746 45.9244 16.2444 45.8222 16.2037 45.6904C16.1947 45.6605 16.1878 45.6396 16.1841 45.6277L13.0183 35.3948L16.0818 34.4434L19.3325 44.9546C19.7324 46.247 19.7268 47.3247 19.316 48.187C18.9052 49.0493 18.0449 49.6801 16.7349 50.0806C15.405 50.5 14.3274 50.4704 13.5019 49.9924C12.6771 49.5143 12.0644 48.6286 11.6648 47.3359Z" fill="#E30D16"/>
<path d="M23.7193 32.0723L29.7181 45.8823L26.6724 46.8281L25.7822 44.7432L24.1877 45.2384L24.657 47.4539L21.5932 48.4054L18.7832 33.6053L23.7193 32.0723ZM22.1931 35.4876L21.9064 35.5767L23.6064 42.5654L24.7351 42.2151L22.1931 35.4876Z" fill="#E30D16"/>
<path d="M32.0461 38.0259L34.059 44.5337L30.8699 45.5241L26.4473 31.2245L31.2848 29.7224C31.7805 29.5684 32.2253 29.5042 32.6193 29.5292C33.0134 29.5544 33.3455 29.6448 33.6164 29.8003C33.8867 29.9558 34.1364 30.1964 34.3647 30.5221C34.593 30.848 34.7812 31.1865 34.9289 31.5374C35.0769 31.8886 35.2303 32.3212 35.3892 32.8357C35.4726 33.105 35.536 33.3266 35.5798 33.4999C35.6237 33.6731 35.6573 33.8988 35.6809 34.1768C35.7046 34.4547 35.6927 34.6963 35.6449 34.9013C35.5973 35.1064 35.4959 35.3245 35.3419 35.5561C35.1877 35.7877 34.978 35.9937 34.7134 36.1741C35.0225 36.1373 35.2953 36.1626 35.532 36.2498C35.7683 36.3368 35.9618 36.4755 36.112 36.6649C36.2619 36.8544 36.3804 37.0358 36.4669 37.2091C36.553 37.3827 36.6314 37.5827 36.702 37.8102C37.4332 40.1741 37.9762 41.9729 38.3317 43.207L35.2499 44.1641L33.5259 38.5897C33.4575 38.3684 33.3807 38.1986 33.2951 38.0808C33.2099 37.9633 33.0967 37.8947 32.9568 37.876C32.8168 37.857 32.6884 37.8592 32.5711 37.8825C32.4542 37.9059 32.2791 37.9539 32.0461 38.0259ZM30.4733 32.8769L31.2975 35.543L32.0859 35.2984C32.5039 35.1684 32.578 34.6667 32.3077 33.7928C32.1282 33.2125 31.9314 32.8669 31.7174 32.7563C31.5031 32.6456 31.1451 32.6681 30.6435 32.8239L30.4733 32.8769Z" fill="#E30D16"/>
<path d="M41.5002 26.5498L47.4994 40.3598L44.4536 41.3057L43.5635 39.2211L41.9689 39.7163L42.4379 41.9318L39.3741 42.8832L36.5645 28.0828L41.5002 26.5498ZM39.9744 29.9655L39.6876 30.0546L41.3876 37.0433L42.5166 36.6927L39.9744 29.9655Z" fill="#E30D16"/>
<path d="M51.9684 23.2998L56.391 37.5994L53.3095 38.5562L49.5201 31.8916L51.7326 39.0458L48.6508 40.0025L44.2285 25.7029L47.4714 24.696L51.0381 31.0854L48.9226 24.2453L51.9684 23.2998Z" fill="#E30D16"/>
<path d="M53.1113 22.9452L60.0093 20.8032L60.8615 23.5588L58.9892 24.1403L62.5593 35.6841L59.4059 36.6633L55.8355 25.1195L53.9632 25.7008L53.1113 22.9452Z" fill="#E30D16"/>
<path d="M65.5828 34.7453L61.1602 20.4457L67.4669 18.4873L68.3247 21.261L65.2251 22.2233L66.0882 25.0148L69.0627 24.0913L69.8928 26.7753L66.9186 27.6987L67.9262 30.9572L71.232 29.9307L72.0951 32.7224L65.5828 34.7453Z" fill="#E30D16"/>
<path d="M73.4871 32.2902L69.0645 17.9906L75.3709 16.0322L76.229 18.8059L73.1294 19.7686L73.9925 22.56L76.9667 21.6366L77.7968 24.3205L74.8226 25.2439L75.8302 28.5025L79.1357 27.4759L79.999 30.2676L73.4871 32.2902Z" fill="#E30D16"/>
<path d="M36.0613 20.1113L37.1986 21.3455L38.851 21.0622L38.0315 22.5275L38.8109 24.0147L37.1669 23.6862L35.9962 24.8889L35.7997 23.2206L34.2969 22.4764L35.8196 21.7737L36.0613 20.1113Z" fill="#E30D16"/>
<path d="M41.0682 19.7065L41.8753 20.582L43.0475 20.3809L42.4662 21.4206L43.0192 22.4758L41.8526 22.243L41.0222 23.096L40.8826 21.9124L39.8164 21.3845L40.8966 20.8858L41.0682 19.7065Z" fill="#E30D16"/>
<path d="M31.7053 22.6138L32.512 23.4892L33.6845 23.2882L33.103 24.3278L33.6559 25.3831L32.4896 25.1503L31.6589 26.0032L31.5196 24.8196L30.4531 24.2917L31.5336 23.793L31.7053 22.6138Z" fill="#E30D16"/>
<path d="M44.9952 48.9926L43.8575 47.7588L42.2051 48.042L43.0249 46.5767L42.2455 45.0895L43.8895 45.4177L45.0602 44.2153L45.2567 45.8836L46.7596 46.6278L45.2368 47.3306L44.9952 48.9926Z" fill="#E30D16"/>
<path d="M39.9894 49.3978L39.1823 48.5224L38.0098 48.7231L38.5914 47.6834L38.0384 46.6285L39.205 46.8613L40.0354 46.0083L40.1747 47.1919L41.2412 47.7199L40.1607 48.2182L39.9894 49.3978Z" fill="#E30D16"/>
<path d="M49.3523 46.4905L48.5453 45.6151L47.373 45.8161L47.9546 44.7765L47.4014 43.7212L48.568 43.9541L49.3987 43.1011L49.538 44.2847L50.6042 44.8126L49.524 45.3113L49.3523 46.4905Z" fill="#E30D16"/>
</svg>
