<svg width="15" height="27" viewBox="0 0 15 27" fill="none" xmlns="http://www.w3.org/2000/svg">
<path fill-rule="evenodd" clip-rule="evenodd" d="M14.2332 9.80159L13.8111 9.39372V8.2278C13.8111 7.69201 13.445 7.23717 12.9418 7.08433C12.7811 6.44266 12.1813 5.96455 11.4686 5.96455H11.3859V5.83168C11.3859 5.02954 10.935 4.2892 10.2092 3.89967L10.1529 3.86959C9.68943 3.62075 9.40161 3.14799 9.40161 2.63589V1.83726C9.40161 0.824181 8.54858 0 7.50005 0C6.45152 0 5.5985 0.824181 5.5985 1.83726V2.63569C5.5985 3.14799 5.31067 3.62075 4.84717 3.86938L4.79067 3.89967C4.06493 4.2892 3.61422 5.02954 3.61422 5.83168V5.96455H3.5315C2.81855 5.96455 2.21902 6.44266 2.05826 7.08433C1.55511 7.23697 1.18904 7.6918 1.18904 8.2278V9.39372L0.766682 9.80159C0.173978 10.3745 -0.100414 11.1935 0.0332641 11.9923C0.238365 13.2194 0.582688 15.5313 0.582688 17.2279C0.582688 18.1423 0.481416 19.726 0.281645 21.935C0.164384 23.2328 0.619359 24.5281 1.53059 25.4886C2.4416 26.4492 3.73766 27 5.08617 27H9.91372C11.2624 27 12.5585 26.4492 13.4695 25.4886C14.3805 24.5281 14.8357 23.2328 14.7185 21.935C14.5187 19.726 14.4174 18.1423 14.4174 17.2279C14.4174 15.5311 14.7615 13.2194 14.9668 11.9923C15.1003 11.1935 14.8261 10.3745 14.2332 9.80159ZM2.01584 8.2278C2.01584 8.00759 2.20111 7.82838 2.42924 7.82838C2.65736 7.82838 2.84264 7.64957 2.84264 7.42896C2.84264 7.06187 3.15157 6.76339 3.5315 6.76339H4.85442C5.08276 6.76339 5.26782 6.58459 5.26782 6.36397C5.26782 6.14335 5.08276 5.96455 4.85442 5.96455H4.44102V5.83168C4.44102 5.31937 4.72884 4.84682 5.19213 4.59798L5.24863 4.5677C5.97437 4.17817 6.4253 3.43803 6.4253 2.63589V1.83726C6.4253 1.2646 6.90735 0.798843 7.50005 0.798843C8.09254 0.798843 8.57481 1.2646 8.57481 1.83726V2.63569C8.57481 3.43783 9.02573 4.17817 9.75148 4.5677L9.80776 4.59798C10.2713 4.84662 10.5591 5.31937 10.5591 5.83168V5.96455H6.78348C6.55514 5.96455 6.37008 6.14335 6.37008 6.36397C6.37008 6.58438 6.55514 6.76339 6.78348 6.76339H11.4684C11.8483 6.76339 12.1575 7.06187 12.1575 7.42896C12.1575 7.64957 12.3425 7.82838 12.5709 7.82838C12.7988 7.82838 12.9843 8.00759 12.9843 8.2278V9.15971H12.3229V8.70715C12.3229 8.48653 12.1376 8.30772 11.9095 8.30772C11.6812 8.30772 11.4961 8.48653 11.4961 8.70715V9.15971H10.118V8.70715C10.118 8.48653 9.93291 8.30772 9.70457 8.30772C9.47644 8.30772 9.29117 8.48653 9.29117 8.70715V9.15971H7.91324V8.70715C7.91324 8.48653 7.72818 8.30772 7.49984 8.30772C7.2715 8.30772 7.08644 8.48653 7.08644 8.70715V9.15971H5.70851V8.70715C5.70851 8.48653 5.52345 8.30772 5.29511 8.30772C5.06677 8.30772 4.88171 8.48653 4.88171 8.70715V9.15971H3.50378V8.70715C3.50378 8.48653 3.31872 8.30772 3.09038 8.30772C2.86204 8.30772 2.67698 8.48653 2.67698 8.70715V9.15971H2.01562V8.2278H2.01584ZM9.9132 26.2012C11.0472 26.2012 12.0934 25.7564 12.8594 24.9487C13.6255 24.1412 13.9928 23.0956 13.8941 22.0044C13.6924 19.7725 13.5901 18.1653 13.5901 17.2279C13.5901 16.2111 13.7082 14.99 13.8483 13.8994H3.91687C3.68853 13.8994 3.50347 13.7206 3.50347 13.5C3.50347 13.2794 3.68853 13.1006 3.91687 13.1006H13.9572C14.0255 12.6297 14.093 12.2059 14.15 11.865C14.2414 11.3187 14.0536 10.7584 13.6481 10.3664L13.2259 9.95856H1.77312L1.35076 10.3664C0.94525 10.7584 0.757632 11.3187 0.848882 11.865C0.906021 12.2059 0.973393 12.6297 1.04162 13.1006H1.9876C2.21594 13.1006 2.401 13.2794 2.401 13.5C2.401 13.7206 2.21594 13.8994 1.9876 13.8994H1.15078C1.29085 14.99 1.40897 16.2111 1.40897 17.2279C1.40897 18.1653 1.30663 19.7725 1.10473 22.0044C1.00623 23.0956 1.37357 24.1412 2.13961 24.9487C2.90544 25.7564 3.95184 26.2012 5.08565 26.2012H9.9132Z" fill="#505050"/>
</svg>
