<svg width="40" height="40" viewBox="0 0 40 40" fill="none" xmlns="http://www.w3.org/2000/svg">
<path d="M38.75 24.9995C38.06 24.9995 37.5 25.5595 37.5 26.2495V34.9995H2.5V19.9995H16.25C16.94 19.9995 17.5 19.4395 17.5 18.7495C17.5 18.0595 16.94 17.4995 16.25 17.4995H2.5V12.4995H16.25C16.94 12.4995 17.5 11.9395 17.5 11.2495C17.5 10.5595 16.94 9.99951 16.25 9.99951H2.5C1.12 9.99951 0 11.1195 0 12.4995V34.9995C0 36.3795 1.12 37.4995 2.5 37.4995H37.5C38.88 37.4995 40 36.3795 40 34.9995V26.2495C40 25.5595 39.44 24.9995 38.75 24.9995Z" fill="#00152B"/>
<path d="M11.25 24.9995H6.25C5.56 24.9995 5 25.5595 5 26.2495C5 26.9395 5.56 27.4995 6.25 27.4995H11.25C11.94 27.4995 12.5 26.9395 12.5 26.2495C12.5 25.5595 11.94 24.9995 11.25 24.9995Z" fill="#00152B"/>
<path d="M39.2425 6.34986L30.4925 2.59986C30.175 2.46736 29.8225 2.46736 29.505 2.59986L20.755 6.34986C20.2975 6.54736 20 6.99986 20 7.49986V12.4999C20 19.3774 22.5425 23.3974 29.3775 27.3349C29.57 27.4449 29.785 27.4999 30 27.4999C30.215 27.4999 30.43 27.4449 30.6225 27.3349C37.4575 23.4074 40 19.3874 40 12.4999V7.49986C40 6.99986 39.7025 6.54736 39.2425 6.34986ZM37.5 12.4999C37.5 18.2724 35.59 21.4499 30 24.7999C24.41 21.4424 22.5 18.2649 22.5 12.4999V8.32486L30 5.10986L37.5 8.32486V12.4999Z" fill="#00152B"/>
<path d="M34.5326 10.2724C33.9951 9.84738 33.2101 9.92988 32.7751 10.4674L28.8451 15.3824L27.2901 13.0574C26.9026 12.4824 26.1251 12.3299 25.5576 12.7099C24.9851 13.0924 24.8276 13.8699 25.2101 14.4424L27.7101 18.1924C27.9326 18.5249 28.2976 18.7299 28.6976 18.7499C28.7151 18.7499 28.7351 18.7499 28.7501 18.7499C29.1276 18.7499 29.4876 18.5799 29.7276 18.2799L34.7276 12.0299C35.1576 11.4899 35.0726 10.7049 34.5326 10.2724Z" fill="#00152B"/>
</svg>
