<svg width="40" height="40" viewBox="0 0 40 40" fill="none" xmlns="http://www.w3.org/2000/svg">
<path d="M10.625 16.4062C8.68641 16.4062 7.10938 17.9833 7.10938 19.9219V29.4531C7.10938 31.3917 8.68641 32.9688 10.625 32.9688C12.5636 32.9688 14.1406 31.3917 14.1406 29.4531V19.9219C14.1406 17.9833 12.5636 16.4062 10.625 16.4062Z" fill="#00152B"/>
<path d="M4.76563 19.9221C4.76563 19.584 4.81023 19.2575 4.86547 18.9351C3.45313 19.3915 2.42188 20.7034 2.42188 22.2658V27.1096C2.42188 28.672 3.45313 29.9839 4.86547 30.4404C4.81023 30.1179 4.76563 29.7914 4.76563 29.4533V19.9221Z" fill="#00152B"/>
<path d="M29.375 16.4062C27.4364 16.4062 25.8594 17.9833 25.8594 19.9219V29.4531C25.8594 31.3917 27.4364 32.9688 29.375 32.9688C29.7273 32.9688 30.0611 32.9009 30.3822 32.8041C29.9459 34.2501 28.6176 35.3125 27.0312 35.3125H23.2998C22.8144 33.9514 21.5258 32.9688 20 32.9688C18.0614 32.9688 16.4844 34.5458 16.4844 36.4844C16.4844 38.423 18.0614 40 20 40C21.5258 40 22.8144 39.0173 23.2998 37.6562H27.0312C30.262 37.6562 32.8906 35.0276 32.8906 31.7969V29.4531V19.9219C32.8906 17.9833 31.3136 16.4062 29.375 16.4062Z" fill="#00152B"/>
<path d="M35.1348 18.9351C35.19 19.2575 35.2346 19.584 35.2346 19.9221V29.4533C35.2346 29.7914 35.19 30.1179 35.1348 30.4404C36.5471 29.9839 37.5784 28.672 37.5784 27.1096V22.2658C37.5784 20.7034 36.5471 19.3915 35.1348 18.9351Z" fill="#00152B"/>
<path d="M20 0C10.3069 0 2.42188 7.885 2.42188 17.5781V17.608C3.12008 17.0795 3.92789 16.6927 4.8193 16.5195C5.36703 8.61336 11.9573 2.34375 20 2.34375C28.0427 2.34375 34.633 8.61336 35.1807 16.5194C36.072 16.6926 36.8798 17.0795 37.5781 17.608V17.5781C37.5781 7.885 29.6931 0 20 0Z" fill="#00152B"/>
</svg>
