<svg width="40" height="40" viewBox="0 0 40 40" fill="none" xmlns="http://www.w3.org/2000/svg">
<path d="M26.7153 25.6529C25.7676 25.6529 24.9966 24.9855 24.9966 24.1653C24.9966 23.345 25.7676 22.6777 26.7153 22.6777C27.6631 22.6777 28.4341 23.345 28.4341 24.1653C28.4341 24.5967 28.7839 24.9466 29.2153 24.9466C29.6467 24.9466 29.9966 24.5967 29.9966 24.1653C29.9966 22.7337 28.9299 21.5299 27.4966 21.2032V20.7969C27.4966 20.3655 27.1467 20.0156 26.7153 20.0156C26.2839 20.0156 25.9341 20.3655 25.9341 20.7969V21.2032C24.5008 21.5299 23.4341 22.7337 23.4341 24.1653C23.4341 25.8471 24.906 27.2154 26.7153 27.2154C27.6631 27.2154 28.4341 27.8827 28.4341 28.703C28.4341 29.5233 27.6631 30.1907 26.7153 30.1907C25.7676 30.1907 24.9966 29.5233 24.9966 28.703C24.9966 28.2716 24.6467 27.9218 24.2153 27.9218C23.7839 27.9218 23.4341 28.2716 23.4341 28.703C23.4341 30.1347 24.5008 31.3384 25.9341 31.6651V32.0026C25.9341 32.434 26.2839 32.7839 26.7153 32.7839C27.1467 32.7839 27.4966 32.434 27.4966 32.0026V31.6651C28.9299 31.3384 29.9966 30.1347 29.9966 28.703C29.9966 27.0212 28.5246 25.6529 26.7153 25.6529Z" fill="#00152B"/>
<path d="M35.2721 21.0061C34.2515 19.4159 32.8137 18.1434 31.1141 17.3264C30.7251 17.1394 30.2583 17.3031 30.0715 17.692C29.8845 18.0809 30.0482 18.5476 30.4371 18.7346C33.3989 20.1583 35.3126 23.2004 35.3126 26.4847C35.3126 27.89 34.9662 29.2836 34.3109 30.5152C34.1083 30.8961 34.2527 31.3692 34.6337 31.5718C34.7505 31.634 34.8762 31.6636 34.9999 31.6636C35.2794 31.6636 35.5498 31.5131 35.6903 31.2491C36.4654 29.7925 36.8751 28.145 36.8751 26.4847C36.8751 24.5347 36.3208 22.6402 35.2721 21.0061Z" fill="#00152B"/>
<path d="M27.9432 16.3282L27.8906 16.3281C27.4592 16.3281 27.1094 16.6779 27.1094 17.1094C27.1094 17.5409 27.4592 17.8906 27.8906 17.8906L27.9359 17.8907C27.9371 17.8907 27.9383 17.8907 27.9396 17.8907C28.3694 17.8907 28.7188 17.5434 28.7208 17.1131C28.7227 16.6816 28.3746 16.3302 27.9432 16.3282Z" fill="#00152B"/>
<path d="M23.0004 34.2346C20.0387 32.8108 18.125 29.7687 18.125 26.4845C18.125 25.0792 18.4714 23.6856 19.1266 22.454C19.3293 22.0731 19.1848 21.6 18.8039 21.3974C18.4231 21.1947 17.9498 21.3392 17.7473 21.7201C16.9722 23.1767 16.5625 24.8242 16.5625 26.4845C16.5625 28.4345 17.1168 30.3289 18.1655 31.963C19.186 33.5533 20.6238 34.8258 22.3234 35.6429C22.4326 35.6954 22.5479 35.7202 22.6614 35.7202C22.9523 35.7202 23.2315 35.5569 23.3661 35.2773C23.5529 34.8884 23.3893 34.4216 23.0004 34.2346Z" fill="#00152B"/>
<path d="M25.5468 35.0783L25.5016 35.0781C25.0681 35.0773 24.7188 35.4241 24.7168 35.8557C24.7148 36.2872 25.0631 36.6386 25.4945 36.6406L25.5468 36.6408C25.9782 36.6408 26.328 36.291 26.328 35.8595C26.328 35.4281 25.9782 35.0783 25.5468 35.0783Z" fill="#00152B"/>
<path d="M30.2663 13.685C30.1712 13.4584 30.0547 13.2449 29.9192 13.0469H31.9531C33.9346 13.0469 35.5468 11.4347 35.5468 9.45311C35.5468 7.47155 33.9346 5.85936 31.9531 5.85936H25.6968C26.0946 5.28108 26.3281 4.58148 26.3281 3.82812C26.3281 1.84656 24.7159 0.234375 22.7343 0.234375H3.59374C1.61218 0.234375 0 1.84656 0 3.82812C0 5.80968 1.61218 7.42186 3.59374 7.42186H9.84998C9.45225 8.00014 9.21873 8.69975 9.21873 9.45311C9.21873 10.2065 9.45217 10.9061 9.84998 11.4844H7.81249C5.83093 11.4844 4.21874 13.0965 4.21874 15.0781C4.21874 16.2161 4.75108 17.2317 5.57929 17.8906C4.75108 18.5495 4.21874 19.565 4.21874 20.7031C4.21874 21.8411 4.75108 22.8567 5.57929 23.5156C4.75108 24.1745 4.21874 25.19 4.21874 26.3281C4.21874 27.4661 4.75108 28.4817 5.57929 29.1406C4.75108 29.7995 4.21874 30.815 4.21874 31.9531C4.21874 33.9346 5.83093 35.5468 7.81249 35.5468H17.0195C19.445 38.1411 22.8954 39.7656 26.7188 39.7656C34.042 39.7656 40 33.8077 40 26.4844C40 20.3893 35.8727 15.2408 30.2663 13.685ZM31.9531 7.42186C33.0731 7.42186 33.9843 8.33311 33.9843 9.45311C33.9843 10.5731 33.0731 11.4844 31.9531 11.4844H26.9531H12.8125C11.6924 11.4844 10.7812 10.5731 10.7812 9.45311C10.7812 8.33311 11.6924 7.42186 12.8125 7.42186H31.9531ZM3.59374 5.85936C2.47367 5.85936 1.5625 4.94812 1.5625 3.82812C1.5625 2.70812 2.47367 1.79687 3.59374 1.79687H22.7343C23.8544 1.79687 24.7656 2.70812 24.7656 3.82812C24.7656 4.94812 23.8544 5.85936 22.7343 5.85936H3.59374ZM7.81249 13.0469H26.9531C27.2678 13.0469 27.5691 13.12 27.8394 13.2509C27.4699 13.2199 27.0963 13.2032 26.7188 13.2032C23.0512 13.2032 19.7262 14.6976 17.3204 17.1093H7.81249C6.69249 17.1093 5.78124 16.1981 5.78124 15.0781C5.78124 13.9581 6.69249 13.0469 7.81249 13.0469ZM7.81249 18.6718H15.9855C15.0986 19.8869 14.4129 21.2574 13.9775 22.7343H7.81249C6.69241 22.7343 5.78124 21.8232 5.78124 20.7031C5.78124 19.5831 6.69241 18.6718 7.81249 18.6718ZM7.81249 24.2968H13.6187C13.5002 25.0088 13.4376 25.7393 13.4376 26.4844C13.4376 27.1208 13.4836 27.7466 13.5705 28.3593H7.81249C6.69241 28.3593 5.78124 27.4482 5.78124 26.3281C5.78124 25.208 6.69241 24.2968 7.81249 24.2968ZM7.81249 33.9843C6.69241 33.9843 5.78124 33.0731 5.78124 31.9531C5.78124 30.833 6.69241 29.9218 7.81249 29.9218H13.8895C14.2837 31.3916 14.9241 32.7613 15.764 33.9843H7.81249ZM26.7188 38.2031C20.2571 38.2031 15 32.9461 15 26.4844C15 20.0227 20.2571 14.7657 26.7188 14.7657C33.1805 14.7657 38.4375 20.0227 38.4375 26.4844C38.4375 32.9461 33.1805 38.2031 26.7188 38.2031Z" fill="#00152B"/>
</svg>
