<svg width="51" height="16" viewBox="0 0 51 16" fill="none" xmlns="http://www.w3.org/2000/svg">
<path d="M13.3099 6.76569C12.7996 6.70199 12.2924 6.59051 11.781 6.56428C10.7799 6.51276 9.81467 6.67389 8.97238 7.19942C7.63004 8.03689 7.07671 9.24064 7.14126 10.6936C7.17098 11.3849 7.46711 11.9723 8.18849 12.2758C8.91807 12.5812 9.63842 12.4809 10.2676 12.035C10.5709 11.8205 10.8096 11.5329 11.1119 11.2444C11.0914 11.5329 11.0802 11.8074 11.0525 12.08C11.034 12.2505 11.0976 12.3161 11.2892 12.3095C11.6612 12.2983 12.0362 12.2983 12.4081 12.3095C12.61 12.3161 12.6561 12.2486 12.6694 12.0688C12.7104 11.4823 12.7412 10.8922 12.8457 10.3132C13.0414 9.22659 13.2832 8.14462 13.5097 7.05984C13.5435 6.89684 13.5158 6.79286 13.3099 6.76569ZM10.7389 10.4987C10.6313 10.6514 10.4889 10.7919 10.3362 10.909C10.0852 11.1067 9.78905 11.191 9.4632 11.072C9.1394 10.9531 9.02259 10.6842 9.00312 10.4004C8.93651 9.4842 9.28388 8.71136 10.0534 8.11932C10.4623 7.80457 10.949 7.70246 11.531 7.85047C11.324 8.76195 11.3097 9.69872 10.7389 10.4987Z" fill="#00152B"/>
<path d="M31.6029 1.00396C30.776 -0.294392 28.8793 0.0381584 28.8793 0.0381584C28.7287 0.0690717 28.575 0.102795 28.4223 0.129025C27.5001 0.286401 26.6312 0.575863 25.7991 0.96181C23.9905 1.79928 22.3715 2.88124 20.9165 4.16086C19.9492 5.01145 19.0095 5.892 18.1037 6.79973C16.5134 8.39504 15.1516 10.1468 14.0634 12.0681C13.5029 13.0564 13.0028 14.0737 12.7723 15.18C12.7292 15.3833 12.801 15.6175 12.8727 15.8236C12.9034 15.9042 13.0674 15.9669 13.1821 15.9997C13.2129 16.0072 13.3061 15.8723 13.3471 15.7927C13.6125 15.2662 13.8215 14.7098 14.1464 14.218C14.795 13.2316 15.4733 12.2583 16.1998 11.3196C17.3649 9.81049 18.7001 8.42783 20.1285 7.1201C21.478 5.88357 22.8593 4.67889 24.5623 3.84517C25.3442 3.46204 26.1373 3.09014 26.958 2.78288C28.369 2.2508 29.8395 1.89014 31.355 1.68406C31.5148 1.66345 31.7331 1.54635 31.7853 1.42457C31.8294 1.31965 31.6029 1.00396 31.6029 1.00396Z" fill="#FF4C04"/>
<path d="M7.36054 6.2319C7.24475 5.49092 6.56333 4.86235 5.58168 4.64127C4.4576 4.38741 3.33045 4.49232 2.20432 4.64783C2.05574 4.66844 2.01372 4.7593 1.98708 4.89045C1.55671 6.97101 1.11815 9.0497 0.684704 11.1293C0.605803 11.505 0.5351 11.8844 0.453125 12.2984C1.029 12.2984 1.56798 12.3022 2.10595 12.29C2.14898 12.2881 2.21251 12.1841 2.22481 12.1195C2.39901 11.3176 2.57115 10.512 2.731 9.70825C2.76174 9.55274 2.81605 9.50872 2.9964 9.52464C3.76081 9.5874 4.51294 9.53963 5.25071 9.3148C6.65453 8.89232 7.59519 7.71012 7.36054 6.2319ZM5.46282 7.3504C5.18513 7.89279 4.67996 8.1504 4.05797 8.21129C3.73725 8.24314 3.40935 8.21785 3.04148 8.21785C3.20851 7.40661 3.35504 6.68717 3.50977 5.96961C3.52206 5.91621 3.59482 5.84221 3.6481 5.83471C4.08564 5.78132 4.52523 5.75134 4.9515 5.89092C5.55197 6.08389 5.77945 6.73588 5.46282 7.3504Z" fill="#00152B"/>
<path d="M16.2545 4.60132C16.0905 3.32731 15.4901 2.24159 14.5351 1.31606C14.4244 1.2074 14.2635 1.12777 14.1098 1.07625C13.951 1.02379 13.8465 1.10623 13.8618 1.27204C13.8752 1.41723 13.8895 1.56431 13.9172 1.70857C14.1108 2.70998 14.2984 3.71326 14.5064 4.71373C14.6693 5.495 14.8476 6.27439 15.0413 7.05004C15.1048 7.30109 15.2155 7.5484 15.3466 7.77791C15.446 7.95308 15.5895 7.93903 15.7227 7.77884C15.779 7.71233 15.8405 7.64395 15.8702 7.56713C16.1571 6.84863 16.3057 6.10671 16.3231 5.34043C16.3006 5.09406 16.2862 4.84675 16.2545 4.60132Z" fill="#FF4C04"/>
<path d="M47.7604 7.81458C47.7962 7.44924 47.826 7.08297 47.8598 6.69233C47.3659 6.69233 46.9058 6.68671 46.4529 6.69983C46.3996 6.7017 46.3094 6.80381 46.3053 6.86283C46.1772 8.31388 45.8545 9.73683 45.543 11.1617C45.4641 11.5307 45.3934 11.9008 45.3145 12.3073C45.9057 12.3073 46.4601 12.3111 47.0165 12.2998C47.0585 12.2989 47.12 12.1921 47.1343 12.1293C47.3085 11.3518 47.4427 10.5631 47.6487 9.79117C47.9448 8.68203 48.4449 8.29796 49.6294 8.15557C49.6817 8.14901 49.7596 8.09843 49.7698 8.05908C49.8815 7.57758 49.9819 7.09608 50.0936 6.57524C48.9511 6.46657 48.3137 7.06798 47.7604 7.81458Z" fill="#00152B"/>
<path d="M44.1463 9.74883C44.8964 9.42846 45.2591 8.88232 45.2109 8.15914C45.1607 7.41816 44.7345 6.8917 43.9342 6.68936C42.6267 6.35961 41.4821 6.67905 40.5619 7.57366C39.7032 8.40645 39.3876 9.42565 39.5372 10.5507C39.653 11.4322 40.1613 12.0739 41.1275 12.3156C42.2024 12.5835 43.2569 12.4523 44.2764 12.0692C44.3461 12.0439 44.426 11.9352 44.424 11.8697C44.4045 11.5362 44.3604 11.1999 44.3205 10.8448C44.1955 10.8889 44.1002 10.9217 44.0059 10.9507C43.4413 11.1399 42.8613 11.2214 42.2609 11.1559C41.6184 11.0847 41.1942 10.6706 41.2536 10.1301C41.4319 10.1301 41.5999 10.1338 41.768 10.1301C42.5826 10.1132 43.3931 10.0692 44.1463 9.74883ZM43.0991 7.77788C43.3296 7.83596 43.5018 7.9465 43.5356 8.17507C43.5714 8.4205 43.4618 8.61535 43.223 8.70808C43.0027 8.79801 42.763 8.86359 42.5222 8.89263C42.1656 8.93666 41.8038 8.9404 41.4216 8.96289C41.5016 8.1938 42.3838 7.59895 43.0991 7.77788Z" fill="#00152B"/>
<path d="M32.7879 7.7423C32.7141 7.1334 32.2653 6.69593 31.6146 6.59476C30.8266 6.47672 30.1442 6.68656 29.5509 7.15963C29.389 7.28796 29.2363 7.42661 29.0601 7.57743C29.0847 7.28235 29.1103 6.99757 29.1349 6.70155C28.6082 6.70155 28.1184 6.70155 27.6091 6.70155C27.232 8.56853 26.8611 10.4196 26.481 12.3091C27.0681 12.3091 27.5979 12.3156 28.1307 12.3006C28.1901 12.2987 28.2823 12.1873 28.2967 12.1161C28.4289 11.5119 28.5488 10.902 28.6646 10.2969C28.7732 9.73762 28.8808 9.18211 29.1953 8.68282C29.4075 8.34183 29.6657 8.03644 30.1001 7.90998C30.5459 7.77977 30.882 7.97649 30.9342 8.3971C30.9506 8.51888 30.9598 8.64628 30.9383 8.76713C30.8143 9.47626 30.6801 10.1845 30.5438 10.8908C30.4547 11.3526 30.3563 11.8135 30.262 12.2697C30.3102 12.2903 30.3338 12.3072 30.3563 12.3072C30.8727 12.3109 31.3902 12.3203 31.9067 12.3072C31.9661 12.3053 32.0552 12.1976 32.0727 12.1292C32.2489 11.3339 32.4128 10.5395 32.5778 9.74136C32.7172 9.08282 32.8699 8.42333 32.7879 7.7423Z" fill="#00152B"/>
<path d="M36.4221 10.1062C37.041 10.0734 37.6487 9.9769 38.2112 9.7221C38.9295 9.39142 39.2677 8.8509 39.2144 8.14083C39.157 7.42046 38.7307 6.90055 37.9684 6.69352C36.8279 6.38252 35.7756 6.60079 34.879 7.29868C33.7907 8.14552 33.3819 9.26683 33.5356 10.5446C33.6452 11.4476 34.1863 12.0949 35.173 12.3272C36.2315 12.5774 37.2726 12.4462 38.2768 12.0706C38.3444 12.0462 38.4264 11.9376 38.4254 11.8729C38.4049 11.5376 38.3618 11.2022 38.327 10.8696C38.2829 10.8696 38.2645 10.8659 38.2512 10.8706C38.1866 10.8902 38.1231 10.9137 38.0585 10.9343C37.4827 11.1366 36.8843 11.2265 36.2674 11.1563C35.629 11.0851 35.2069 10.6804 35.2489 10.1099C35.6454 10.1099 36.0358 10.1277 36.4221 10.1062ZM37.083 7.77362C37.3269 7.82795 37.4991 7.94692 37.539 8.18205C37.579 8.41156 37.453 8.60828 37.2029 8.72725C36.8402 8.90243 35.8934 9.00641 35.4272 8.91741C35.5235 8.18954 36.3658 7.61437 37.083 7.77362Z" fill="#00152B"/>
<path d="M26.1784 8.67785C26.1302 8.00432 25.8382 7.4357 25.2367 7.02727C24.6045 6.59823 23.8851 6.51017 23.1145 6.58793C20.5405 6.84928 19.4892 9.33733 20.0364 10.9308C20.3704 11.9013 21.2773 12.439 22.8696 12.4371C23.9661 12.4081 25.0502 11.8404 25.7306 10.676C26.0933 10.0549 26.2235 9.37949 26.1784 8.67785ZM23.6351 10.7781C23.4363 11.0095 23.175 11.1678 22.8451 11.1949C22.2538 11.2455 21.8029 10.8699 21.7548 10.2966C21.7476 10.2123 21.7538 10.1252 21.7538 10.0427C21.7732 9.41134 21.9413 8.82024 22.3583 8.30595C22.5448 8.07645 22.7774 7.89752 23.0879 7.83382C23.7263 7.69893 24.2489 8.03898 24.3063 8.67036C24.378 9.44038 24.17 10.1589 23.6351 10.7781Z" fill="#00152B"/>
</svg>
