<svg width="50" height="12" viewBox="0 0 50 12" fill="none" xmlns="http://www.w3.org/2000/svg">
<path d="M38.3723 3.12939H35.6934C35.5358 3.12939 35.3782 3.27845 35.2994 3.42751L34.1963 9.98605C34.1963 10.1351 34.2751 10.2096 34.4327 10.2096H35.8509C36.0085 10.2096 36.0873 10.1351 36.0873 9.98605L36.4025 8.12283C36.4025 7.97377 36.5601 7.82472 36.7965 7.82472H37.6632C39.4754 7.82472 40.4998 7.0049 40.7361 5.36526C40.8937 4.6945 40.7361 4.09827 40.421 3.72563C39.9482 3.35298 39.2391 3.12939 38.3723 3.12939ZM38.6875 5.58885C38.5299 6.4832 37.8208 6.4832 37.1116 6.4832H36.6389L36.9541 4.76903C36.9541 4.6945 37.0329 4.61997 37.1904 4.61997H37.348C37.8208 4.61997 38.2935 4.61997 38.5299 4.91809C38.6875 4.99262 38.6875 5.2162 38.6875 5.58885Z" fill="#139AD6"/>
<path d="M19.0681 3.12939H16.3892C16.2316 3.12939 16.074 3.27845 15.9952 3.42751L14.8921 9.98605C14.8921 10.1351 14.9709 10.2096 15.1285 10.2096H16.3892C16.5468 10.2096 16.7043 10.0606 16.7831 9.91153L17.0983 8.12283C17.0983 7.97377 17.2559 7.82472 17.4923 7.82472H18.359C20.1712 7.82472 21.1956 7.0049 21.4319 5.36526C21.5895 4.6945 21.4319 4.09827 21.1168 3.72563C20.644 3.35298 20.0137 3.12939 19.0681 3.12939ZM19.3833 5.58885C19.2257 6.4832 18.5166 6.4832 17.8074 6.4832H17.4135L17.7287 4.76903C17.7287 4.6945 17.8074 4.61997 17.965 4.61997H18.1226C18.5954 4.61997 19.0681 4.61997 19.3045 4.91809C19.3833 4.99262 19.4621 5.2162 19.3833 5.58885Z" fill="#263B80"/>
<path d="M27.1838 5.5138H25.9231C25.8443 5.5138 25.6867 5.58833 25.6867 5.66286L25.6079 6.03551L25.5291 5.88645C25.214 5.5138 24.6624 5.36475 24.0321 5.36475C22.6138 5.36475 21.3531 6.40815 21.1167 7.82421C20.9592 8.5695 21.1955 9.24026 21.5895 9.68743C21.9835 10.1346 22.535 10.2837 23.2441 10.2837C24.426 10.2837 25.0564 9.6129 25.0564 9.6129L24.9776 9.98555C24.9776 10.1346 25.0564 10.2091 25.214 10.2091H26.3959C26.5534 10.2091 26.711 10.0601 26.7898 9.91102L27.499 5.73739C27.4202 5.66286 27.2626 5.5138 27.1838 5.5138ZM25.3716 7.89873C25.214 8.56949 24.6624 9.0912 23.8745 9.0912C23.4805 9.0912 23.1654 8.94214 23.0078 8.79308C22.8502 8.5695 22.7714 8.27138 22.7714 7.89873C22.8502 7.22797 23.4805 6.70627 24.1897 6.70627C24.5836 6.70627 24.82 6.85533 25.0564 7.00438C25.2928 7.22797 25.3716 7.60062 25.3716 7.89873Z" fill="#263B80"/>
<path d="M46.4094 5.51478H45.1487C45.0699 5.51478 44.9123 5.58931 44.9123 5.66384L44.8335 6.03648L44.7547 5.88743C44.4396 5.51478 43.888 5.36572 43.2577 5.36572C41.8394 5.36572 40.5787 6.40913 40.3423 7.82518C40.1847 8.57047 40.4211 9.24123 40.8151 9.68841C41.2091 10.1356 41.7606 10.2846 42.4697 10.2846C43.6516 10.2846 44.282 9.61388 44.282 9.61388L44.2032 9.98652C44.2032 10.1356 44.282 10.2101 44.4396 10.2101H45.6215C45.779 10.2101 45.9366 10.0611 46.0154 9.91199L46.7246 5.73837C46.6458 5.66384 46.567 5.51478 46.4094 5.51478ZM44.5971 7.89971C44.4396 8.57047 43.888 9.09218 43.1001 9.09218C42.7061 9.09218 42.3909 8.94312 42.2334 8.79406C42.0758 8.57047 41.997 8.27236 41.997 7.89971C42.0758 7.22895 42.7061 6.70725 43.4153 6.70725C43.8092 6.70725 44.0456 6.8563 44.282 7.00536C44.5971 7.22895 44.6759 7.60159 44.5971 7.89971Z" fill="#139AD6"/>
<path d="M34.0388 5.51611H32.6993C32.5417 5.51611 32.4629 5.59064 32.3841 5.66517L30.6507 8.19913L29.8627 5.81423C29.7839 5.66517 29.7051 5.59064 29.4688 5.59064H28.2081C28.0505 5.59064 27.9717 5.7397 27.9717 5.88875L29.39 9.83874L28.0505 11.6274C27.9717 11.7765 28.0505 12.0001 28.2081 12.0001H29.4688C29.6264 12.0001 29.7051 11.9255 29.7839 11.851L34.1176 5.96328C34.354 5.7397 34.1964 5.51611 34.0388 5.51611Z" fill="#263B80"/>
<path d="M47.9068 3.35456L46.8037 10.0621C46.8037 10.2112 46.8825 10.2857 47.0401 10.2857H48.1432C48.3008 10.2857 48.4584 10.1367 48.5372 9.9876L49.6403 3.42909C49.6403 3.28004 49.5615 3.20551 49.4039 3.20551H48.1432C48.0644 3.13098 47.9856 3.20551 47.9068 3.35456Z" fill="#139AD6"/>
<path d="M9.06124 0.894341C8.50969 0.298113 7.48537 0 6.06709 0H2.12742C1.89104 0 1.65466 0.223584 1.57587 0.44717L0 10.2104C0 10.434 0.157587 10.583 0.315174 10.583H2.75777L3.38812 6.93115V7.08021C3.46691 6.85662 3.70329 6.63304 3.93967 6.63304H5.12157C7.40658 6.63304 9.14003 5.73869 9.69159 3.27925C9.69159 3.20473 9.69159 3.1302 9.69159 3.05567C9.61279 3.05567 9.61279 3.05567 9.69159 3.05567C9.77038 2.0868 9.61279 1.49057 9.06124 0.894341Z" fill="#263B80"/>
<path d="M9.61289 3.05615C9.61289 3.13068 9.61289 3.20521 9.61289 3.27974C9.06133 5.81371 7.32788 6.63352 5.04287 6.63352H3.86097C3.62459 6.63352 3.38821 6.85711 3.30942 7.08069L2.52148 11.6269C2.52148 11.776 2.60028 11.925 2.83666 11.925H4.88529C5.12167 11.925 5.35805 11.776 5.35805 11.5524V11.4779L5.75201 9.16749V9.01843C5.75201 8.79484 5.98839 8.64579 6.22477 8.64579H6.53995C8.50978 8.64579 10.0856 7.9005 10.4796 5.66465C10.6372 4.77031 10.5584 3.95049 10.0856 3.42879C10.0069 3.27974 9.84927 3.13068 9.61289 3.05615Z" fill="#139AD6"/>
<path d="M9.06179 2.83247C8.983 2.83247 8.90421 2.75794 8.82541 2.75794C8.74662 2.75794 8.66783 2.75794 8.58903 2.68341C8.27386 2.60889 7.95869 2.60889 7.56472 2.60889H4.49178C4.41299 2.60889 4.33419 2.60889 4.2554 2.68341C4.09781 2.75794 4.01902 2.907 4.01902 3.05606L3.38867 6.93154V7.0806C3.46747 6.85701 3.70385 6.63343 3.94023 6.63343H5.12213C7.40713 6.63343 9.14059 5.73909 9.69214 3.27964C9.69214 3.20511 9.69214 3.13059 9.77093 3.05606C9.61335 2.98153 9.53455 2.907 9.37697 2.907C9.14059 2.83247 9.14059 2.83247 9.06179 2.83247Z" fill="#232C65"/>
</svg>
