<svg width="35" height="35" viewBox="0 0 35 35" fill="none" xmlns="http://www.w3.org/2000/svg">
<g clip-path="url(#clip0_1613_2022)">
<path d="M34.9912 10.4805C34.8481 8.86382 33.0909 8.16279 31.5026 8.25473C31.3622 8.1874 31.2188 8.15274 31.2033 7.97138C31.0597 6.28406 30.0233 4.78219 28.4984 4.05204C27.0142 3.34117 26.4933 3.84518 26.3005 3.28819C25.8854 2.08889 24.9731 1.12187 23.7975 0.635146C23.5359 0.526933 23.236 0.651074 23.1277 0.912687C23.0194 1.17423 23.1436 1.47413 23.4052 1.58248C24.3101 1.95709 25.0123 2.70112 25.3316 3.62363C25.5295 4.19512 26.0335 4.58286 26.6158 4.61129C27.1159 4.63577 27.6003 4.75881 28.0556 4.97681C29.2542 5.55083 30.0689 6.73161 30.1817 8.0584C30.1957 8.22329 30.2408 8.38051 30.312 8.52345C29.472 8.87851 28.8251 9.56806 28.406 10.4717C26.7255 8.54806 24.5624 7.11634 22.1333 6.31783C21.8868 4.67165 20.8452 3.31335 19.429 2.61813C19.9021 2.0264 20.5699 1.601 21.3274 1.42142C21.6028 1.35607 21.7731 1.07983 21.7079 0.804337C21.6425 0.528915 21.3667 0.358563 21.0908 0.423846C19.9954 0.683545 19.0446 1.34212 18.4252 2.255C18.1406 2.1863 17.8467 2.14221 17.5456 2.1258C16.1388 2.04869 14.7661 2.578 13.7783 3.57687C13.6156 3.74128 13.3873 3.79576 13.1965 3.71564C10.7291 2.67904 7.8985 3.66102 6.56795 5.92435C6.50137 6.03755 6.37852 6.10454 6.24577 6.09928C5.95182 6.08739 5.65357 6.09702 5.35935 6.12799C0.893746 6.59776 -1.56413 11.7731 1.10498 15.546C1.34711 15.8883 1.39305 16.3124 1.22782 16.6808C0.552288 18.1863 0.791001 19.9885 1.92317 21.2745C0.643822 22.2076 0.167491 23.421 0.649564 24.5254C1.21059 25.8103 2.92936 26.5595 4.56378 26.2304C4.98726 26.1453 5.35832 26.8455 5.92653 27.9961C7.11592 30.4044 9.01126 34.2442 15.2025 34.2437C15.9701 34.2436 16.8051 34.1837 17.7115 34.0556C18.2595 34.2645 19.3492 34.5901 20.8218 34.5901C24.4381 34.5901 27.7104 32.6419 30.2727 30.1121C31.6522 28.7502 32.6433 27.013 33.2183 24.9489C33.2944 24.6762 33.1348 24.3934 32.8621 24.3175C32.5894 24.2414 32.3067 24.401 32.2308 24.6737C31.7042 26.5634 30.8031 28.1476 29.5524 29.3826C26.9255 31.9761 24.0581 33.4186 21.2604 33.5542C19.8779 33.6212 18.8197 33.3534 18.2517 33.1594C18.2512 33.1589 18.2508 33.1583 18.2504 33.1579C18.2343 33.1193 18.2152 33.0746 18.1939 33.0255C18.6468 31.5547 20.2964 27.3743 24.5689 26.6565C24.6052 26.6512 24.6432 26.6414 24.679 26.6275C33.7811 23.3062 31.9151 17.0685 32.0923 14.5451C32.4701 16.1294 33.0329 19.2023 32.6736 22.3612C32.6416 22.6425 32.8437 22.8965 33.125 22.9285C33.4063 22.9604 33.6603 22.7584 33.6923 22.4771C34.1385 18.554 33.2618 14.8628 32.9079 13.5878C34.2102 12.9858 35.0992 11.7004 34.9912 10.4805ZM2.16325 17.1003C2.47381 16.4081 2.38898 15.5854 1.94191 14.9536C-0.398117 11.6461 2.01895 6.95289 6.20427 7.12331C6.71451 7.14477 7.19323 6.88371 7.45191 6.44361C8.52447 4.61902 10.8079 3.82399 12.7995 4.66051C13.3781 4.9036 14.0484 4.76114 14.5071 4.29752C16.5741 2.20763 20.1905 3.06445 21.0184 6.00139C11.7947 3.79774 3.02746 11.0867 3.48998 20.5372C3.27027 20.5861 3.05173 20.6565 2.83475 20.7492C1.85618 19.7688 1.62007 18.3113 2.16325 17.1003ZM4.65346 25.1954C4.55797 25.1954 4.46055 25.2054 4.36157 25.2254C3.06246 25.4868 1.91121 24.8526 1.58931 24.1152C1.05692 22.896 2.90113 21.4885 4.22259 21.4813C5.24348 21.479 6.21904 22.185 6.8189 22.9528C6.82881 22.9656 6.83729 22.9764 6.84897 22.9922C6.95363 23.1332 7.08536 23.2023 7.23295 23.2135C9.49265 23.386 10.8308 25.5103 11.3187 27.7184C11.3305 27.772 11.3514 27.8715 11.3596 27.9228C11.397 28.1597 11.5937 28.3391 11.8332 28.3544C14.2309 28.5082 16.0616 30.9357 17.0987 33.1021C6.41605 34.3517 7.66198 25.1954 4.65346 25.1954ZM23.9382 25.7367C22.1184 26.1513 20.5338 27.1752 19.2825 28.7379C19.4005 27.5413 19.4274 26.3684 19.3639 25.2233C19.3638 25.2023 19.3624 25.1813 19.3597 25.1605C19.2958 24.0668 19.1502 22.9984 18.9204 21.9603C18.9191 21.9541 18.9175 21.9479 18.9161 21.9418C18.9333 21.6641 19.0403 20.4408 19.6453 18.9708C20.5563 16.7575 22.1082 15.0578 24.2575 13.9192C24.5077 13.7866 24.6031 13.4763 24.4706 13.2261C24.3381 12.976 24.0279 12.8806 23.7777 13.0132C20.8122 14.5842 19.369 16.9303 18.6804 18.6218C18.5193 19.0175 18.3911 19.3955 18.2888 19.7461C18.2708 19.6948 18.2523 19.6437 18.2339 19.5925C18.2318 19.586 18.2294 19.5796 18.227 19.5732C17.7869 18.3573 17.2246 17.192 16.5448 16.0874C16.7058 15.3676 17.438 12.6576 19.6483 10.8094C19.8656 10.6278 19.8944 10.3045 19.7128 10.0873C19.5312 9.87014 19.2079 9.84129 18.9908 10.0229C17.1106 11.5949 16.2002 13.679 15.7919 14.9539C13.6938 12.0294 11.4648 10.6408 11.365 10.5795C11.124 10.4314 10.8082 10.5068 10.66 10.7482C10.5119 10.9895 10.5874 11.3052 10.8287 11.4532C10.8446 11.463 11.8911 12.1149 13.198 13.4527C11.2479 13.2471 9.74162 13.7424 9.66314 13.769C9.39524 13.8594 9.25161 14.1495 9.34165 14.4176C9.43154 14.6856 9.72166 14.8301 9.99031 14.7406C10.011 14.7337 12.0442 14.0729 14.3109 14.7035C14.6574 15.1307 15.0068 15.6003 15.3477 16.1147C15.7863 16.7769 16.229 17.5444 16.6355 18.4172C13.1746 16.8203 8.58955 18.6006 8.36813 18.6886C8.10515 18.7929 7.97664 19.0906 8.08089 19.3538C8.18513 19.6169 8.48291 19.7455 8.74616 19.6416C8.80201 19.6195 14.2964 17.4912 17.2983 20.0424C17.7367 21.2876 18.0807 22.6986 18.251 24.2759C17.188 23.7254 15.2876 22.9727 13.1068 23.1688C12.8248 23.1941 12.6168 23.4432 12.6421 23.7252C12.6674 24.0071 12.918 24.2155 13.1986 24.1899C15.6063 23.9739 17.6959 25.1094 18.3459 25.5081C18.4215 27.143 18.309 28.9395 17.9325 30.898C17.7865 31.1989 17.6618 31.4858 17.5562 31.7503C16.6319 30.1123 14.8758 27.7493 12.2929 27.3727C11.7027 24.851 10.1459 22.5345 7.54125 22.2142C6.79524 21.3121 5.70306 20.5653 4.51387 20.4674C3.90759 7.73246 20.078 1.64352 28.0237 11.6148C28.0163 11.6489 28.0095 11.6814 28.0037 11.7111C26.6931 12.6522 26.0096 14.1424 26.0242 16.0364C26.0317 17.0079 26.221 17.8553 26.3498 18.3219C23.7671 20.2693 23.8308 24.3323 23.9382 25.7367ZM32.1247 12.7936C28.9595 13.7913 34.9144 21.4001 24.9479 25.4264C24.8694 23.9564 24.9365 20.4077 27.2234 18.9633C27.4261 18.8353 27.5127 18.5833 27.4325 18.3575C27.4178 18.3164 26.0025 14.2249 28.7525 12.441C29.006 12.2766 28.9554 12.0894 29.0667 11.6568C29.0667 11.6567 29.0763 11.6251 29.0763 11.6251C29.5005 10.0361 30.537 9.09241 32.2197 9.30255C35.0757 9.65952 34.0164 12.1974 32.1247 12.7936Z" fill="#F96822"/>
</g>
<defs>
<clipPath id="clip0_1613_2022">
<rect width="35" height="35" fill="white"/>
</clipPath>
</defs>
</svg>
