<svg width="35" height="35" viewBox="0 0 35 35" fill="none" xmlns="http://www.w3.org/2000/svg">
<path d="M33.4044 4.90084C32.9304 3.41002 32.2879 2.34257 32.2607 2.29771C32.1553 2.12407 31.9384 2.03375 31.742 2.07881C31.6911 2.09043 30.4778 2.37361 29.0784 3.07256C27.189 4.01584 25.8692 5.27515 25.2612 6.7137C24.7551 7.91172 24.6824 9.37631 25.0415 10.9943C24.2766 10.1401 23.4163 9.39293 22.4784 8.76388C22.192 8.19811 21.4348 6.80522 20.251 5.34945C19.861 4.8702 19.111 5.47161 19.505 5.95567C20.3026 6.9368 20.9031 7.90171 21.2786 8.56461L16.9 7.71105L12.74 2.03675C13.1439 2.04236 13.5493 2.08141 13.9526 2.16052C15.2314 2.41086 16.4945 3.06215 17.7075 4.09595C18.1828 4.5011 18.8 3.7637 18.331 3.36416C16.991 2.22221 15.58 1.49963 14.1373 1.21704C11.9349 0.786057 9.36621 1.35183 6.7082 2.85386C4.72712 3.97338 3.40232 5.20305 3.34704 5.25472C3.1698 5.42034 3.14157 5.72115 3.28997 5.91462C3.48423 6.31316 4.22043 7.75091 5.44589 9.29881C6.16827 10.2114 6.93011 10.9925 7.71817 11.6344C7.49427 11.822 7.27637 12.0183 7.06549 12.2248C5.93916 13.3265 5.07679 14.626 4.51062 16.0468C4.01014 17.3021 3.74098 18.6525 3.72596 20.0444C3.70112 22.3205 4.36062 24.5157 5.63355 26.393C6.87703 28.2267 8.61539 29.6346 10.6606 30.4643C11.2329 30.696 11.5948 29.8058 11.0221 29.5735C10.2811 29.2729 9.58491 28.8878 8.94284 28.4298C9.02495 27.9743 9.21541 26.3353 8.12673 24.6386C7.97432 24.4013 8.42994 23.4692 8.70191 22.9125C8.98269 22.3387 9.27248 21.7455 9.40787 21.1869C9.55166 20.5935 9.38984 20.0955 8.94023 19.746C8.61018 19.4894 8.1782 19.3567 7.79748 19.2395C7.55015 19.1634 7.26977 19.0773 7.16963 18.9938C6.96335 18.8209 6.62649 18.1823 6.35573 17.6694C6.05532 17.1004 5.76933 16.5589 5.47733 16.2254C6.13443 14.6649 7.18986 13.284 8.51165 12.2276C9.71909 13.0501 11.0972 13.6177 12.5619 13.7326C10.8632 15.0488 10.3137 16.7297 11.0992 18.3443C12.0164 20.2296 13.9044 19.9284 15.57 19.6631C15.8582 19.617 16.1564 19.5695 16.442 19.5339C16.5492 19.5205 16.5814 19.5497 16.603 19.5687C16.9677 19.8932 16.9569 21.4427 16.9491 22.5742C16.9385 24.1393 16.9285 25.6177 17.5115 26.3768C17.8089 26.7637 18.2276 26.9616 18.7185 26.9616C19.0127 26.9616 19.3323 26.8907 19.6676 26.7469C21.1173 26.126 22.6244 24.2575 22.3945 22.7791C22.1936 21.4865 22.0606 20.6326 22.3741 19.9443C22.6638 19.3072 23.3644 18.7174 24.7441 17.9648C24.9093 18.7088 24.9926 19.4828 24.984 20.2769C24.9546 22.9874 23.8711 25.5242 21.9335 27.4198C19.7679 29.5383 16.7244 30.5845 13.7137 30.2526C13.1003 30.1861 12.9943 31.1406 13.6086 31.2083C16.904 31.5712 20.236 30.4257 22.6056 28.1071C24.727 26.0317 25.9131 23.2547 25.9453 20.2871C25.9882 16.3524 23.9692 12.8664 20.8958 10.8583C21.5309 10.4055 22.004 10.014 22.2663 9.78667C23.3868 10.5906 24.3808 11.5809 25.2077 12.7347C27.1928 15.505 27.9801 18.8822 27.4249 22.2448C26.2784 29.186 19.6988 33.901 12.7564 32.754C9.39365 32.1987 6.44865 30.3674 4.46356 27.597C2.47827 24.8269 1.691 21.4493 2.24635 18.0869C2.34609 17.4819 1.3982 17.3231 1.29806 17.9303C0.700654 21.5462 1.5476 25.1782 3.6819 28.1572C5.81659 31.1358 8.98389 33.1053 12.5998 33.7027C13.356 33.8275 14.113 33.8892 14.8649 33.8892C17.7067 33.8892 20.4713 33.0068 22.8271 31.3187C25.8065 29.184 27.7762 26.0173 28.3732 22.4014C28.8108 19.7518 28.4721 17.0936 27.4203 14.6899C27.9058 14.5467 28.7319 14.2687 29.6367 13.8169C31.5257 12.8737 32.8457 11.6143 33.4535 10.1758C34.0619 8.73684 34.0449 6.91277 33.4044 4.90084ZM5.50537 18.118C5.86306 18.7961 6.20132 19.437 6.55279 19.731C6.80173 19.939 7.1482 20.0456 7.5149 20.1583C8.45437 20.4471 8.56352 20.5889 8.4734 20.9604C8.36285 21.4172 8.09609 21.9628 7.83834 22.4901C7.34186 23.5059 6.87303 24.4648 7.31743 25.1577C7.94769 26.1399 8.05563 27.1068 8.04482 27.7082C5.18173 25.1265 4.01595 21.0487 5.0824 17.3425C5.22379 17.5848 5.37239 17.8664 5.50537 18.118ZM28.7619 8.67176L27.3959 5.36126C28.0606 4.73962 28.8318 4.27179 29.4887 3.94234C30.0483 3.66156 30.5806 3.45167 31.0076 3.30287L28.7619 8.67176ZM31.8938 3.67558C32.0846 4.08573 32.3059 4.61465 32.495 5.21246C32.7023 5.86855 32.8925 6.68166 32.9304 7.52981L29.729 8.8506L31.8938 3.67558ZM26.1466 7.08801C26.2884 6.75275 26.4716 6.44193 26.6833 6.15494L28.2384 9.92305L26.8429 13.26C26.6469 12.844 26.4159 12.2977 26.2201 11.677C25.8269 10.4343 25.4953 8.6291 26.1466 7.08801ZM29.2262 12.9472C28.6876 13.2175 28.1737 13.4222 27.7552 13.5698L29.2033 10.1077L32.8895 8.58664C32.836 8.9996 32.7341 9.40896 32.5681 9.80149C31.917 11.3426 30.3913 12.363 29.2262 12.9472ZM11.8932 12.6736C11.7234 12.6403 11.5558 12.5997 11.3906 12.5534L16.7106 8.65373L21.0911 9.50749C19.4953 10.7648 15.6119 13.4022 11.8932 12.6736ZM7.03124 9.66611C5.8935 8.43984 5.05957 7.12866 4.58072 6.28912L10.1553 7.376L7.03124 9.66611ZM8.01578 3.2528L10.3481 6.43412L4.73753 5.34044C5.44389 4.78268 6.60987 3.94534 8.01578 3.2528ZM11.7388 6.70529L8.91119 2.84826C9.75774 2.50038 10.6664 2.22661 11.5978 2.10485L15.5095 7.44008L11.7388 6.70529ZM11.4396 7.62634L15.4264 8.40339L10.3097 12.1539C9.34478 11.7083 8.4764 11.0676 7.71657 10.3554L11.4396 7.62634ZM24.4829 17.0131C22.75 17.9363 21.9014 18.6615 21.4989 19.5461C21.0665 20.496 21.2249 21.5156 21.4442 22.9267C21.5738 23.7588 20.5848 25.3083 19.2891 25.8633C18.8096 26.0686 18.4682 26.0443 18.2737 25.791C17.8918 25.2939 17.9022 23.7895 17.9104 22.5808C17.9218 20.9086 17.9318 19.4644 17.2419 18.8506C16.9938 18.6299 16.6763 18.5365 16.3236 18.5798C16.0214 18.6175 15.7148 18.6663 15.4186 18.7136C13.6516 18.9952 12.5397 19.1079 11.9637 17.9237C11.0305 16.0057 12.9196 14.585 13.7752 14.0633C13.9494 13.9571 14.111 13.832 14.2612 13.6926C16.3291 13.4454 18.2829 12.5582 20.0241 11.4469C22.1117 12.6942 23.7143 14.6681 24.4829 17.0131Z" fill="#F96822"/>
</svg>
