<svg width="35" height="35" viewBox="0 0 35 35" fill="none" xmlns="http://www.w3.org/2000/svg">
<path d="M29.6704 12.7377C28.8408 12.1441 27.8817 11.7566 26.8725 11.6074C25.8634 11.4582 24.8332 11.5515 23.8673 11.8796C22.4679 11.4023 20.9459 11.4275 19.5631 11.9507C19.6998 10.146 20.0769 7.05292 21.1217 4.90398C21.1499 4.84584 21.1661 4.78259 21.1693 4.71804C21.1724 4.65349 21.1624 4.58896 21.14 4.52836C21.1175 4.46776 21.083 4.41233 21.0386 4.36541C20.9941 4.3185 20.9406 4.28107 20.8813 4.25538L19.1942 3.52558C19.1013 3.48531 18.998 3.47559 18.8993 3.4978C18.8005 3.52001 18.7113 3.57302 18.6446 3.64917C17.1497 5.52177 16.0788 7.69639 15.5058 10.023C14.9043 8.49312 14.6308 6.58589 14.6973 4.32128C14.7309 3.91061 14.6793 3.49742 14.5457 3.10763C14.4121 2.71784 14.1994 2.35986 13.921 2.05612C13.6843 1.81342 13.4008 1.62118 13.0878 1.491C12.7748 1.36083 12.4386 1.29541 12.0996 1.2987C11.9727 1.2987 11.851 1.34912 11.7612 1.43886C11.6715 1.5286 11.6211 1.65031 11.6211 1.77722C11.6211 1.90413 11.6715 2.02584 11.7612 2.11558C11.851 2.20532 11.9727 2.25573 12.0996 2.25573C12.3105 2.25291 12.5197 2.29282 12.7147 2.37303C12.9098 2.45325 13.0865 2.57213 13.2344 2.72249C13.4202 2.93645 13.5609 3.18579 13.6479 3.45552C13.735 3.72524 13.7665 4.00978 13.7408 4.29202C13.6511 7.2971 14.1397 9.73862 15.1837 11.5655C15.1684 11.6598 15.1531 11.7539 15.1391 11.8496C13.8353 11.4281 12.4302 11.439 11.133 11.8807C10.1671 11.5525 9.13689 11.4591 8.12771 11.6083C7.11852 11.7575 6.15941 12.145 5.32984 12.7388C2.73027 14.5467 1.29883 18.0555 1.29883 22.6186C1.29883 27.1817 2.73027 30.6905 5.32957 32.4996C6.42619 33.2758 7.73512 33.6959 9.07867 33.7027C9.77843 33.7002 10.473 33.5823 11.1344 33.3538C11.7978 33.5783 12.4932 33.6937 13.1936 33.6956C14.0148 33.6952 14.8282 33.5357 15.5887 33.2258C16.1779 33.5363 16.8339 33.6986 17.5 33.6986C18.1661 33.6986 18.8221 33.5363 19.4113 33.2258C20.1718 33.5358 20.9852 33.6953 21.8064 33.6956C22.5068 33.6937 23.2022 33.5783 23.8656 33.3538C24.527 33.5823 25.2216 33.7002 25.9213 33.7027C27.2649 33.6958 28.5738 33.2758 29.6704 32.4996C32.2697 30.6905 33.7012 27.1815 33.7012 22.6186C33.7012 18.0558 32.2697 14.5467 29.6704 12.7377ZM19.1491 4.54905L20.0539 4.94034C19.0624 7.26948 18.7141 10.3454 18.5948 12.0702C18.239 11.969 17.871 11.917 17.5011 11.9157C17.0108 11.9177 16.5249 12.0077 16.0664 12.1812C16.4436 9.42049 17.5031 6.79734 19.1491 4.54905ZM5.87617 31.714C3.54156 30.0892 2.25586 26.8594 2.25586 22.6186C2.25586 18.3779 3.54102 15.1478 5.87645 13.523C6.99635 12.7258 8.37287 12.3741 9.73793 12.5362C8.07269 13.5706 5.40039 16.227 5.40039 22.6186C5.40039 28.9495 8.04781 31.6092 9.62582 32.6311C9.66383 32.6557 9.7032 32.6765 9.74148 32.7003C8.37522 32.8637 6.99711 32.512 5.87617 31.714ZM10.1445 31.828C8.72977 30.912 6.35605 28.4973 6.35605 22.6192C6.35605 16.5743 8.84297 14.1844 10.3255 13.2977C11.009 12.8812 11.7755 12.6197 12.5711 12.5317C13.3666 12.4437 14.1717 12.5313 14.9297 12.7883C12.5866 14.4521 10.9405 18.3164 10.9405 22.8076C10.9405 27.0707 12.4242 30.7673 14.5789 32.5551C13.83 32.7508 13.0484 32.7872 12.2846 32.662C11.5207 32.5368 10.7917 32.2526 10.1445 31.828ZM17.5 32.7424C14.4102 32.7424 11.8962 28.2853 11.8962 22.8076C11.8962 17.3298 14.4102 12.8728 17.5 12.8728C20.5898 12.8728 23.1038 17.3298 23.1038 22.8076C23.1038 28.2853 20.5898 32.7424 17.5 32.7424ZM20.4222 32.5556C22.5769 30.7679 24.0609 27.071 24.0609 22.8076C24.0609 18.3164 22.4148 14.4521 20.0717 12.7883C20.8292 12.5317 21.6338 12.4442 22.4288 12.5322C23.2238 12.6201 23.9899 12.8812 24.6731 13.2971C26.1557 14.1839 28.6426 16.5737 28.6426 22.6186C28.6426 28.4975 26.2689 30.9114 24.8541 31.8274C24.2073 32.2519 23.4787 32.536 22.7154 32.6614C21.952 32.7868 21.1708 32.7508 20.4222 32.5556ZM29.1238 31.714C28.0025 32.5122 26.6239 32.8641 25.2571 32.7011C25.296 32.677 25.3359 32.656 25.3742 32.6311C26.9522 31.6092 29.5996 28.9495 29.5996 22.6186C29.5996 16.2292 26.9292 13.5725 25.2637 12.5373C26.6281 12.375 28.004 12.7264 29.1236 13.523C31.4584 15.1483 32.7441 18.3779 32.7441 22.6186C32.7441 26.8594 31.4584 30.0892 29.1238 31.714Z" fill="#F96822"/>
<path d="M21.6744 25.7911C21.613 25.7769 21.5495 25.775 21.4874 25.7854C21.4253 25.7958 21.3659 25.8184 21.3125 25.8518C21.2592 25.8852 21.213 25.9289 21.1765 25.9802C21.1401 26.0316 21.1141 26.0896 21.1002 26.151C20.9431 26.8508 20.721 27.5345 20.4368 28.193C20.4115 28.2506 20.3979 28.3125 20.3966 28.3753C20.3953 28.4382 20.4064 28.5006 20.4292 28.5591C20.4521 28.6177 20.4863 28.6711 20.5298 28.7165C20.5733 28.7618 20.6253 28.7981 20.6829 28.8233C20.7432 28.85 20.8084 28.8638 20.8743 28.8638C20.9672 28.8637 21.058 28.8365 21.1357 28.7856C21.2134 28.7347 21.2746 28.6623 21.3118 28.5772C21.6204 27.8637 21.8614 27.123 22.0318 26.3645C22.0602 26.2411 22.0386 26.1115 21.9716 26.004C21.9046 25.8965 21.7977 25.82 21.6744 25.7911Z" fill="#F96822"/>
</svg>
