<svg width="35" height="35" viewBox="0 0 35 35" fill="none" xmlns="http://www.w3.org/2000/svg">
<path d="M34.7867 15.0104C34.7583 14.8547 34.6767 14.7136 34.5558 14.6113C33.4238 13.6537 33.2326 12.5977 33.079 11.7493L33.0589 11.6388C33.0059 11.3492 32.7733 11.1261 32.4818 11.0851C32.3812 11.0709 32.2747 11.0637 32.1653 11.0637C31.5147 11.0637 30.5981 11.3378 30.017 11.9501C29.9179 12.0546 29.8542 12.1878 29.8352 12.3306C29.7864 12.698 29.7612 13.0341 29.7391 13.3308C29.6553 14.4485 29.5813 14.567 29.2408 14.6748C29.0274 14.7423 28.8606 14.91 28.7942 15.1237C28.4735 16.156 28.048 17.144 27.533 18.0761C27.2786 17.5904 26.9975 17.1536 26.7359 16.7472C26.0961 15.7531 25.5906 14.9678 25.7633 13.9945C26.3229 10.8401 26.0388 8.46398 24.9188 6.93191C24.2951 6.07871 23.4066 5.49705 22.3268 5.22532C22.5417 3.54832 23.7071 2.78803 24.3522 2.61515C24.7169 2.51747 24.9333 2.14258 24.8356 1.77789C24.7378 1.41326 24.3629 1.19663 23.9984 1.29452C22.6664 1.65142 21.2436 2.96166 20.9719 5.05442C19.8809 5.05134 18.89 5.38453 18.0746 6.03599C16.5847 7.22647 15.6844 9.43871 15.3989 12.6111C15.313 13.5658 14.6954 14.1228 13.8406 14.8935C13.1428 15.5227 12.3656 16.2252 11.743 17.2871C10.9674 16.9713 10.1355 16.7664 9.2668 16.6923C9.51303 15.0823 10.6454 14.3471 11.278 14.1777C11.6427 14.08 11.8591 13.7051 11.7614 13.3405C11.6636 12.9758 11.2887 12.7592 10.9242 12.8571C10.5807 12.9491 10.2313 13.1053 9.89693 13.3212C9.74142 12.5536 9.36517 11.8336 8.79546 11.264C8.03216 10.5007 7.01723 10.0803 5.9377 10.0803C5.58435 10.0803 5.23243 10.1265 4.89166 10.2174C4.65534 10.2805 4.4707 10.4651 4.40761 10.7014C4.03621 12.0923 4.43721 13.5881 5.45412 14.6052C6.16171 15.3128 7.08586 15.725 8.07707 15.7816C7.99066 16.0644 7.92641 16.3655 7.88908 16.6847C3.48339 17.0157 0 20.706 0 25.1948C0 29.9006 3.82847 33.7291 8.53419 33.7291C10.2831 33.7291 11.949 33.2092 13.3752 32.2232C13.5998 32.3218 13.8252 32.4167 14.0516 32.506C16.109 33.3175 18.1882 33.729 20.2314 33.729C23.5178 33.729 26.568 32.6552 29.0522 30.6236C31.6487 28.5002 33.5623 25.3582 34.5861 21.5373C34.9202 20.2911 35.2149 17.3548 34.7867 15.0104ZM14.7563 15.9089C15.6758 15.0797 16.6266 14.2223 16.7606 12.7338C17.0114 9.9471 17.7406 8.053 18.9281 7.10424C19.633 6.54103 20.5043 6.32385 21.5181 6.45934C22.5193 6.59298 23.2922 7.02344 23.8152 7.73889C24.7066 8.95828 24.9091 10.9827 24.4171 13.7557C24.1507 15.257 24.8805 16.3907 25.5862 17.4872C25.9818 18.1017 26.3889 18.7353 26.6658 19.4728C24.3618 22.7998 20.8659 25.2261 17.0191 26.1146C17.0519 25.8096 17.0686 25.5023 17.0686 25.1948C17.0686 22.1112 15.4245 19.4043 12.967 17.9045C13.4784 17.0627 14.1261 16.4773 14.7563 15.9089ZM6.42072 13.6384C5.84644 13.0641 5.56903 12.2587 5.65284 11.4625C5.74731 11.4525 5.84227 11.4474 5.93756 11.4474C6.65185 11.4474 7.32348 11.7255 7.82852 12.2306C8.40287 12.8049 8.68034 13.6103 8.59647 14.4065C8.50206 14.4165 8.40704 14.4216 8.31195 14.4216H8.31182C7.59732 14.4216 6.92576 14.1435 6.42072 13.6384ZM8.53419 32.3619C4.58227 32.3619 1.36719 29.1468 1.36719 25.1948C1.36719 21.2428 4.58227 18.0277 8.53419 18.0277C12.4862 18.0277 15.7013 21.2428 15.7013 25.1948C15.7013 25.5888 15.6691 25.9822 15.6055 26.3691C15.1657 26.4259 14.723 26.4619 14.2782 26.4771C14.3718 26.0578 14.4208 25.6294 14.4208 25.1948C14.4208 24.4249 14.2726 23.6734 13.9805 22.9612C13.8373 22.612 13.4382 22.4448 13.0886 22.5881C12.7394 22.7314 12.5723 23.1307 12.7156 23.48C12.9399 24.0268 13.0536 24.6037 13.0536 25.1948C13.0536 25.6246 12.9927 26.0469 12.8736 26.4558C11.8952 26.3928 10.9154 26.2311 9.95005 25.9725C9.75345 25.9197 9.54345 25.9575 9.3774 26.0753C8.76982 26.5067 8.15746 27.0492 7.79434 28.0895C7.70075 28.3576 7.78265 28.6557 8.0001 28.8384C9.25586 29.8932 10.5679 30.7874 11.9193 31.5133C10.8849 32.0705 9.73301 32.3619 8.53419 32.3619ZM33.2655 21.1835C31.3899 28.1831 26.5174 32.3619 20.2314 32.3619C16.5618 32.3619 12.6882 30.8573 9.27397 28.1155C9.45492 27.7906 9.67866 27.567 9.91908 27.3761C11.2027 27.6929 12.5081 27.8532 13.8044 27.8532C17.4732 27.8532 21.0107 26.603 24.0345 24.2377C25.5719 23.0352 26.9043 21.5862 27.9716 19.9795C27.9843 19.9622 27.9962 19.9445 28.0072 19.9261C28.8498 18.6479 29.5246 17.2706 30.0005 15.8385C30.9586 15.3564 31.0317 14.38 31.1026 13.4328C31.1188 13.2163 31.1354 12.9943 31.1607 12.76C31.3426 12.6284 31.5835 12.5241 31.8251 12.4705C32.0073 13.3397 32.3615 14.4554 33.4809 15.4856C33.7976 17.4997 33.5677 20.0558 33.2655 21.1835Z" fill="#F96822"/>
<path d="M22.0458 7.86598C21.6978 7.72024 21.297 7.88396 21.151 8.23212C21.005 8.58027 21.1689 8.98086 21.5171 9.12687C22.0144 9.33537 22.289 10.8359 21.8516 13.3005C21.7857 13.6722 22.0336 14.0271 22.4054 14.093C22.4458 14.1002 22.486 14.1037 22.5256 14.1037C22.8508 14.1037 23.1391 13.8707 23.1979 13.5395C23.5891 11.3356 23.7067 8.56229 22.0458 7.86598Z" fill="#F96822"/>
<path d="M26.5643 27.4321C26.3378 27.13 25.9086 27.0694 25.6066 27.296C25.6063 27.2961 25.6034 27.2983 25.6032 27.2984C25.2987 27.5214 25.2338 27.9479 25.4565 28.2525C25.5901 28.4353 25.798 28.5321 26.0088 28.5321C26.1492 28.5321 26.2909 28.4891 26.4127 28.4001L26.4284 28.3886C26.7304 28.162 26.7908 27.7342 26.5643 27.4321Z" fill="#F96822"/>
<path d="M24.9968 28.5374C24.8247 28.2014 24.4129 28.0683 24.0768 28.2402C21.7371 29.437 19.763 29.3896 19.7339 29.3883C19.3581 29.3753 19.0407 29.6681 19.0259 30.0448C19.0112 30.422 19.305 30.7398 19.6822 30.7546C19.6927 30.755 19.7295 30.7562 19.7905 30.7562C20.2791 30.7562 22.3153 30.6769 24.6994 29.4573C25.0355 29.2855 25.1686 28.8735 24.9968 28.5374Z" fill="#F96822"/>
<path d="M12.7175 21.0535L12.695 21.0309C12.4273 20.7648 11.9946 20.7658 11.7282 21.0335C11.462 21.3012 11.4631 21.7341 11.7308 22.0003L11.7455 22.015C11.8792 22.1502 12.0553 22.2178 12.2315 22.2178C12.4052 22.2178 12.579 22.152 12.7123 22.0202C12.9806 21.7548 12.983 21.3219 12.7175 21.0535Z" fill="#F96822"/>
</svg>
