<svg width="23" height="23" viewBox="0 0 23 23" fill="none" xmlns="http://www.w3.org/2000/svg">
<path fill-rule="evenodd" clip-rule="evenodd" d="M22.9417 5.92967L21.0833 2.95678V1.1499C21.0833 0.514829 20.5685 0 19.9333 0H13.4167C12.7815 0 12.2667 0.514829 12.2667 1.1499V2.95678L10.4083 5.92967C10.3744 5.99093 10.3547 6.05907 10.3508 6.12898L10.35 6.13282V8.11525C10.062 8.21515 9.82583 8.42602 9.69412 8.70094L6.14944 16.0726C5.53802 14.754 4.59119 13.7988 3.45001 13.7988C1.41834 13.7988 5.95459e-06 16.8288 5.95459e-06 19.5484C-0.00187478 20.9834 0.886024 22.2693 2.22869 22.776C3.57135 23.2828 5.08755 22.9043 6.03444 21.8259C7.4688 22.6271 9.09072 23.0317 10.7333 22.9981H12.7995C16.046 22.9981 17.9546 21.6703 18.8063 20.8765C19.0365 20.6603 19.1669 20.3586 19.1667 20.0428C19.1676 19.8726 19.1297 19.7044 19.0559 19.551L13.8383 8.70094C13.6478 8.3006 13.2429 8.04661 12.7995 8.04932H11.1167V6.51612H18.4V16.3286C18.4 16.5403 18.5716 16.7119 18.7833 16.7119C18.995 16.7119 19.1667 16.5403 19.1667 16.3286V6.51612H22.2333V21.8482C22.2333 22.0599 22.0617 22.2315 21.85 22.2315H18.7833C18.5716 22.2315 18.4 22.4031 18.4 22.6148C18.4 22.8265 18.5716 22.9981 18.7833 22.9981H21.85C22.4851 22.9981 23 22.4832 23 21.8482V6.13282V6.12898C22.9958 6.05901 22.9759 5.99087 22.9417 5.92967ZM13.0333 1.1499C13.0333 0.938211 13.205 0.766601 13.4167 0.766601H19.9333C20.145 0.766601 20.3167 0.938211 20.3167 1.1499V2.68311H13.0333V1.1499ZM0.766672 19.5484C0.768362 21.0295 1.96874 22.2298 3.45001 22.2315C4.93127 22.2298 6.13165 21.0295 6.13334 19.5484C6.13334 16.9871 4.83001 14.5654 3.45001 14.5654C2.07001 14.5654 0.766672 16.9871 0.766672 19.5484ZM6.52396 17.0626L10.3849 9.03249C10.4556 8.9066 10.5888 8.82868 10.7331 8.82868C10.8775 8.82868 11.0107 8.9066 11.0814 9.03249L16.2982 19.8814C16.3684 20.0298 16.3346 20.2064 16.2146 20.3184C15.4483 21.0329 13.7172 22.2315 10.7333 22.2315C9.2493 22.263 7.78271 21.9069 6.47834 21.1985C6.75542 20.6926 6.90045 20.1251 6.90001 19.5484C6.89653 18.7059 6.76983 17.8685 6.52396 17.0626ZM18.2804 20.3184C18.399 20.2069 18.4332 20.0322 18.3655 19.8841L13.148 9.03172C13.0832 8.89853 12.9476 8.81451 12.7995 8.81592L11.8285 8.81591L16.9897 19.551C17.2049 20.001 17.1029 20.5385 16.7379 20.8784C16.2956 21.2857 15.804 21.6359 15.2747 21.921C16.3926 21.6407 17.4247 21.0904 18.2804 20.3184ZM11.4253 5.74952L12.8628 3.44971H20.01L18.5725 5.74952H11.4253ZM20.7 3.78931L19.4753 5.74952H21.9267L20.7 3.78931Z" fill="#505050"/>
<path fill-rule="evenodd" clip-rule="evenodd" d="M10.3501 19.74C10.3501 20.4809 9.7494 21.0816 9.00841 21.0816C8.26743 21.0816 7.66675 20.4809 7.66675 19.74C7.66675 18.9991 8.26743 18.3985 9.00841 18.3985C9.7494 18.3985 10.3501 18.9991 10.3501 19.74ZM9.58341 19.74C9.58341 19.4225 9.32598 19.1651 9.00841 19.1651C8.69085 19.1651 8.43341 19.4225 8.43341 19.74C8.43341 20.0575 8.69085 20.315 9.00841 20.315C9.32598 20.315 9.58341 20.0575 9.58341 19.74Z" fill="#505050"/>
<path fill-rule="evenodd" clip-rule="evenodd" d="M11.1167 14.9487C11.1167 15.5838 10.6018 16.0986 9.96665 16.0986C9.33152 16.0986 8.81665 15.5838 8.81665 14.9487C8.81665 14.3137 9.33152 13.7988 9.96665 13.7988C10.6018 13.7988 11.1167 14.3137 11.1167 14.9487ZM10.35 14.9487C10.35 14.737 10.1784 14.5654 9.96665 14.5654C9.75494 14.5654 9.58332 14.737 9.58332 14.9487C9.58332 15.1604 9.75494 15.332 9.96665 15.332C10.1784 15.332 10.35 15.1604 10.35 14.9487Z" fill="#505050"/>
<path fill-rule="evenodd" clip-rule="evenodd" d="M14.5667 18.5901C14.5667 19.5427 13.7944 20.315 12.8417 20.315C11.8894 20.3139 11.1178 19.5423 11.1167 18.5901C11.1167 17.6375 11.889 16.8652 12.8417 16.8652C13.7944 16.8652 14.5667 17.6375 14.5667 18.5901ZM13.8 18.5901C13.8 18.0609 13.371 17.6318 12.8417 17.6318C12.3124 17.6318 11.8834 18.0609 11.8834 18.5901C11.8834 19.1193 12.3124 19.5484 12.8417 19.5484C13.371 19.5484 13.8 19.1193 13.8 18.5901Z" fill="#505050"/>
<ellipse cx="12.2666" cy="14.9487" rx="0.383333" ry="0.383301" fill="#505050"/>
<ellipse cx="8.81668" cy="16.8652" rx="0.383333" ry="0.383301" fill="#505050"/>
<ellipse cx="11.1167" cy="13.0322" rx="0.383333" ry="0.383301" fill="#505050"/>
<path d="M2.70672 15.792C1.90703 16.878 1.49395 18.2003 1.53334 19.5484C1.53334 19.76 1.70496 19.9317 1.91667 19.9317C2.12838 19.9317 2.30001 19.76 2.30001 19.5484C2.25817 18.3826 2.60618 17.2361 3.28901 16.2903C3.38227 16.1868 3.41206 16.0409 3.36682 15.9092C3.32158 15.7774 3.20843 15.6806 3.07127 15.6563C2.93412 15.6319 2.79455 15.6839 2.70672 15.792Z" fill="#505050"/>
<path d="M17.25 9.96583C17.4617 9.96583 17.6333 9.79422 17.6333 9.58253V7.66602C17.6333 7.45433 17.4617 7.28272 17.25 7.28272H14.5667C14.355 7.28272 14.1833 7.45433 14.1833 7.66602C14.1833 7.87771 14.355 8.04932 14.5667 8.04932H16.8667V9.58253C16.8667 9.79422 17.0383 9.96583 17.25 9.96583Z" fill="#505050"/>
</svg>
