<svg width="25" height="25" viewBox="0 0 25 25" fill="none" xmlns="http://www.w3.org/2000/svg">
<path d="M21.493 14.3274C22.3121 14.3254 22.9896 13.6891 23.0429 12.8717C23.0492 12.774 23.0163 12.6778 22.9517 12.6043C22.887 12.5308 22.7957 12.486 22.698 12.4798C22.6 12.4723 22.5031 12.5047 22.4293 12.5696C22.3556 12.6346 22.3111 12.7265 22.306 12.8247C22.2785 13.2539 21.923 13.5883 21.493 13.5897C21.2891 13.5897 21.1238 13.755 21.1238 13.9589C21.1238 14.1628 21.2891 14.3281 21.493 14.3281V14.3274Z" fill="#505050"/>
<path d="M11.2088 11.4318H12.9908C13.1947 11.4318 13.36 11.2666 13.36 11.0626C13.36 10.8587 13.1947 10.6935 12.9908 10.6935H11.2088C11.0049 10.6935 10.8396 10.8587 10.8396 11.0626C10.8396 11.2666 11.0049 11.4318 11.2088 11.4318Z" fill="#505050"/>
<path d="M11.4847 14.9854H10.5142C10.3103 14.9854 10.145 15.1507 10.145 15.3546C10.145 15.5585 10.3103 15.7238 10.5142 15.7238H11.4847C11.6886 15.7238 11.8538 15.5585 11.8538 15.3546C11.8538 15.1507 11.6886 14.9854 11.4847 14.9854Z" fill="#505050"/>
<path fill-rule="evenodd" clip-rule="evenodd" d="M20.5143 16.28H24.6303C24.8342 16.28 24.9995 16.4453 24.9995 16.6492V24.6308C24.9995 24.8347 24.8342 25 24.6303 25H0.369191C0.165292 25 0 24.8347 0 24.6308V16.6487C0 16.4448 0.165292 16.2795 0.369191 16.2795H1.27803C1.25359 16.2375 1.2314 16.1942 1.21158 16.1498C1.03952 15.7001 1.04761 15.2013 1.23415 14.7574C0.543533 13.963 0.48609 12.7992 1.09512 11.9407C0.780988 11.5734 0.616781 11.1011 0.635219 10.6181C0.65369 10.0136 0.978937 9.46024 1.49807 9.15C1.49575 8.66624 1.5871 7.87236 2.13561 7.35823C2.4424 7.07825 2.84282 6.92315 3.25816 6.92342C3.34461 6.25047 3.65904 5.62747 4.14907 5.15823C4.77605 4.56058 5.64922 4.29556 6.50261 4.44388C7.37616 4.53659 8.15256 5.04182 8.59117 5.80295C8.60447 5.79833 8.61775 5.7935 8.63107 5.78865L8.6311 5.78864C8.66638 5.77581 8.70195 5.76287 8.73885 5.75338C8.79956 5.73777 8.86094 5.72465 8.92236 5.71152L8.92239 5.71151C8.95891 5.7037 8.99546 5.69589 9.03188 5.68755L9.02929 5.68165C8.99323 5.59966 8.95728 5.51788 8.92534 5.43671C8.66387 4.81288 8.5085 4.14974 8.46565 3.47468C8.43611 2.57996 8.76121 2.2597 9.03905 2.14873C9.37386 2.01582 9.75106 2.13523 10.1388 2.48439C10.2582 1.4519 10.5728 0 11.3869 0C12.201 0 12.5137 1.45042 12.6329 2.48418C13.0208 2.1346 13.3987 2.01498 13.7339 2.14831C14.5818 2.48903 14.3868 4.09283 13.8478 5.43945C13.82 5.51076 13.7886 5.58271 13.7568 5.6557L13.7423 5.68882C13.7776 5.69679 13.8129 5.70427 13.8481 5.71174L13.8481 5.71174C13.9117 5.72524 13.9751 5.73869 14.0377 5.75485C14.3739 5.84238 14.681 6.01703 14.9282 6.26118C15.3536 5.93058 15.8713 5.74038 16.4096 5.71688C16.949 4.8014 17.9572 4.26682 19.0177 4.33396C20.0782 4.40111 21.0109 5.05859 21.4306 6.03481C22.5087 6.21881 23.3562 7.05824 23.5506 8.1346C24.2957 8.50334 24.8201 9.20567 24.9618 10.0249C25.1036 10.8441 24.8458 11.6818 24.2678 12.2795C24.3079 12.5012 24.321 12.7269 24.3067 12.9517C24.21 14.4355 22.9799 15.5905 21.493 15.5937C21.4329 15.5937 21.3721 15.5916 21.3112 15.5878C21.215 15.5816 21.1202 15.569 21.0264 15.5536C20.8327 15.7787 20.6612 16.0219 20.5143 16.28ZM24.2609 19.6787H0.738171V21.6011H24.2609V19.6787ZM19.6846 16.28H18.7732C18.9094 15.9403 19.0711 15.6115 19.2572 15.2964C19.4598 15.2388 19.6553 15.1587 19.8401 15.0576C19.9751 15.155 20.1184 15.2403 20.2684 15.3124C20.0396 15.613 19.8439 15.9374 19.6846 16.28ZM15.252 15.1992C14.8734 15.1676 14.5053 15.0588 14.1704 14.8795L13.8989 16.28H15.7794C15.652 15.898 15.4747 15.5346 15.252 15.1992ZM16.5503 16.28C16.4406 15.8864 16.2854 15.5069 16.0881 15.1492C16.3518 15.0923 16.6059 14.9975 16.8425 14.8677C16.8597 14.8802 16.8773 14.8918 16.8951 14.9035C16.9052 14.9101 16.9153 14.9168 16.9254 14.9236C17.1308 15.3584 17.2918 15.8128 17.406 16.28H16.5503ZM18.3129 15.3979C18.1722 15.3889 18.0325 15.3692 17.8948 15.3392H17.8946C17.9655 15.538 18.0337 15.757 18.095 15.9916C18.1756 15.7903 18.2657 15.5932 18.363 15.3994C18.3464 15.3979 18.3297 15.3979 18.3129 15.3979ZM16.6123 6.45527C16.7602 6.46066 16.8975 6.37884 16.9632 6.2462C17.3306 5.48216 18.1247 5.0173 18.9708 5.07093C19.8169 5.12457 20.5459 5.68597 20.8139 6.49029C20.8608 6.63096 20.9874 6.72987 21.1352 6.74135C22.0384 6.81136 22.7602 7.52127 22.8451 8.4232C22.8584 8.56137 22.9481 8.68042 23.0772 8.73143C23.6847 8.97004 24.1236 9.50864 24.2345 10.1519C24.3455 10.7952 24.1125 11.4497 23.62 11.8781C23.5139 11.9706 23.4697 12.1155 23.5061 12.2515C23.5626 12.4646 23.5839 12.6855 23.5693 12.9055C23.5199 13.6995 23.022 14.3957 22.2867 14.6991C21.5513 15.0025 20.7073 14.8598 20.1125 14.3316C19.9861 14.2199 19.8001 14.2082 19.6608 14.3032C18.876 14.8418 17.825 14.7751 17.1146 14.1416C16.9882 14.0299 16.8021 14.0182 16.6627 14.1133C15.9558 14.5958 15.0249 14.594 14.3197 14.1089L15.4925 8.06455C15.57 7.66053 15.5202 7.24242 15.3499 6.86793C15.705 6.57879 16.1548 6.43175 16.6121 6.45527H16.6123ZM13.1624 5.16625C13.6896 3.84958 13.609 2.93418 13.459 2.83312C13.3955 2.82047 13.0972 2.97321 12.7054 3.52785C12.7086 3.64135 12.7118 3.75506 12.7118 3.8711C12.7133 4.41309 12.6781 4.95456 12.6063 5.49177C12.7369 5.50675 12.8666 5.52616 12.9964 5.54599C13.0569 5.41709 13.1134 5.2903 13.1624 5.16625ZM11.3873 0.758234C11.5753 0.941778 11.909 1.846 11.9662 3.42828C11.9723 3.573 11.9742 3.72195 11.9742 3.87131C11.976 4.39418 11.9407 4.91651 11.8687 5.43439C11.5481 5.42033 11.2273 5.42033 10.9063 5.43439C10.8344 4.9165 10.7992 4.39417 10.8008 3.87131C10.8008 3.72258 10.8029 3.57363 10.8091 3.42659C10.8637 1.8441 11.1987 0.940723 11.3873 0.758234ZM9.31078 2.83523C9.16521 2.93291 9.08483 3.8462 9.61225 5.16434C9.66204 5.29008 9.71857 5.41708 9.77828 5.5462C9.90739 5.52637 10.0365 5.50696 10.1662 5.49219C10.0944 4.9549 10.0592 4.41336 10.0608 3.8713C10.0608 3.7559 10.0639 3.64198 10.0671 3.52827C9.6768 2.97447 9.37744 2.82341 9.31078 2.83523ZM13.8527 6.46899C14.493 6.63738 14.8934 7.27313 14.7687 7.92342L14.7512 8.01456H13.036C12.8321 8.01456 12.6668 8.17986 12.6668 8.38376C12.6668 8.58766 12.8321 8.75296 13.036 8.75296H14.6071L13.585 14.0215H12.6502C12.4463 14.0215 12.281 14.1868 12.281 14.3907C12.281 14.5946 12.4463 14.7599 12.6502 14.7599H13.4417L13.1464 16.2789H9.62681L9.04939 13.304H10.4055C10.6094 13.304 10.7747 13.1387 10.7747 12.9348C10.7747 12.7309 10.6094 12.5656 10.4055 12.5656H8.90615L8.34919 9.6941H9.47196C9.67585 9.6941 9.84115 9.5288 9.84115 9.3249C9.84115 9.121 9.67585 8.9557 9.47196 8.9557H8.20616L8.00616 7.92195C7.98869 7.83412 7.98161 7.74455 7.98507 7.65507C7.99413 7.21974 8.22911 6.82051 8.60531 6.60127C8.70439 6.54205 8.81155 6.49756 8.92344 6.4692C10.5399 6.05352 12.2353 6.05345 13.8518 6.46899H13.8527ZM5.31698 15.7152L5.23892 16.2791L8.01291 16.2795C8.04665 16.0719 8.048 15.8603 8.01692 15.6523C7.99718 15.5005 8.07334 15.3523 8.20827 15.28C8.36029 15.1987 8.49919 15.095 8.62029 14.9724L7.7144 10.3021C7.06845 10.6651 6.45774 11.0876 5.89017 11.5639L5.74883 12.5844C6.236 12.2267 6.74734 11.9031 7.27918 11.616C7.39528 11.5534 7.53597 11.5575 7.64823 11.6268C7.7605 11.6961 7.82728 11.8199 7.82344 11.9518C7.81959 12.0837 7.7457 12.2034 7.62959 12.266C6.90951 12.6537 6.2309 13.1139 5.60432 13.6395L5.46297 14.6597C5.94962 14.3021 6.46047 13.9786 6.99184 13.6916C7.10818 13.6259 7.25096 13.6281 7.36514 13.6975C7.47933 13.7669 7.5471 13.8926 7.54236 14.0262C7.53761 14.1597 7.46108 14.2802 7.34225 14.3414C6.6222 14.7292 5.94359 15.1896 5.31698 15.7152ZM8.77374 15.8004C8.77483 15.7997 8.77582 15.799 8.7768 15.7982L8.7796 15.7958L8.78132 15.7945L8.875 16.2797H8.75921C8.77806 16.121 8.78264 15.9608 8.7729 15.8013L8.77374 15.8004ZM2.00249 14.8192C1.81642 15.2549 1.77781 15.6019 1.88772 15.8513L1.88688 15.8521C1.9953 16.0585 2.18205 16.2127 2.40522 16.2802H4.49252L4.58471 15.6154C4.12434 14.9392 3.59608 14.3118 3.00816 13.743C2.86339 13.6009 2.86048 13.3685 3.00165 13.2228C3.14282 13.077 3.37515 13.0725 3.52187 13.2127C3.9554 13.6333 4.35931 14.0833 4.7307 14.5597L4.87205 13.5399C4.41164 12.8636 3.88339 12.2362 3.2955 11.6673C3.15073 11.5251 3.14781 11.2928 3.28898 11.147C3.43015 11.0013 3.66249 10.9968 3.8092 11.1369C4.2428 11.5575 4.64671 12.0077 5.01804 12.4842L5.15917 11.4646C4.69878 10.7882 4.17053 10.1606 3.58263 9.59157C3.43785 9.44939 3.43494 9.21703 3.57611 9.07128C3.71728 8.92553 3.94961 8.92102 4.09633 9.06119C4.53009 9.4819 4.93421 9.93213 5.3058 10.4087L5.62203 8.12616C5.64988 7.92424 5.83614 7.78313 6.03806 7.81097C6.23998 7.83882 6.38109 8.02509 6.35324 8.22701L6.03679 10.5084C6.52339 10.151 7.03416 9.82761 7.56545 9.54072H7.56714L7.28065 8.06393C7.25265 7.92249 7.24125 7.77826 7.24668 7.63418C7.26126 7.06823 7.51669 6.53541 7.94878 6.16962C7.62529 5.6061 7.04757 5.23549 6.4005 5.17638C5.77085 5.06264 5.12456 5.25417 4.65855 5.69262C4.21926 6.10225 3.97462 6.6792 3.98557 7.27975C3.99562 7.39185 3.95402 7.50241 3.87258 7.58008C3.79113 7.65775 3.67872 7.69406 3.56722 7.6787C3.24102 7.60197 2.89772 7.68282 2.64003 7.89705C2.34679 8.17152 2.19848 8.70992 2.24362 9.33714C2.25407 9.48831 2.17109 9.63051 2.03435 9.69579C1.64515 9.85213 1.38556 10.2242 1.37318 10.6435C1.34947 11.0026 1.50686 11.3498 1.79258 11.5686C1.89115 11.6246 1.95853 11.7228 1.97532 11.8349C1.99212 11.947 1.95648 12.0606 1.87865 12.143C1.57307 12.4434 1.40433 12.8561 1.41199 13.2844C1.41965 13.7128 1.60303 14.1192 1.91916 14.4084C2.02966 14.5147 2.06284 14.6783 2.00249 14.8192ZM24.2617 17.0175V18.9395H0.738171V17.0175H24.2617ZM0.738171 22.3394V24.2616H24.2609V22.3394H0.738171Z" fill="#505050"/>
</svg>
