<svg width="28" height="22" viewBox="0 0 28 22" fill="none" xmlns="http://www.w3.org/2000/svg">
<path d="M12.8488 2.43534C12.7918 2.26783 12.616 2.18055 12.4563 2.24047C12.2968 2.30039 12.2136 2.48486 12.2707 2.65237C12.2707 2.65237 12.4913 3.30043 12.4915 3.30076C12.5476 3.46559 12.727 3.55455 12.8839 3.4958C13.0436 3.43571 13.1267 3.25142 13.0696 3.08374L12.8488 2.43534Z" fill="#505050"/>
<path d="M4.97363 5.73607C5.16997 5.90257 5.54443 5.75789 5.81 5.41279C6.07557 5.06786 6.13169 4.65311 5.93535 4.48661C5.73901 4.31993 5.36455 4.46462 5.09898 4.80971C4.83341 5.15464 4.77729 5.56939 4.97363 5.73607Z" fill="#505050"/>
<path d="M3.46392 6.84873C3.66266 6.93349 3.93351 6.71898 4.06862 6.36952C4.20372 6.02006 4.15208 5.66809 3.95334 5.58332C3.75444 5.49856 3.48375 5.71324 3.34849 6.06253C3.21338 6.41199 3.26502 6.76413 3.46392 6.84873Z" fill="#505050"/>
<path d="M3.46743 12.7528C3.39357 12.3837 3.16333 12.1222 2.95324 12.1685C2.74331 12.2148 2.63283 12.5517 2.70685 12.9208C2.78072 13.2899 3.01096 13.5514 3.22105 13.5051C3.43114 13.4587 3.54146 13.1219 3.46743 12.7528Z" fill="#505050"/>
<path d="M3.96819 15.1171C4.13495 15.0385 4.16853 14.7371 4.04302 14.4438C3.91767 14.1506 3.68071 13.9767 3.51395 14.0554C3.34703 14.1342 3.31345 14.4354 3.43896 14.7287C3.56432 15.0219 3.80127 15.1958 3.96819 15.1171Z" fill="#505050"/>
<path fill-rule="evenodd" clip-rule="evenodd" d="M14.3383 0.834243C14.7586 1.05278 15.0301 1.51302 15.0301 2.00683C15.0301 2.13087 15.0133 2.25423 14.9802 2.37374C14.9377 2.52682 15.0211 2.68812 15.166 2.73361L15.409 2.80998C15.9358 2.97531 16.3018 3.49295 16.2993 4.06867C16.2961 4.78622 16.1447 5.85524 15.4418 6.8739C14.6128 8.07536 13.2344 8.89848 11.3447 9.32062C10.4943 9.51046 9.78196 9.83037 9.21213 10.2758C9.16336 10.9989 9.28615 11.6042 9.38608 12.096L9.3861 12.096C9.55925 12.9475 9.72277 13.7516 8.59208 14.1474C8.3935 14.2169 8.19988 14.2522 8.01665 14.2522C7.8646 14.2522 7.71958 14.2285 7.58224 14.182C7.6051 14.8982 7.74404 15.6324 7.98771 16.3197C8.13401 16.3316 8.34826 16.3444 8.5996 16.3444C9.26281 16.3444 10.1794 16.2583 10.7811 15.8486C11.1635 15.5881 11.6808 15.9358 11.6053 16.4115C11.3194 18.211 10.3409 19.2597 8.92081 19.2886C8.76492 19.2918 8.63589 19.4274 8.63286 19.5907C8.61719 20.4451 8.29278 21.0765 7.66858 21.4676C7.16333 21.7841 6.56792 21.8813 6.08953 21.9592C6.06417 21.9634 6.03854 21.9683 6.01277 21.9732C5.94303 21.9865 5.87219 22 5.80238 22C5.38411 22 5.12989 21.4931 5.35629 21.1269C5.86313 20.3066 5.84906 19.1686 5.81261 18.6655C5.66711 18.6098 5.52721 18.5318 5.39722 18.4311C4.97352 18.1029 4.56533 17.7347 4.18416 17.3365C4.06393 17.2111 4.06329 17.007 4.18288 16.8808C4.30248 16.7546 4.4969 16.7541 4.61714 16.8796C4.97704 17.2555 5.36221 17.6029 5.76161 17.9124C6.05932 18.143 6.46607 18.1909 6.80247 18.026L6.80375 18.0254C6.8156 18.0196 6.82709 18.0131 6.83862 18.0067L6.85028 18.0002L6.84852 17.9982C6.31945 17.4253 5.85018 16.7796 5.44951 16.1094C5.03508 15.4163 4.68477 14.6803 4.4144 13.9128C4.13444 13.1175 3.90372 12.2789 3.86087 11.4283C3.85032 11.2217 3.8524 11.014 3.86503 10.8074L3.86535 10.8016L3.86567 10.7958C3.64023 10.967 3.42182 11.1485 3.21029 11.3381C2.99668 11.53 2.78259 11.7222 2.53957 11.8726C2.36593 11.9798 2.16495 12.0834 1.95054 12.1603C2.31045 13.5109 2.95639 14.8188 3.82953 15.9602C3.9357 16.099 3.91459 16.3017 3.78237 16.4132C3.65014 16.5246 3.457 16.5025 3.35083 16.3637C2.41597 15.1414 1.72654 13.7372 1.34681 12.2862C1.32427 12.2872 1.30156 12.2877 1.27902 12.2877C0.906962 12.2877 0.252545 12.1406 0.0470904 11.1569C0.045972 11.1512 0.0450132 11.1455 0.0440546 11.1398L0.0440525 11.1398C-0.0947292 10.2461 0.0958558 9.44802 0.595183 8.83151C0.749953 8.6405 0.934942 8.46779 1.14471 8.31521C1.43683 6.67232 2.20396 5.0828 3.36874 3.71014C4.52057 2.35293 5.97729 1.29717 7.58144 0.657164C9.9209 -0.276405 12.3205 -0.213462 14.3383 0.834243ZM7.18556 1.5298C5.9159 2.14144 4.76471 3.03422 3.82714 4.139C2.86142 5.277 2.18846 6.56993 1.85845 7.91204C2.18494 7.77323 2.54309 7.67185 2.92058 7.61076C3.25474 7.55671 3.59658 7.53136 3.93474 7.54496L3.93634 7.54513C4.22302 7.55671 4.50714 7.65138 4.74201 7.82543L4.75532 7.83489C4.76177 7.8394 4.76823 7.8439 4.77447 7.84876L4.77638 7.84507C4.94203 7.53791 5.12366 7.24015 5.3176 6.95162C5.86601 6.13554 6.51052 5.37788 7.22665 4.71992L7.22824 4.71844L7.23161 4.71522C7.20331 4.61233 7.17757 4.50843 7.15438 4.40386C6.88993 3.21281 7.02839 2.17686 7.18556 1.5298ZM4.10262 9.85958C3.6382 10.1471 3.23026 10.4995 2.81837 10.8552L2.81828 10.8553L2.81824 10.8554C2.73047 10.9312 2.64251 11.0072 2.5538 11.0827L2.54932 11.0865C2.20285 11.3818 1.73662 11.6431 1.27886 11.6431C0.934143 11.6431 0.739561 11.4531 0.648585 11.0273C0.540662 10.32 0.680083 9.72178 1.06285 9.24912C1.60663 8.57773 2.49128 8.28936 3.30063 8.21031C3.77118 8.16432 4.31399 8.12538 4.61106 8.59149C4.71243 8.75061 4.76327 8.9428 4.75128 9.13381C4.72835 9.49829 4.50412 9.62696 4.24754 9.77419L4.24751 9.7742C4.19997 9.80148 4.15131 9.8294 4.10262 9.85958ZM8.10571 16.9743C8.10347 17.45 7.91113 17.9007 7.5824 18.2259C7.48103 18.3263 7.37343 18.419 7.25543 18.4987C7.00537 18.6677 6.72125 18.7584 6.43393 18.7693C6.44512 18.9954 6.44768 19.2878 6.42194 19.6102C6.36838 20.2812 6.21233 20.8585 5.95763 21.3286L5.9952 21.3226C7.08803 21.1443 7.99475 20.8902 8.01889 19.5786C8.02832 19.0647 8.41925 18.6543 8.90866 18.6444C9.57539 18.6308 10.0805 18.3584 10.4532 17.8115C10.7402 17.3901 10.8901 16.8823 10.9683 16.4818C10.2523 16.8981 9.29671 16.9891 8.5996 16.9891C8.41221 16.9891 8.24449 16.9825 8.10571 16.9743ZM8.39782 13.5361C8.26192 13.5836 8.13369 13.6078 8.01649 13.6078C7.86204 13.6078 7.7239 13.5667 7.59775 13.4831C7.6601 12.7034 7.89674 11.7155 8.59256 10.8774C8.61685 11.4 8.70754 11.8465 8.78536 12.2297L8.78555 12.2306C8.96878 13.1319 8.987 13.3298 8.39782 13.5361ZM15.6853 4.06581C15.6872 3.61699 15.3383 3.46072 14.99 3.35129C14.5229 3.20476 14.2542 2.68543 14.3905 2.19381C14.4743 1.89135 14.336 1.5523 14.0658 1.41214C12.2381 0.462964 10.0614 0.392971 7.92328 1.2114C7.78833 1.5914 7.41276 2.861 7.77858 4.37029C7.91001 4.91076 8.12537 5.42823 8.40518 5.90207C8.60056 6.23306 8.82552 6.54274 9.0743 6.83144C9.18814 6.96337 9.17839 7.16713 9.05272 7.28664C8.92944 7.40363 8.73086 7.39356 8.6191 7.26381C8.14808 6.7173 7.75076 6.09593 7.47256 5.41816C7.47055 5.41325 7.46851 5.40836 7.46649 5.40349C7.46367 5.39672 7.46086 5.38999 7.45817 5.38325L7.45449 5.37435C7.45257 5.37603 7.45081 5.37788 7.44889 5.37972C7.13711 5.68605 6.83908 6.00798 6.55784 6.34535C6.06987 6.93047 5.6241 7.56594 5.26564 8.2474C5.25048 8.27642 5.22219 8.33168 5.20862 8.35817C5.2043 8.36662 5.20147 8.37214 5.20104 8.37295C5.20152 8.37413 5.202 8.3753 5.20264 8.37631C5.48548 8.93776 5.41737 9.92101 4.78773 10.2097C4.78745 10.2099 4.78717 10.21 4.78689 10.2102C4.78669 10.2102 4.7865 10.2103 4.7863 10.2104C4.7779 10.2146 4.76951 10.2189 4.76112 10.2231C4.68493 10.2616 4.60882 10.3 4.53479 10.343C4.53399 10.3482 4.5332 10.3536 4.53224 10.3588C4.42639 11.0268 4.47708 11.7123 4.61634 12.3639C5.02693 14.2847 5.9677 16.0842 7.25639 17.5107C7.27462 17.5311 7.31219 17.5718 7.31379 17.5737C7.41659 17.4162 7.47655 17.2323 7.48934 17.0424C7.4999 16.8864 7.47767 16.7272 7.42491 16.5807C6.75258 14.7139 6.73708 12.425 7.89706 10.7591C8.49951 9.89365 9.36849 9.26708 10.4936 8.89026C10.4329 8.84997 10.3732 8.80885 10.3141 8.76773C10.0477 8.58578 9.79076 8.38655 9.54373 8.17691C9.41294 8.06579 9.3944 7.85833 9.49816 7.72355C9.60337 7.58709 9.79987 7.56527 9.93002 7.67571C10.0541 7.78129 10.181 7.88351 10.3109 7.9812C10.6386 8.2276 10.9786 8.45637 11.3297 8.66434C15.1022 7.77827 15.6792 5.40826 15.6853 4.06581Z" fill="#505050"/>
<path fill-rule="evenodd" clip-rule="evenodd" d="M17.1934 4.33385C18.9391 1.92622 22.2194 1.42289 24.5054 3.2119C26.7914 5.00143 27.2309 8.41575 25.4852 10.824C24.6723 11.9456 23.3389 12.6957 21.8223 12.9007C21.7838 12.9031 19.7662 13.0511 18.3673 14.9806C18.1834 15.2337 17.9186 15.3869 17.64 15.4296C17.3614 15.4724 17.0685 15.4047 16.828 15.2165C16.5678 15.0128 16.4211 14.7089 16.3996 14.3928C16.0908 14.458 15.7702 14.3883 15.5187 14.1917C15.0375 13.815 14.9449 13.0962 15.3125 12.5895C16.7111 10.66 16.291 8.60463 16.2867 8.58422C16.0484 6.99792 16.3799 5.45552 17.1934 4.33385ZM21.7797 12.3308C23.1248 12.1567 24.3262 11.4795 25.049 10.4825C26.6111 8.32789 26.2177 5.27216 24.1721 3.6711C22.1266 2.07004 19.1913 2.52043 17.629 4.67509C16.9059 5.67204 16.613 7.05528 16.825 8.46984C16.8421 8.54455 17.3081 10.7794 15.7484 12.931C15.5645 13.1846 15.6108 13.5443 15.8516 13.7328C16.0849 13.9152 16.4435 13.8604 16.6218 13.6146C16.7138 13.4877 16.8859 13.4612 17.0062 13.5556C17.0663 13.6027 17.1023 13.671 17.1116 13.7435C17.1209 13.8159 17.1036 13.8922 17.0577 13.9555C16.8738 14.2092 16.9201 14.5689 17.1609 14.7573C17.4016 14.9452 17.7471 14.8922 17.9311 14.6392C19.4908 12.4875 21.6867 12.3367 21.7797 12.3308Z" fill="#505050"/>
<path d="M18.6685 5.12804C18.548 5.03396 18.376 5.06123 18.2842 5.18789C17.5609 6.18981 17.576 7.39042 17.6535 8.5347C17.664 8.69211 17.7952 8.80906 17.9463 8.79599C17.9523 8.79537 17.9581 8.79476 17.9638 8.79388C18.106 8.77207 18.2107 8.63852 18.2006 8.48682C18.1308 7.4513 18.1131 6.37003 18.7208 5.52839C18.8126 5.40113 18.789 5.22208 18.6685 5.12804Z" fill="#505050"/>
<path d="M17.854 10.2918C17.7059 10.2632 17.561 10.3653 17.5311 10.5203C17.5007 10.6785 17.4819 10.8358 17.4638 10.9922C17.4332 11.254 17.4043 11.5017 17.3156 11.7301C17.2586 11.8771 17.3263 12.0433 17.4665 12.1006C17.5121 12.1196 17.5602 12.1243 17.6058 12.1173C17.7002 12.1028 17.7855 12.0375 17.8243 11.9383C17.9401 11.6389 17.9748 11.3418 18.0085 11.054C18.0248 10.9121 18.0413 10.769 18.0689 10.6257C18.0988 10.4701 18.0025 10.321 17.854 10.2918Z" fill="#505050"/>
<path d="M24.8661 8.20254C24.7203 8.16171 24.5687 8.25193 24.5273 8.40433C24.1694 9.72453 23.1128 10.6956 21.8264 10.893C21.8081 10.8958 21.7899 10.8983 21.7716 10.9008C21.6124 10.9324 21.5133 11.0646 21.531 11.2214C21.5486 11.378 21.6848 11.4885 21.8352 11.4683C21.8565 11.4653 21.878 11.4623 21.8992 11.459C23.4026 11.2283 24.637 10.0946 25.0551 8.55304C25.0965 8.40071 25.012 8.24369 24.8661 8.20254Z" fill="#505050"/>
<path d="M23.6717 4.36116C23.5514 4.26678 23.379 4.29322 23.2872 4.42015C23.1954 4.54681 23.2185 4.72594 23.3387 4.82035C23.9563 5.30396 24.3933 6.01962 24.4794 6.68842C24.4995 6.84493 24.6376 6.95275 24.7877 6.92972C24.9377 6.9067 25.0432 6.7615 25.0228 6.60503C24.9181 5.79165 24.4005 4.93195 23.6717 4.36116Z" fill="#505050"/>
<path d="M14.3902 18.1638L13.3041 18.3287L13.3038 18.3287C13.1538 18.3518 13.0485 18.4967 13.0683 18.6529C13.0885 18.8094 13.2263 18.9176 13.3764 18.8948L14.4625 18.7299L14.4627 18.7299C14.6125 18.7069 14.7181 18.562 14.6982 18.4057C14.6781 18.2492 14.5403 18.1411 14.3902 18.1638Z" fill="#505050"/>
<path fill-rule="evenodd" clip-rule="evenodd" d="M17.3276 14.842C17.4123 14.8694 17.4785 14.9381 17.5054 15.0263C17.532 15.1145 17.5157 15.2114 17.4615 15.2862L16.2524 16.9543C16.9104 17.6444 16.9939 18.7624 16.4072 19.5713C16.0855 20.0146 15.6224 20.2825 15.1347 20.3574C14.647 20.4322 14.1343 20.3137 13.7132 19.9844C13.3713 19.7168 13.2098 19.2844 13.1216 18.9135C12.7541 18.9275 12.3095 18.8854 11.9676 18.6178C11.1257 17.9588 10.9637 16.7005 11.6067 15.8137C12.1935 15.0053 13.2503 14.7796 14.0706 15.2463L15.2797 13.5784C15.3336 13.5038 15.4184 13.4605 15.508 13.4632C15.597 13.4654 15.6788 13.5126 15.7275 13.5899C15.7655 13.6502 15.8062 13.6968 15.8521 13.733C16.0848 13.9146 16.4437 13.8599 16.622 13.6146C16.7141 13.4876 16.8862 13.4612 17.0064 13.5556C17.0666 13.6027 17.1025 13.671 17.1119 13.7435C17.1212 13.8159 17.1039 13.8925 17.058 13.9558C16.8741 14.2094 16.9204 14.5691 17.1612 14.7576C17.2064 14.7928 17.261 14.8205 17.3276 14.842ZM15.7132 17.226C15.5926 17.1316 15.5696 16.9527 15.6617 16.8258L16.8283 15.2167C16.5681 15.0128 16.4214 14.7089 16.3998 14.3927C16.093 14.46 15.7705 14.3885 15.5189 14.1916C15.5189 14.1916 15.5189 14.1915 15.5189 14.1915C15.5188 14.1914 15.5187 14.1914 15.5186 14.1914L14.3518 15.8005C14.2597 15.9274 14.0879 15.9538 13.9673 15.8595C13.6665 15.6242 13.2999 15.5396 12.9516 15.5931C12.6031 15.6465 12.2723 15.8379 12.0426 16.1548C11.583 16.7887 11.6987 17.6876 12.3005 18.1586C12.5718 18.3709 13.0115 18.3563 13.3188 18.327C13.4582 18.3134 13.5837 18.4119 13.6098 18.5545C13.6672 18.8692 13.775 19.3125 14.0463 19.5251C14.6481 19.9958 15.5115 19.8634 15.9711 19.2298C16.4307 18.5959 16.315 17.697 15.7132 17.226Z" fill="#505050"/>
<path d="M13.4648 17.4394C13.4445 17.2832 13.3067 17.1756 13.1566 17.1986L13.1563 17.1987C13.006 17.222 12.9008 17.3674 12.9213 17.5239L13.0684 18.654C13.0888 18.8102 13.2266 18.9178 13.3766 18.8948L13.3769 18.8947C13.5272 18.8714 13.6324 18.726 13.612 18.5695L13.4648 17.4394Z" fill="#505050"/>
</svg>
