<svg width="25" height="20" viewBox="0 0 25 20" fill="none" xmlns="http://www.w3.org/2000/svg">
<path fill-rule="evenodd" clip-rule="evenodd" d="M22.5806 19.2309H20.5645V8.07887C20.5645 7.97329 20.5191 7.87233 20.4387 7.79969L17.6613 5.29318C19.0045 4.95215 19.8875 3.72924 19.7423 2.41084C19.5972 1.09245 18.4672 0.071081 17.079 0.00353783C15.6908 -0.0640053 14.4577 0.842383 14.1726 2.13985L12.7758 0.878514C12.6203 0.737876 12.3765 0.737876 12.221 0.878514L9.70363 3.15276C9.01887 2.42607 7.9745 2.11107 6.97613 2.3301C5.97775 2.54913 5.18268 3.26767 4.8997 4.20667C4.61673 5.14567 4.89043 6.15716 5.61452 6.84831L4.56129 7.7993C4.48084 7.87204 4.43534 7.97315 4.43548 8.07887V19.2309H0.403226C0.18053 19.2309 0 19.4031 0 19.6154C0 19.8278 0.18053 20 0.403226 20H22.5806C22.8033 20 22.9839 19.8278 22.9839 19.6154C22.9839 19.4031 22.8033 19.2309 22.5806 19.2309ZM16.9355 0.772386C18.049 0.772386 18.9516 1.63324 18.9516 2.69515C18.9516 3.75706 18.049 4.61791 16.9355 4.61791C16.8802 4.61791 16.8254 4.61445 16.7774 4.61137C15.8282 4.53728 15.0621 3.84112 14.9387 2.94049C14.9257 2.8593 14.9193 2.77728 14.9194 2.69515C14.9207 1.63376 15.8226 0.773658 16.9355 0.772386ZM9.67742 5.00246C9.67742 3.94055 8.77477 3.0797 7.66129 3.0797C6.54837 3.08097 5.64649 3.94107 5.64516 5.00246C5.64516 6.06437 6.54781 6.92522 7.66129 6.92522C8.77477 6.92522 9.67742 6.06437 9.67742 5.00246ZM10.8871 19.2309V15.3854H14.1129V19.2309H10.8871ZM14.9194 15.0008V19.2309H19.7581V8.24422L16.5544 5.35239C15.3597 5.19451 14.403 4.32853 14.1754 3.19889L12.5 1.68645L10.1762 3.7861C10.6221 4.6199 10.581 5.6149 10.0677 6.41264C9.55432 7.21038 8.64272 7.69591 7.66129 7.69431C7.16681 7.69391 6.68137 7.56795 6.25484 7.32937L5.24194 8.24422V19.2309H10.0806V15.0008C10.0806 14.7884 10.2612 14.6163 10.4839 14.6163H14.5161C14.7388 14.6163 14.9194 14.7884 14.9194 15.0008Z" fill="#505050"/>
<path d="M24.5969 19.2309H23.7904C23.5677 19.2309 23.3872 19.4031 23.3872 19.6154C23.3872 19.8278 23.5677 20 23.7904 20H24.5969C24.8196 20 25.0001 19.8278 25.0001 19.6154C25.0001 19.4031 24.8196 19.2309 24.5969 19.2309Z" fill="#505050"/>
<path d="M19.758 5.00247C19.5353 5.00247 19.3547 5.17464 19.3547 5.38703C19.3547 5.59941 19.5353 5.77158 19.758 5.77158H20.5644V6.54068C20.5644 6.75307 20.7449 6.92524 20.9676 6.92524C21.1903 6.92524 21.3709 6.75307 21.3709 6.54068V5.77158H22.1773C22.4 5.77158 22.5805 5.59941 22.5805 5.38703C22.5805 5.17464 22.4 5.00247 22.1773 5.00247H21.3709V4.23337C21.3709 4.02099 21.1903 3.84882 20.9676 3.84882C20.7449 3.84882 20.5644 4.02099 20.5644 4.23337V5.00247H19.758Z" fill="#505050"/>
<path d="M23.7903 5.77155C24.013 5.77155 24.1936 5.59938 24.1936 5.38699C24.1936 5.17461 24.013 5.00244 23.7903 5.00244H23.3871C23.1644 5.00244 22.9839 5.17461 22.9839 5.38699C22.9839 5.59938 23.1644 5.77155 23.3871 5.77155H23.7903Z" fill="#505050"/>
<path d="M2.01602 7.30979H2.41924V7.69434C2.41924 7.90672 2.59977 8.07889 2.82247 8.07889C3.04517 8.07889 3.2257 7.90672 3.2257 7.69434V7.30979H3.62892C3.85162 7.30979 4.03215 7.13762 4.03215 6.92523C4.03215 6.71285 3.85162 6.54068 3.62892 6.54068H3.2257V6.15613C3.2257 5.94375 3.04517 5.77158 2.82247 5.77158C2.59977 5.77158 2.41924 5.94375 2.41924 6.15613V6.54068H2.01602C1.79332 6.54068 1.61279 6.71285 1.61279 6.92523C1.61279 7.13762 1.79332 7.30979 2.01602 7.30979Z" fill="#505050"/>
<path d="M7.66128 4.23337C8.10667 4.23337 8.46773 4.57771 8.46773 5.00247C8.46773 5.21486 8.64826 5.38703 8.87096 5.38703C9.09366 5.38703 9.27419 5.21486 9.27419 5.00247C9.27419 4.15294 8.55206 3.46426 7.66128 3.46426C7.43859 3.46426 7.25806 3.63643 7.25806 3.84882C7.25806 4.0612 7.43859 4.23337 7.66128 4.23337Z" fill="#505050"/>
<path d="M16.9355 1.92606C17.3808 1.92606 17.7419 2.2704 17.7419 2.69516C17.7419 2.90754 17.9224 3.07971 18.1451 3.07971C18.3678 3.07971 18.5484 2.90754 18.5484 2.69516C18.5484 1.84563 17.8262 1.15695 16.9355 1.15695C16.7128 1.15695 16.5322 1.32912 16.5322 1.5415C16.5322 1.75389 16.7128 1.92606 16.9355 1.92606Z" fill="#505050"/>
<path fill-rule="evenodd" clip-rule="evenodd" d="M10.8872 5.38703C10.8872 4.5375 11.6093 3.84882 12.5001 3.84882C13.3909 3.84882 14.113 4.5375 14.113 5.38703C14.113 6.23656 13.3909 6.92524 12.5001 6.92524C11.6093 6.92524 10.8872 6.23656 10.8872 5.38703ZM11.6937 5.38703C11.6937 5.81179 12.0547 6.15613 12.5001 6.15613C12.9455 6.15613 13.3066 5.81179 13.3066 5.38703C13.3066 4.96226 12.9455 4.61792 12.5001 4.61792C12.0547 4.61792 11.6937 4.96226 11.6937 5.38703Z" fill="#505050"/>
<path fill-rule="evenodd" clip-rule="evenodd" d="M14.5161 6.92523C14.5161 6.28809 15.0577 5.77158 15.7258 5.77158C16.3939 5.77158 16.9355 6.28809 16.9355 6.92523C16.9355 7.56238 16.3939 8.07889 15.7258 8.07889C15.0577 8.07889 14.5161 7.56238 14.5161 6.92523ZM15.3226 6.92523C15.3226 7.13761 15.5031 7.30978 15.7258 7.30978C15.9485 7.30978 16.129 7.13761 16.129 6.92523C16.129 6.71285 15.9485 6.54068 15.7258 6.54068C15.5031 6.54068 15.3226 6.71285 15.3226 6.92523Z" fill="#505050"/>
</svg>
