<svg width="25" height="22" viewBox="0 0 25 22" fill="none" xmlns="http://www.w3.org/2000/svg">
<path fill-rule="evenodd" clip-rule="evenodd" d="M24.5173 17.2639L23.5582 17.4731L24.1136 16.6358L23.4256 16.1484L22.7619 17.1492C22.6385 16.8871 22.4812 16.6439 22.2941 16.4258L22.7943 15.2705C23.4338 13.7957 23.7661 12.1981 23.7693 10.5817C23.7687 9.51462 23.5283 8.46252 23.0671 7.50815C22.6058 6.54768 21.8938 5.74012 21.0118 5.17647C19.0164 3.90004 16.4623 4.05107 14.6201 5.55434C14.7333 3.89794 15.4219 2.3399 16.5588 1.16774L15.9692 0.557751C15.3651 1.18543 14.8689 1.91464 14.5018 2.71461C13.8693 1.07801 12.3386 0.0033701 10.635 0C10.4047 0 10.218 0.193149 10.218 0.431372C10.2215 2.61035 11.7934 4.44537 13.8839 4.71055C13.8353 5.00185 13.8027 5.29568 13.7862 5.59057L13.7701 5.5773C12.3753 4.42578 10.5332 4.0319 8.81155 4.5174C8.04766 2.56254 6.21001 1.2859 4.17202 1.29412H2.0872C1.85693 1.29412 1.67023 1.48727 1.67023 1.72549V3.88235C1.66331 5.57835 2.46568 7.16883 3.81471 8.13267C2.49541 8.68916 1.54807 10.0463 1.05802 12.1014C0.640649 13.916 0.612145 15.803 0.974749 17.6302C1.0965 18.1684 1.29541 18.6849 1.56477 19.1624L1.06881 19.2668C0.396945 19.408 -0.0621634 20.0531 0.00685553 20.7587C0.076078 21.4646 0.651032 22.0012 1.33654 22H19.7385C20.5617 22.0025 21.3514 21.664 21.9317 21.0602L22.166 20.8177C22.6003 20.3708 22.8957 19.7999 23.015 19.1784L23.8819 20.137L24.4907 19.5468L23.4348 18.3822L24.6892 18.109L24.5173 17.2639ZM11.0798 0.893498C12.5667 1.10371 13.7361 2.31336 13.9393 3.85181C12.4525 3.64139 11.2832 2.43174 11.0798 0.893498ZM13.9194 6.80717L13.2481 6.25069H13.2471C12.4052 5.55666 11.361 5.17815 10.2846 5.17647C8.48356 5.16825 6.83505 6.22225 6.03695 7.89276L6.03382 7.89983C6.02496 7.91989 6.01632 7.93944 6.00702 7.95848C7.06267 8.21419 8.10691 8.95224 9.08885 10.1554C10.2398 11.5908 11.0737 13.2693 11.5322 15.073C11.6798 15.7154 11.7148 16.3799 11.6356 17.035L19.3527 15.4056C20.1386 15.2383 20.9566 15.3952 21.6324 15.8426L22.0335 14.9173C22.6249 13.5537 22.9323 12.0763 22.9354 10.5817C22.935 9.64858 22.7249 8.72834 22.3216 7.89382C21.9292 7.07636 21.3235 6.38907 20.5733 5.90946C18.8651 4.81987 16.6797 4.95657 15.111 6.25111L14.4406 6.80717C14.2883 6.93334 14.0717 6.93334 13.9194 6.80717ZM2.50416 3.88235V2.15686H4.17202C5.85453 2.15096 7.37437 3.19591 8.02058 4.80344C7.4951 5.04419 7.00912 5.36814 6.58035 5.76413L5.83987 4.99785V3.01961H5.00594V4.13511L3.63289 2.71461L3.04328 3.3246L4.41633 4.7451H3.33809V5.60784H5.25026L6.00071 6.38444C5.72341 6.72861 5.48561 7.10501 5.292 7.50584C5.23763 7.616 5.18551 7.73458 5.1338 7.85928H5.06376C3.5087 7.19495 2.49683 5.62301 2.50416 3.88235ZM1.86731 12.3063C1.47926 13.9886 1.45239 15.7383 1.78852 17.4327C1.91434 17.9839 2.13545 18.5069 2.44166 18.9766L3.33809 18.7872C2.98281 18.3346 2.73117 17.8046 2.60209 17.2372C2.24091 15.6551 2.87084 14.008 4.18036 13.1095C5.48969 12.2111 7.20152 12.2518 8.46972 13.2114C9.73791 14.171 10.2939 15.8466 9.86313 17.4097L10.7563 17.2212C10.8776 16.5758 10.8656 15.9111 10.7213 15.2705C10.2956 13.5977 9.52129 12.0414 8.45241 10.711C7.56107 9.61973 6.16094 8.40312 4.54643 8.79321C2.93191 9.18309 2.19856 10.9189 1.86731 12.3063ZM4.30293 18.5831C3.85929 18.1766 3.54901 17.6372 3.41484 17.04C3.12228 15.7544 3.67137 14.4211 4.77059 13.7487C5.8698 13.0766 7.26362 13.2215 8.21156 14.1066C9.1593 14.9917 9.44107 16.4113 8.90704 17.6113L4.30293 18.5831ZM21.3421 20.4502L21.576 20.2077L21.5764 20.2037C22.2244 19.5333 22.4187 18.5252 22.0685 17.649C21.7183 16.7728 20.8927 16.2007 19.9761 16.1994C19.823 16.1994 19.6703 16.2152 19.5205 16.2468L19.4787 16.2559C19.5372 16.7784 19.5022 17.3078 19.3749 17.8171L19.3332 17.9818L18.5267 17.7631L18.5685 17.5986C18.664 17.2172 18.6951 16.8214 18.6603 16.4288L16.2623 16.9349C16.3419 17.5877 16.2735 18.2508 16.062 18.8713L15.2765 18.5814C15.4382 18.1092 15.496 17.6056 15.4463 17.1074L13.411 17.5388C13.4501 18.1168 13.3745 18.6971 13.1893 19.2441L12.4036 18.9541C12.5398 18.5557 12.6025 18.1345 12.5889 17.7122L10.5494 18.1435C10.5566 18.6448 10.4776 19.1434 10.3163 19.6163L9.53086 19.3256C9.6408 19.0021 9.70228 18.6632 9.71307 18.3205L7.67447 18.7518C7.65737 19.174 7.57817 19.591 7.43972 19.9885L6.65466 19.6978C6.73936 19.4501 6.79534 19.1929 6.8214 18.9317L1.23657 20.1106C0.980246 20.1593 0.803118 20.4034 0.829178 20.6717C0.855238 20.9399 1.07614 21.1425 1.33654 21.1372H19.7385C20.3404 21.1391 20.9178 20.8916 21.3421 20.4502Z" fill="#505050"/>
<path d="M23.9231 7.35713C24.0306 7.59978 24.1257 7.84811 24.2079 8.10129L25.0001 7.82599C24.9085 7.54459 24.8026 7.26824 24.6833 6.99821L23.9231 7.35713Z" fill="#505050"/>
<path d="M18.0757 2.58823C17.8749 2.58823 17.6752 2.59708 17.4761 2.61456L17.5465 3.47394C17.7226 3.45877 17.8985 3.45098 18.0757 3.45098C20.2918 3.44045 22.3538 4.62314 23.5192 6.57337L24.2281 6.11778C22.9109 3.91352 20.5805 2.57665 18.0757 2.58823Z" fill="#505050"/>
</svg>
