<svg width="25" height="15" viewBox="0 0 25 15" fill="none" xmlns="http://www.w3.org/2000/svg">
<path fill-rule="evenodd" clip-rule="evenodd" d="M24.5117 11.1468H23.6596C23.4043 8.5866 21.7832 5.39074 19.8979 3.81898C19.8091 3.74491 19.6953 3.70408 19.5775 3.70408H19.1048C19.1485 3.52856 19.1708 3.34765 19.1708 3.16454C19.1708 1.88517 18.0853 0.844286 16.7509 0.844286C16.2699 0.844286 15.8043 0.983292 15.4117 1.23312C15.0014 0.495157 14.1886 0 13.2742 0C12.3212 0 11.4733 0.532519 11.0817 1.33654C10.6993 0.912783 10.1346 0.644229 9.50566 0.644229C8.42451 0.644229 7.53306 1.43781 7.43145 2.44933C6.70913 2.60093 6.098 3.06159 5.77515 3.70408H5.42241C5.30469 3.70408 5.19087 3.74486 5.102 3.81898C3.21675 5.39069 1.59565 8.58655 1.34033 11.1468H0.488281C0.218604 11.1468 0 11.3564 0 11.6149V14.5318C0 14.7904 0.218604 15 0.488281 15H24.5117C24.7813 15 25 14.7904 25 14.5318V11.6149C25 11.3564 24.7813 11.1468 24.5117 11.1468ZM11.5592 2.30152C11.7119 2.25236 11.8341 2.1318 11.8763 1.97421C12.0402 1.36313 12.615 0.936327 13.2742 0.936327C13.9954 0.936327 14.6104 1.45223 14.7048 2.1363C14.731 2.32605 14.875 2.48145 15.0685 2.52859C15.2619 2.57579 15.4659 2.50528 15.5835 2.35059C15.8548 1.99364 16.2912 1.78057 16.7509 1.78057C17.5467 1.78057 18.1942 2.40134 18.1942 3.16444C18.1942 3.35148 18.1553 3.5345 18.0804 3.70398H11.2703C11.4725 3.3962 11.5896 3.03208 11.5896 2.64222C11.5896 2.52611 11.5791 2.41225 11.5592 2.30152ZM10.613 2.64233C10.613 2.0569 10.1162 1.58062 9.50566 1.58062C8.89512 1.58062 8.39834 2.05695 8.39834 2.64233C8.39834 3.2278 8.89512 3.70409 9.50566 3.70409C10.1163 3.70409 10.613 3.22775 10.613 2.64233ZM7.56943 3.38108C7.61655 3.4942 7.67412 3.60221 7.74102 3.70409H6.96689C7.13594 3.55239 7.34224 3.44078 7.56943 3.38108ZM19.3907 4.64051H5.60933C3.99336 6.07424 2.57485 8.90642 2.32192 11.1468H10.8473C10.2282 10.7111 9.64468 10.2197 9.34771 9.73839C9.05317 9.26107 8.92188 8.80075 8.92188 8.24585C8.92188 6.81895 10.0392 6.07237 11.143 6.07237C11.7856 6.07237 12.2183 6.29556 12.4984 6.53747C12.7791 6.2956 13.2123 6.07237 13.8556 6.07237C14.9601 6.07237 16.0781 6.81895 16.0781 8.24585C16.0781 8.80145 15.947 9.26173 15.653 9.73834C15.3545 10.2222 14.7721 10.7127 14.154 11.1468H22.678C22.4251 8.90642 21.0066 6.07434 19.3907 4.64051ZM12.4986 11.0836C11.2452 10.328 10.4681 9.71522 10.1882 9.26168C9.98242 8.92809 9.89849 8.63379 9.89849 8.2459C9.89849 7.33279 10.5689 7.0088 11.143 7.0088C11.6681 7.0088 11.9125 7.24964 12.0251 7.45161C12.1184 7.61904 12.2994 7.72312 12.4976 7.7233H12.498C12.696 7.7233 12.8771 7.61951 12.9707 7.45227C13.0837 7.24996 13.3292 7.0088 13.8556 7.0088C14.4304 7.0088 15.1015 7.33279 15.1015 8.2459C15.1015 8.63454 15.0178 8.92884 14.8125 9.26168C14.5302 9.71915 13.7518 10.332 12.4986 11.0836ZM15.9503 12.6051H24.0234V12.0831H0.976562V12.6051H9.04966C9.31934 12.6051 9.53794 12.8147 9.53794 13.0733C9.53794 13.3319 9.31934 13.5415 9.04966 13.5415H0.976562V14.0636H24.0234V13.5415H15.9503C15.6807 13.5415 15.4621 13.3319 15.4621 13.0733C15.4621 12.8147 15.6807 12.6051 15.9503 12.6051Z" fill="#505050"/>
<path d="M11.2539 12.982C11.2476 12.952 11.2378 12.9225 11.2256 12.8945C11.2134 12.8659 11.1982 12.8387 11.1807 12.8135C11.1631 12.7877 11.1426 12.7638 11.1201 12.7423C11.0977 12.7208 11.0728 12.7011 11.0459 12.6842C11.0195 12.6674 10.9912 12.6529 10.9619 12.6412C10.9321 12.6295 10.9014 12.6206 10.8701 12.6145C10.8071 12.6023 10.7427 12.6023 10.6797 12.6145C10.6484 12.6206 10.6177 12.6295 10.5879 12.6412C10.5586 12.6529 10.5303 12.6674 10.5039 12.6842C10.4771 12.7011 10.4521 12.7208 10.4297 12.7423C10.4072 12.7638 10.3867 12.7877 10.3691 12.8135C10.3516 12.8387 10.3364 12.8659 10.3242 12.8945C10.312 12.9225 10.3027 12.952 10.2964 12.982C10.29 13.012 10.2866 13.0429 10.2866 13.0733C10.2866 13.1037 10.29 13.1346 10.2964 13.1646C10.3027 13.1946 10.312 13.2241 10.3242 13.2526C10.3364 13.2807 10.3516 13.3079 10.3691 13.3331C10.3867 13.3589 10.4072 13.3828 10.4297 13.4043C10.4521 13.4258 10.4771 13.4455 10.5039 13.4624C10.5303 13.4792 10.5586 13.4937 10.5879 13.5054C10.6177 13.5171 10.6484 13.5265 10.6797 13.5326C10.7109 13.5387 10.7432 13.5415 10.7749 13.5415C10.8066 13.5415 10.8389 13.5387 10.8701 13.5326C10.9014 13.5265 10.9321 13.5171 10.9619 13.5054C10.9912 13.4937 11.0195 13.4792 11.0459 13.4624C11.0728 13.4455 11.0977 13.4258 11.1201 13.4043C11.1426 13.3828 11.1631 13.3589 11.1807 13.3331C11.1982 13.3079 11.2134 13.2807 11.2256 13.2526C11.2378 13.2241 11.2476 13.1946 11.2539 13.1646C11.2603 13.1346 11.2632 13.1037 11.2632 13.0733C11.2632 13.0429 11.2603 13.012 11.2539 12.982Z" fill="#505050"/>
<path d="M14.7036 12.982C14.6978 12.952 14.688 12.9225 14.6758 12.8945C14.6636 12.8659 14.6484 12.8387 14.6313 12.8135C14.6133 12.7877 14.5928 12.7638 14.5703 12.7423C14.5479 12.7208 14.5229 12.7011 14.4961 12.6842C14.4697 12.6674 14.4414 12.6529 14.4116 12.6412C14.3823 12.6295 14.3515 12.6201 14.3203 12.6145C14.2573 12.6023 14.1924 12.6023 14.1299 12.6145C14.0986 12.6201 14.0678 12.6295 14.0381 12.6412C14.0087 12.6529 13.9804 12.6674 13.9541 12.6842C13.9272 12.7011 13.9023 12.7208 13.8798 12.7423C13.8574 12.7638 13.8369 12.7877 13.8188 12.8135C13.8012 12.8387 13.7866 12.8659 13.7744 12.8945C13.7622 12.9225 13.7524 12.952 13.746 12.982C13.7402 13.012 13.7368 13.0429 13.7368 13.0733C13.7368 13.1037 13.7402 13.1346 13.746 13.1651C13.7524 13.1946 13.7622 13.2241 13.7744 13.2526C13.7866 13.2807 13.8012 13.3079 13.8188 13.3331C13.8369 13.3589 13.8574 13.3828 13.8798 13.4043C13.9023 13.4258 13.9272 13.4455 13.9541 13.4624C13.9804 13.4792 14.0087 13.4937 14.0381 13.5054C14.0678 13.5171 14.0986 13.5265 14.1299 13.5321C14.1611 13.5382 14.1934 13.5415 14.2251 13.5415C14.2568 13.5415 14.2891 13.5382 14.3203 13.5321C14.3516 13.5265 14.3823 13.5171 14.4116 13.5054C14.4414 13.4937 14.4697 13.4792 14.4961 13.4624C14.5229 13.4455 14.5479 13.4258 14.5703 13.4043C14.5928 13.3828 14.6133 13.3589 14.6313 13.3331C14.6485 13.3079 14.6636 13.2807 14.6758 13.2526C14.688 13.2241 14.6978 13.1946 14.7036 13.1651C14.71 13.1346 14.7134 13.1037 14.7134 13.0733C14.7134 13.0429 14.71 13.012 14.7036 12.982Z" fill="#505050"/>
</svg>
