<svg width="25" height="17" viewBox="0 0 25 17" fill="none" xmlns="http://www.w3.org/2000/svg">
<path fill-rule="evenodd" clip-rule="evenodd" d="M23.3154 13.4644H23.9014C24.5071 13.4644 25 13.9533 25 14.5541C25 15.155 24.5071 15.6439 23.9014 15.6439H23.5596V15.765C23.5596 16.446 23.0011 17 22.3145 17H2.68555C1.9989 17 1.44043 16.446 1.44043 15.765V15.6439H1.09863C0.492859 15.6439 0 15.155 0 14.5541C0 13.9533 0.492859 13.4644 1.09863 13.4644H2.69032C2.64015 13.3367 2.6123 13.1978 2.6123 13.0527V5.40028C2.6123 5.19974 2.77634 5.03704 2.97852 5.03704C3.18069 5.03704 3.34473 5.19974 3.34473 5.40028V13.0527C3.34473 13.2797 3.53088 13.4644 3.75977 13.4644H7.49512V5.59402C7.49512 5.28696 7.74708 5.03704 8.05664 5.03704H8.17871V3.46296C8.17871 3.26242 8.34274 3.09971 8.54492 3.09971H8.92277C8.85735 2.95706 8.71277 2.85755 8.54492 2.85755H3.75977C3.53088 2.85755 3.34473 3.0422 3.34473 3.26923V3.85043C3.34473 4.05097 3.18069 4.21368 2.97852 4.21368C2.77634 4.21368 2.6123 4.05097 2.6123 3.85043V3.26923C2.6123 2.64168 3.1271 2.13105 3.75977 2.13105H4.32129V0.750712C4.32129 0.336761 4.6608 0 5.07812 0H7.22656C7.64389 0 7.9834 0.336761 7.9834 0.750712V2.13105H8.54492C9.11961 2.13105 9.59682 2.55219 9.6796 3.09971H16.4551C16.6573 3.09971 16.8213 3.26242 16.8213 3.46296V5.03704H16.9434C17.2529 5.03704 17.5049 5.28696 17.5049 5.59402V8.42735H20.3287C20.5311 8.42735 20.6949 8.59005 20.6949 8.7906C20.6949 8.99114 20.5311 9.15385 20.3287 9.15385H17.5049V10.1709H22.583V9.15385H21.875C21.6728 9.15385 21.5088 8.99114 21.5088 8.7906C21.5088 8.59005 21.6728 8.42735 21.875 8.42735H22.7051C23.0417 8.42735 23.3154 8.69884 23.3154 9.03276V13.4644ZM5.05371 0.750712V2.13105H7.25098V0.750712C7.25098 0.73728 7.2401 0.726496 7.22656 0.726496H5.07812C5.06458 0.726496 5.05371 0.73728 5.05371 0.750712ZM17.5049 12.641H22.583V13.4644H17.5049V12.641ZM22.583 11.9145V10.8974H17.5049V11.9145H22.583ZM8.91113 3.82621H9.5459V4.23789C9.5459 4.43843 9.70993 4.60114 9.91211 4.60114C10.1143 4.60114 10.2783 4.43843 10.2783 4.23789V3.82621H10.8398V4.23789C10.8398 4.43843 11.0039 4.60114 11.2061 4.60114C11.4082 4.60114 11.5723 4.43843 11.5723 4.23789V3.82621H12.1338V4.23789C12.1338 4.43843 12.2978 4.60114 12.5 4.60114C12.7022 4.60114 12.8662 4.43843 12.8662 4.23789V3.82621H13.4277V4.23789C13.4277 4.43843 13.5918 4.60114 13.7939 4.60114C13.9961 4.60114 14.1602 4.43843 14.1602 4.23789V3.82621H14.7217V4.23789C14.7217 4.43843 14.8857 4.60114 15.0879 4.60114C15.2901 4.60114 15.4541 4.43843 15.4541 4.23789V3.82621H16.0889V5.03704H8.91113V3.82621ZM16.7725 13.4644V5.76353H8.22754V13.4644H16.7725ZM22.8271 15.765C22.8271 16.0453 22.5971 16.2735 22.3145 16.2735H2.68555C2.40288 16.2735 2.17285 16.0453 2.17285 15.765V15.6439H22.8271V15.765ZM1.09863 14.9174H23.9014C24.1034 14.9174 24.2676 14.7545 24.2676 14.5541C24.2676 14.3538 24.1034 14.1909 23.9014 14.1909H1.09863C0.896645 14.1909 0.732422 14.3538 0.732422 14.5541C0.732422 14.7545 0.896645 14.9174 1.09863 14.9174Z" fill="#505050"/>
<path d="M10.1818 10.8358C10.3495 10.9483 10.577 10.9046 10.6905 10.7385C10.8038 10.5724 10.7597 10.3465 10.5923 10.2341C10.1694 9.95035 9.93652 9.5924 9.93652 9.2265C9.93652 8.39955 11.1105 7.70086 12.5 7.70086C13.8897 7.70086 15.0635 8.39955 15.0635 9.2265C15.0635 10.0535 13.8897 10.7521 12.5 10.7521C12.2963 10.7521 12.0935 10.7374 11.8973 10.7084C11.6972 10.6789 11.511 10.8159 11.4813 11.0142C11.4513 11.2126 11.5894 11.3975 11.7895 11.427C12.0213 11.4612 12.2604 11.4786 12.5 11.4786C14.3482 11.4786 15.7959 10.4894 15.7959 9.2265C15.7959 7.96365 14.3482 6.97437 12.5 6.97437C10.6518 6.97437 9.2041 7.96365 9.2041 9.2265C9.2041 9.84119 9.55143 10.4127 10.1818 10.8358Z" fill="#505050"/>
</svg>
