<svg width="45" height="12" viewBox="0 0 45 12" fill="none" xmlns="http://www.w3.org/2000/svg">
<path d="M16.9019 11.6861L19.1207 0.376953H22.5877L20.4381 11.6861H16.9019Z" fill="#3C58BF"/>
<path d="M16.9019 11.6861L19.7448 0.376953H22.5877L20.4381 11.6861H16.9019Z" fill="#293688"/>
<path d="M32.9888 0.50263C32.2954 0.251315 31.1859 0 29.7992 0C26.3322 0 23.836 1.57072 23.836 3.83256C23.836 5.52894 25.5695 6.40854 26.9563 6.974C28.343 7.53946 28.7591 7.91643 28.7591 8.41906C28.7591 9.17301 27.6496 9.54998 26.6789 9.54998C25.2921 9.54998 24.5294 9.3615 23.3506 8.92169L22.8653 8.73321L22.3799 11.3092C23.212 11.6233 24.7374 11.9375 26.3322 11.9375C30.0072 11.9375 32.434 10.3668 32.434 7.97926C32.434 6.65986 31.5326 5.65459 29.4525 4.83782C28.2044 4.27236 27.4416 3.95822 27.4416 3.39276C27.4416 2.89013 28.0657 2.3875 29.4525 2.3875C30.6312 2.3875 31.4633 2.57598 32.0873 2.8273L32.434 2.95295L32.9888 0.50263Z" fill="#3C58BF"/>
<path d="M32.9888 0.50263C32.2954 0.251315 31.1859 0 29.7992 0C26.3322 0 24.4601 1.57072 24.4601 3.83256C24.4601 5.52894 25.5695 6.40854 26.9563 6.974C28.343 7.53946 28.7591 7.91643 28.7591 8.41906C28.7591 9.17301 27.6496 9.54998 26.6789 9.54998C25.2921 9.54998 24.5294 9.3615 23.3506 8.92169L22.8653 8.73321L22.3799 11.3092C23.212 11.6233 24.7374 11.9375 26.3322 11.9375C30.0072 11.9375 32.434 10.3668 32.434 7.97926C32.434 6.65986 31.5326 5.65459 29.4525 4.83782C28.2044 4.27236 27.4416 3.95822 27.4416 3.39276C27.4416 2.89013 28.0657 2.3875 29.4525 2.3875C30.6312 2.3875 31.4633 2.57598 32.0873 2.8273L32.434 2.95295L32.9888 0.50263Z" fill="#293688"/>
<path d="M38.952 0.376953C38.1199 0.376953 37.4959 0.439783 37.1492 1.19373L31.9487 11.6861H35.693L36.3864 9.80128H40.8241L41.2402 11.6861H44.5684L41.6562 0.376953H38.952ZM37.3572 7.91641C37.5652 7.35095 38.744 4.58649 38.744 4.58649C38.744 4.58649 39.0213 3.89537 39.2293 3.45557L39.4373 4.52366C39.4373 4.52366 40.1307 7.35096 40.2694 7.97924H37.3572V7.91641Z" fill="#3C58BF"/>
<path d="M39.784 0.376953C38.952 0.376953 38.3279 0.439783 37.9812 1.19373L31.9487 11.6861H35.693L36.3864 9.80128H40.8241L41.2402 11.6861H44.5684L41.6562 0.376953H39.784ZM37.3572 7.91641C37.6345 7.28813 38.744 4.58649 38.744 4.58649C38.744 4.58649 39.0213 3.89537 39.2293 3.45557L39.4373 4.52366C39.4373 4.52366 40.1307 7.35096 40.2694 7.97924H37.3572V7.91641Z" fill="#293688"/>
<path d="M10.5227 8.29306L10.176 6.65951C9.55195 4.77464 7.54111 2.70129 5.32227 1.69603L8.44252 11.7486H12.1868L17.8033 0.439453H14.059L10.5227 8.29306Z" fill="#3C58BF"/>
<path d="M10.5227 8.29306L10.176 6.65951C9.55195 4.77464 7.54111 2.70129 5.32227 1.69603L8.44252 11.7486H12.1868L17.8033 0.439453H14.7524L10.5227 8.29306Z" fill="#293688"/>
<path d="M0.884766 0.376953L1.50882 0.502611C5.94652 1.44504 8.99743 3.83254 10.1762 6.65984L8.92809 1.31939C8.72008 0.56544 8.09602 0.376953 7.3333 0.376953H0.884766Z" fill="#FFBC00"/>
<path d="M0.884766 0.376953C5.32246 1.31939 8.99743 3.76971 10.1762 6.59701L8.99743 2.13616C8.78941 1.38222 8.09602 0.942414 7.3333 0.942414L0.884766 0.376953Z" fill="#F7981D"/>
<path d="M0.884766 0.376953C5.32246 1.31939 8.99743 3.76971 10.1762 6.59701L9.34413 4.14668C9.13611 3.39274 8.85875 2.63879 7.88801 2.32465L0.884766 0.376953Z" fill="#ED7C00"/>
<path d="M13.9896 7.91618L11.6321 5.78L10.5227 8.1675L10.2453 6.59678C9.62128 4.71191 7.61045 2.63856 5.3916 1.6333L8.51186 11.6859H12.2562L13.9896 7.91618Z" fill="#051244"/>
<path d="M20.4381 11.6859L17.4566 8.92139L16.9019 11.6859H20.4381Z" fill="#051244"/>
<path d="M28.4124 7.79004C28.6897 8.04135 28.8284 8.22984 28.7591 8.48116C28.7591 9.2351 27.6497 9.61208 26.6789 9.61208C25.2921 9.61208 24.5294 9.42359 23.3506 8.98379L22.8653 8.7953L22.3799 11.3713C23.212 11.6854 24.7374 11.9996 26.3322 11.9996C28.5511 11.9996 30.3539 11.4341 31.394 10.4289L28.4124 7.79004Z" fill="#051244"/>
<path d="M32.4336 11.6866H35.6925L36.3859 9.80177H40.8236L41.2397 11.6866H44.5679L43.3892 7.10013L39.2288 3.45605L39.4368 4.46132C39.4368 4.46132 40.1302 7.28861 40.2689 7.9169H37.3567C37.634 7.28861 38.7434 4.58697 38.7434 4.58697C38.7434 4.58697 39.0208 3.89586 39.2288 3.45605" fill="#051244"/>
</svg>
